solid CATIA STL
  facet normal -3.381882e-001 -9.407802e-001  2.369387e-002
    outer loop
      vertex  3.123023e+002  8.262111e+002 -1.300000e+003
      vertex -1.568983e+002  1.049152e+003  8.550000e+002
      vertex  2.852073e+002  8.359510e+002 -1.300000e+003
    endloop
  endfacet
  facet normal -2.591800e-001 -9.649028e-001  4.228913e-002
    outer loop
      vertex  2.852073e+002  8.359510e+002 -1.300000e+003
      vertex -1.568983e+002  1.049152e+003  8.550000e+002
      vertex -1.849037e+002  1.056674e+003  8.550000e+002
    endloop
  endfacet
  facet normal -3.072867e-001 -9.511318e-001  3.038413e-002
    outer loop
      vertex  2.852073e+002  8.359510e+002 -1.300000e+003
      vertex -1.849037e+002  1.056674e+003  8.550000e+002
      vertex  2.578080e+002  8.448031e+002 -1.300000e+003
    endloop
  endfacet
  facet normal -2.272964e-001 -9.725958e-001  4.892714e-002
    outer loop
      vertex  2.578080e+002  8.448031e+002 -1.300000e+003
      vertex -1.849037e+002  1.056674e+003  8.550000e+002
      vertex -2.131422e+002  1.063274e+003  8.550000e+002
    endloop
  endfacet
  facet normal -2.760612e-001 -9.604262e-001  3.703644e-002
    outer loop
      vertex  2.578080e+002  8.448031e+002 -1.300000e+003
      vertex -2.131422e+002  1.063274e+003  8.550000e+002
      vertex  2.301335e+002  8.527578e+002 -1.300000e+003
    endloop
  endfacet
  facet normal -1.951769e-001 -9.791960e-001  5.550779e-002
    outer loop
      vertex  2.301335e+002  8.527578e+002 -1.300000e+003
      vertex -2.131422e+002  1.063274e+003  8.550000e+002
      vertex -2.415831e+002  1.068943e+003  8.550000e+002
    endloop
  endfacet
  facet normal -2.445409e-001 -9.686562e-001  4.364492e-002
    outer loop
      vertex  2.301335e+002  8.527578e+002 -1.300000e+003
      vertex -2.415831e+002  1.068943e+003  8.550000e+002
      vertex  2.022134e+002  8.598063e+002 -1.300000e+003
    endloop
  endfacet
  facet normal -1.628662e-001 -9.846969e-001  6.202152e-002
    outer loop
      vertex  2.022134e+002  8.598063e+002 -1.300000e+003
      vertex -2.415831e+002  1.068943e+003  8.550000e+002
      vertex -2.701956e+002  1.073675e+003  8.550000e+002
    endloop
  endfacet
  facet normal -2.127720e-001 -9.758115e-001  5.019954e-002
    outer loop
      vertex  2.022134e+002  8.598063e+002 -1.300000e+003
      vertex -2.701956e+002  1.073675e+003  8.550000e+002
      vertex  1.740776e+002  8.659412e+002 -1.300000e+003
    endloop
  endfacet
  facet normal -1.303938e-001 -9.890957e-001  6.846319e-002
    outer loop
      vertex  1.740776e+002  8.659412e+002 -1.300000e+003
      vertex -2.701956e+002  1.073675e+003  8.550000e+002
      vertex -2.989485e+002  1.077465e+003  8.550000e+002
    endloop
  endfacet
  facet normal -1.807840e-001 -9.818875e-001  5.669478e-002
    outer loop
      vertex  1.740776e+002  8.659412e+002 -1.300000e+003
      vertex -2.989485e+002  1.077465e+003  8.550000e+002
      vertex  1.457564e+002  8.711556e+002 -1.300000e+003
    endloop
  endfacet
  facet normal -9.863669e-002 -9.923199e-001  7.464560e-002
    outer loop
      vertex  1.457564e+002  8.711556e+002 -1.300000e+003
      vertex -2.989485e+002  1.077465e+003  8.550000e+002
      vertex -3.263407e+002  1.080188e+003  8.550000e+002
    endloop
  endfacet
  facet normal -1.494414e-001 -9.867629e-001  6.297659e-002
    outer loop
      vertex  1.457564e+002  8.711556e+002 -1.300000e+003
      vertex -3.263407e+002  1.080188e+003  8.550000e+002
      vertex  1.187313e+002  8.752485e+002 -1.300000e+003
    endloop
  endfacet
  facet normal -6.763635e-002 -9.944488e-001  8.060273e-002
    outer loop
      vertex  1.187313e+002  8.752485e+002 -1.300000e+003
      vertex -3.263407e+002  1.080188e+003  8.550000e+002
      vertex -3.538043e+002  1.082056e+003  8.550000e+002
    endloop
  endfacet
  facet normal -1.187916e-001 -9.905183e-001  6.900869e-002
    outer loop
      vertex  1.187313e+002  8.752485e+002 -1.300000e+003
      vertex -3.538043e+002  1.082056e+003  8.550000e+002
      vertex  9.159272e+001  8.785032e+002 -1.300000e+003
    endloop
  endfacet
  facet normal -3.659411e-002 -9.955817e-001  8.647554e-002
    outer loop
      vertex  9.159272e+001  8.785032e+002 -1.300000e+003
      vertex -3.538043e+002  1.082056e+003  8.550000e+002
      vertex -3.813126e+002  1.083067e+003  8.550000e+002
    endloop
  endfacet
  facet normal -8.804764e-002 -9.932913e-001  7.496669e-002
    outer loop
      vertex  9.159272e+001  8.785032e+002 -1.300000e+003
      vertex -3.813126e+002  1.083067e+003  8.550000e+002
      vertex  6.436660e+001  8.809166e+002 -1.300000e+003
    endloop
  endfacet
  facet normal -5.555073e-003 -9.957199e-001  9.225514e-002
    outer loop
      vertex  6.436660e+001  8.809166e+002 -1.300000e+003
      vertex -3.813126e+002  1.083067e+003  8.550000e+002
      vertex -4.088388e+002  1.083221e+003  8.550000e+002
    endloop
  endfacet
  facet normal -5.724594e-002 -9.950815e-001  8.084459e-002
    outer loop
      vertex  6.436660e+001  8.809166e+002 -1.300000e+003
      vertex -4.088388e+002  1.083221e+003  8.550000e+002
      vertex  3.707909e+001  8.824864e+002 -1.300000e+003
    endloop
  endfacet
  facet normal  2.546520e-002 -9.948665e-001  9.793933e-002
    outer loop
      vertex  3.707909e+001  8.824864e+002 -1.300000e+003
      vertex -4.088388e+002  1.083221e+003  8.550000e+002
      vertex -4.363561e+002  1.082516e+003  8.550000e+002
    endloop
  endfacet
  facet normal -2.641560e-002 -9.958897e-001  8.663665e-002
    outer loop
      vertex  3.707909e+001  8.824864e+002 -1.300000e+003
      vertex -4.363561e+002  1.082516e+003  8.550000e+002
      vertex  9.756333e+000  8.832111e+002 -1.300000e+003
    endloop
  endfacet
  facet normal  5.642014e-002 -9.930258e-001  1.035199e-001
    outer loop
      vertex  9.756333e+000  8.832111e+002 -1.300000e+003
      vertex -4.363561e+002  1.082516e+003  8.550000e+002
      vertex -4.638379e+002  1.080955e+003  8.550000e+002
    endloop
  endfacet
  facet normal  4.407501e-003 -9.957181e-001  9.233617e-002
    outer loop
      vertex  9.756333e+000  8.832111e+002 -1.300000e+003
      vertex -4.638379e+002  1.080955e+003  8.550000e+002
      vertex -1.757550e+001  8.830901e+002 -1.300000e+003
    endloop
  endfacet
  facet normal  8.728512e-002 -9.902030e-001  1.089924e-001
    outer loop
      vertex -1.757550e+001  8.830901e+002 -1.300000e+003
      vertex -4.638379e+002  1.080955e+003  8.550000e+002
      vertex -4.912574e+002  1.078538e+003  8.550000e+002
    endloop
  endfacet
  facet normal  3.519540e-002 -9.945699e-001  9.793881e-002
    outer loop
      vertex -1.757550e+001  8.830901e+002 -1.300000e+003
      vertex -4.912574e+002  1.078538e+003  8.550000e+002
      vertex -4.489028e+001  8.821235e+002 -1.300000e+003
    endloop
  endfacet
  facet normal  1.180239e-001 -9.864047e-001  1.143508e-001
    outer loop
      vertex -4.489028e+001  8.821235e+002 -1.300000e+003
      vertex -4.912574e+002  1.078538e+003  8.550000e+002
      vertex -5.185881e+002  1.075268e+003  8.550000e+002
    endloop
  endfacet
  facet normal  6.591281e-002 -9.924495e-001  1.034379e-001
    outer loop
      vertex -4.489028e+001  8.821235e+002 -1.300000e+003
      vertex -5.185881e+002  1.075268e+003  8.550000e+002
      vertex -7.216189e+001  8.803123e+002 -1.300000e+003
    endloop
  endfacet
  facet normal  1.486140e-001 -9.816373e-001  1.195921e-001
    outer loop
      vertex -7.216189e+001  8.803123e+002 -1.300000e+003
      vertex -5.185881e+002  1.075268e+003  8.550000e+002
      vertex -5.458035e+002  1.071148e+003  8.550000e+002
    endloop
  endfacet
  facet normal  9.653363e-002 -9.893621e-001  1.088295e-001
    outer loop
      vertex -7.216189e+001  8.803123e+002 -1.300000e+003
      vertex -5.458035e+002  1.071148e+003  8.550000e+002
      vertex -9.936427e+001  8.776581e+002 -1.300000e+003
    endloop
  endfacet
  facet normal  1.790131e-001 -9.759110e-001  1.247086e-001
    outer loop
      vertex -9.936427e+001  8.776581e+002 -1.300000e+003
      vertex -5.458035e+002  1.071148e+003  8.550000e+002
      vertex -5.728773e+002  1.066182e+003  8.550000e+002
    endloop
  endfacet
  facet normal  1.270213e-001 -9.853148e-001  1.141073e-001
    outer loop
      vertex -9.936427e+001  8.776581e+002 -1.300000e+003
      vertex -5.728773e+002  1.066182e+003  8.550000e+002
      vertex -1.264714e+002  8.741636e+002 -1.300000e+003
    endloop
  endfacet
  facet normal  2.091994e-001 -9.692338e-001  1.296976e-001
    outer loop
      vertex -1.264714e+002  8.741636e+002 -1.300000e+003
      vertex -5.728773e+002  1.066182e+003  8.550000e+002
      vertex -5.997831e+002  1.060374e+003  8.550000e+002
    endloop
  endfacet
  facet normal  1.573503e-001 -9.803144e-001  1.192670e-001
    outer loop
      vertex -1.264714e+002  8.741636e+002 -1.300000e+003
      vertex -5.997831e+002  1.060374e+003  8.550000e+002
      vertex -1.534575e+002  8.698321e+002 -1.300000e+003
    endloop
  endfacet
  facet normal  2.391426e-001 -9.616163e-001  1.345541e-001
    outer loop
      vertex -1.534575e+002  8.698321e+002 -1.300000e+003
      vertex -5.997831e+002  1.060374e+003  8.550000e+002
      vertex -6.264951e+002  1.053731e+003  8.550000e+002
    endloop
  endfacet
  facet normal  1.874896e-001 -9.743696e-001  1.243041e-001
    outer loop
      vertex -1.534575e+002  8.698321e+002 -1.300000e+003
      vertex -6.264951e+002  1.053731e+003  8.550000e+002
      vertex -1.802967e+002  8.646677e+002 -1.300000e+003
    endloop
  endfacet
  facet normal  2.688125e-001 -9.530702e-001  1.392735e-001
    outer loop
      vertex -1.802967e+002  8.646677e+002 -1.300000e+003
      vertex -6.264951e+002  1.053731e+003  8.550000e+002
      vertex -6.529871e+002  1.046259e+003  8.550000e+002
    endloop
  endfacet
  facet normal  2.174085e-001 -9.674903e-001  1.292134e-001
    outer loop
      vertex -1.802967e+002  8.646677e+002 -1.300000e+003
      vertex -6.529871e+002  1.046259e+003  8.550000e+002
      vertex -2.069634e+002  8.586753e+002 -1.300000e+003
    endloop
  endfacet
  facet normal  2.981807e-001 -9.436074e-001  1.438520e-001
    outer loop
      vertex -2.069634e+002  8.586753e+002 -1.300000e+003
      vertex -6.529871e+002  1.046259e+003  8.550000e+002
      vertex -6.792337e+002  1.037965e+003  8.550000e+002
    endloop
  endfacet
  facet normal  2.470805e-001 -9.596862e-001  1.339910e-001
    outer loop
      vertex -2.069634e+002  8.586753e+002 -1.300000e+003
      vertex -6.792337e+002  1.037965e+003  8.550000e+002
      vertex -2.334321e+002  8.518607e+002 -1.300000e+003
    endloop
  endfacet
  facet normal  3.272244e-001 -9.332392e-001  1.482863e-001
    outer loop
      vertex -2.334321e+002  8.518607e+002 -1.300000e+003
      vertex -6.792337e+002  1.037965e+003  8.550000e+002
      vertex -7.052093e+002  1.028857e+003  8.550000e+002
    endloop
  endfacet
  facet normal  2.764784e-001 -9.509683e-001  1.386331e-001
    outer loop
      vertex -2.334321e+002  8.518607e+002 -1.300000e+003
      vertex -7.052093e+002  1.028857e+003  8.550000e+002
      vertex -2.596775e+002  8.442302e+002 -1.300000e+003
    endloop
  endfacet
  facet normal  3.559122e-001 -9.219806e-001  1.525720e-001
    outer loop
      vertex -2.596775e+002  8.442302e+002 -1.300000e+003
      vertex -7.052093e+002  1.028857e+003  8.550000e+002
      vertex -7.308887e+002  1.018944e+003  8.550000e+002
    endloop
  endfacet
  facet normal  3.055723e-001 -9.413491e-001  1.431349e-001
    outer loop
      vertex -2.596775e+002  8.442302e+002 -1.300000e+003
      vertex -7.308887e+002  1.018944e+003  8.550000e+002
      vertex -2.856745e+002  8.357913e+002 -1.300000e+003
    endloop
  endfacet
  facet normal  3.842157e-001 -9.098471e-001  1.567051e-001
    outer loop
      vertex -2.856745e+002  8.357913e+002 -1.300000e+003
      vertex -7.308887e+002  1.018944e+003  8.550000e+002
      vertex -7.562469e+002  1.008236e+003  8.550000e+002
    endloop
  endfacet
  facet normal  3.343351e-001 -9.308415e-001  1.474931e-001
    outer loop
      vertex -2.856745e+002  8.357913e+002 -1.300000e+003
      vertex -7.562469e+002  1.008236e+003  8.550000e+002
      vertex -3.113982e+002  8.265520e+002 -1.300000e+003
    endloop
  endfacet
  facet normal  4.121143e-001 -8.968516e-001  1.606831e-001
    outer loop
      vertex -3.113982e+002  8.265520e+002 -1.300000e+003
      vertex -7.562469e+002  1.008236e+003  8.550000e+002
      vertex -7.812595e+002  9.967422e+002  8.550000e+002
    endloop
  endfacet
  facet normal  3.627422e-001 -9.194585e-001  1.517037e-001
    outer loop
      vertex -3.113982e+002  8.265520e+002 -1.300000e+003
      vertex -7.812595e+002  9.967422e+002  8.550000e+002
      vertex -3.368239e+002  8.165211e+002 -1.300000e+003
    endloop
  endfacet
  facet normal  4.395798e-001 -8.830111e-001  1.645021e-001
    outer loop
      vertex -3.368239e+002  8.165211e+002 -1.300000e+003
      vertex -7.812595e+002  9.967422e+002  8.550000e+002
      vertex -8.059019e+002  9.844748e+002  8.550000e+002
    endloop
  endfacet
  facet normal  3.907682e-001 -9.072143e-001  1.557636e-001
    outer loop
      vertex -3.368239e+002  8.165211e+002 -1.300000e+003
      vertex -8.059019e+002  9.844748e+002  8.550000e+002
      vertex -3.619272e+002  8.057083e+002 -1.300000e+003
    endloop
  endfacet
  facet normal  4.665916e-001 -8.683400e-001  1.681601e-001
    outer loop
      vertex -3.619272e+002  8.057083e+002 -1.300000e+003
      vertex -8.059019e+002  9.844748e+002  8.550000e+002
      vertex -8.301501e+002  9.714453e+002  8.550000e+002
    endloop
  endfacet
  facet normal  4.183887e-001 -8.941233e-001  1.596699e-001
    outer loop
      vertex -3.619272e+002  8.057083e+002 -1.300000e+003
      vertex -8.301501e+002  9.714453e+002  8.550000e+002
      vertex -3.866841e+002  7.941237e+002 -1.300000e+003
    endloop
  endfacet
  facet normal  4.937643e-001 -8.524656e-001  1.717533e-001
    outer loop
      vertex -3.866841e+002  7.941237e+002 -1.300000e+003
      vertex -8.301501e+002  9.714453e+002  8.550000e+002
      vertex -8.551418e+002  9.569697e+002  8.550000e+002
    endloop
  endfacet
  facet normal  4.462418e-001 -8.798515e-001  1.634922e-001
    outer loop
      vertex -3.866841e+002  7.941237e+002 -1.300000e+003
      vertex -8.551418e+002  9.569697e+002  8.550000e+002
      vertex -4.122604e+002  7.811520e+002 -1.300000e+003
    endloop
  endfacet
  facet normal  5.210484e-001 -8.353450e-001  1.752348e-001
    outer loop
      vertex -4.122604e+002  7.811520e+002 -1.300000e+003
      vertex -8.551418e+002  9.569697e+002  8.550000e+002
      vertex -8.796464e+002  9.416849e+002  8.550000e+002
    endloop
  endfacet
  facet normal  4.742647e-001 -8.643500e-001  1.672490e-001
    outer loop
      vertex -4.122604e+002  7.811520e+002 -1.300000e+003
      vertex -8.796464e+002  9.416849e+002  8.550000e+002
      vertex -4.374017e+002  7.673571e+002 -1.300000e+003
    endloop
  endfacet
  facet normal  5.477487e-001 -8.173732e-001  1.785289e-001
    outer loop
      vertex -4.374017e+002  7.673571e+002 -1.300000e+003
      vertex -8.796464e+002  9.416849e+002  8.550000e+002
      vertex -9.036375e+002  9.256076e+002  8.550000e+002
    endloop
  endfacet
  facet normal  5.017609e-001 -8.479707e-001  1.708263e-001
    outer loop
      vertex -4.374017e+002  7.673571e+002 -1.300000e+003
      vertex -9.036375e+002  9.256076e+002  8.550000e+002
      vertex -4.620812e+002  7.527537e+002 -1.300000e+003
    endloop
  endfacet
  facet normal  5.738472e-001 -7.985666e-001  1.816339e-001
    outer loop
      vertex -4.620812e+002  7.527537e+002 -1.300000e+003
      vertex -9.036375e+002  9.256076e+002  8.550000e+002
      vertex -9.270894e+002  9.087552e+002  8.550000e+002
    endloop
  endfacet
  facet normal  5.287043e-001 -8.307338e-001  1.742217e-001
    outer loop
      vertex -4.620812e+002  7.527537e+002 -1.300000e+003
      vertex -9.270894e+002  9.087552e+002  8.550000e+002
      vertex -4.862729e+002  7.373574e+002 -1.300000e+003
    endloop
  endfacet
  facet normal  5.993139e-001 -7.789515e-001  1.845467e-001
    outer loop
      vertex -4.862729e+002  7.373574e+002 -1.300000e+003
      vertex -9.270894e+002  9.087552e+002  8.550000e+002
      vertex -9.499769e+002  8.911459e+002  8.550000e+002
    endloop
  endfacet
  facet normal  5.550665e-001 -8.126618e-001  1.774314e-001
    outer loop
      vertex -4.862729e+002  7.373574e+002 -1.300000e+003
      vertex -9.499769e+002  8.911459e+002  8.550000e+002
      vertex -5.099510e+002  7.211846e+002 -1.300000e+003
    endloop
  endfacet
  facet normal  6.241305e-001 -7.585464e-001  1.872654e-001
    outer loop
      vertex -5.099510e+002  7.211846e+002 -1.300000e+003
      vertex -9.499769e+002  8.911459e+002  8.550000e+002
      vertex -9.722755e+002  8.727986e+002  8.550000e+002
    endloop
  endfacet
  facet normal  5.808286e-001 -7.937723e-001  1.804539e-001
    outer loop
      vertex -5.099510e+002  7.211846e+002 -1.300000e+003
      vertex -9.722755e+002  8.727986e+002  8.550000e+002
      vertex -5.330907e+002  7.042526e+002 -1.300000e+003
    endloop
  endfacet
  facet normal  6.482738e-001 -7.373748e-001  1.897883e-001
    outer loop
      vertex -5.330907e+002  7.042526e+002 -1.300000e+003
      vertex -9.722755e+002  8.727986e+002  8.550000e+002
      vertex -9.939613e+002  8.537332e+002  8.550000e+002
    endloop
  endfacet
  facet normal  6.059627e-001 -7.740900e-001  1.832864e-001
    outer loop
      vertex -5.330907e+002  7.042526e+002 -1.300000e+003
      vertex -9.939613e+002  8.537332e+002  8.550000e+002
      vertex -5.556676e+002  6.865793e+002 -1.300000e+003
    endloop
  endfacet
  facet normal  6.717182e-001 -7.154631e-001  1.921125e-001
    outer loop
      vertex -5.556676e+002  6.865793e+002 -1.300000e+003
      vertex -9.939613e+002  8.537332e+002  8.550000e+002
      vertex -1.015011e+003  8.339701e+002  8.550000e+002
    endloop
  endfacet
  facet normal  6.304503e-001 -7.536337e-001  1.859267e-001
    outer loop
      vertex -5.556676e+002  6.865793e+002 -1.300000e+003
      vertex -1.015011e+003  8.339701e+002  8.550000e+002
      vertex -5.776579e+002  6.681833e+002 -1.300000e+003
    endloop
  endfacet
  facet normal  6.944501e-001 -6.928282e-001  1.942375e-001
    outer loop
      vertex -5.776579e+002  6.681833e+002 -1.300000e+003
      vertex -1.015011e+003  8.339701e+002  8.550000e+002
      vertex -1.035403e+003  8.135304e+002  8.550000e+002
    endloop
  endfacet
  facet normal  6.542665e-001 -7.324280e-001  1.883730e-001
    outer loop
      vertex -5.776579e+002  6.681833e+002 -1.300000e+003
      vertex -1.035403e+003  8.135304e+002  8.550000e+002
      vertex -5.990386e+002  6.490843e+002 -1.300000e+003
    endloop
  endfacet
  facet normal  7.164429e-001 -6.695001e-001  1.961612e-001
    outer loop
      vertex -5.990386e+002  6.490843e+002 -1.300000e+003
      vertex -1.035403e+003  8.135304e+002  8.550000e+002
      vertex -1.055116e+003  7.924360e+002  8.550000e+002
    endloop
  endfacet
  facet normal  6.773905e-001 -7.104962e-001  1.906232e-001
    outer loop
      vertex -5.990386e+002  6.490843e+002 -1.300000e+003
      vertex -1.055116e+003  7.924360e+002  8.550000e+002
      vertex -6.197874e+002  6.293023e+002 -1.300000e+003
    endloop
  endfacet
  facet normal  7.376799e-001 -6.455007e-001  1.978820e-001
    outer loop
      vertex -6.197874e+002  6.293023e+002 -1.300000e+003
      vertex -1.055116e+003  7.924360e+002  8.550000e+002
      vertex -1.074127e+003  7.707095e+002  8.550000e+002
    endloop
  endfacet
  facet normal  6.998066e-001 -6.878564e-001  1.926765e-001
    outer loop
      vertex -6.197874e+002  6.293023e+002 -1.300000e+003
      vertex -1.074127e+003  7.707095e+002  8.550000e+002
      vertex -6.398825e+002  6.088581e+002 -1.300000e+003
    endloop
  endfacet
  facet normal  7.581443e-001 -6.208520e-001  1.993995e-001
    outer loop
      vertex -6.398825e+002  6.088581e+002 -1.300000e+003
      vertex -1.074127e+003  7.707095e+002  8.550000e+002
      vertex -1.092418e+003  7.483740e+002  8.550000e+002
    endloop
  endfacet
  facet normal  7.214889e-001 -6.645387e-001  1.945304e-001
    outer loop
      vertex -6.398825e+002  6.088581e+002 -1.300000e+003
      vertex -1.092418e+003  7.483740e+002  8.550000e+002
      vertex -6.593030e+002  5.877733e+002 -1.300000e+003
    endloop
  endfacet
  facet normal  7.778144e-001 -5.955832e-001  2.007118e-001
    outer loop
      vertex -6.593030e+002  5.877733e+002 -1.300000e+003
      vertex -1.092418e+003  7.483740e+002  8.550000e+002
      vertex -1.109969e+003  7.254533e+002  8.550000e+002
    endloop
  endfacet
  facet normal  7.424252e-001 -6.405594e-001  1.961847e-001
    outer loop
      vertex -6.593030e+002  5.877733e+002 -1.300000e+003
      vertex -1.109969e+003  7.254533e+002  8.550000e+002
      vertex -6.780284e+002  5.660700e+002 -1.300000e+003
    endloop
  endfacet
  facet normal  7.966785e-001 -5.697126e-001  2.018192e-001
    outer loop
      vertex -6.780284e+002  5.660700e+002 -1.300000e+003
      vertex -1.109969e+003  7.254533e+002  8.550000e+002
      vertex -1.126761e+003  7.019718e+002  8.550000e+002
    endloop
  endfacet
  facet normal  7.625918e-001 -6.159491e-001  1.976372e-001
    outer loop
      vertex -6.780284e+002  5.660700e+002 -1.300000e+003
      vertex -1.126761e+003  7.019718e+002  8.550000e+002
      vertex -6.960395e+002  5.437710e+002 -1.300000e+003
    endloop
  endfacet
  facet normal  8.147146e-001 -5.432723e-001  2.027197e-001
    outer loop
      vertex -6.960395e+002  5.437710e+002 -1.300000e+003
      vertex -1.126761e+003  7.019718e+002  8.550000e+002
      vertex -1.142776e+003  6.779545e+002  8.550000e+002
    endloop
  endfacet
  facet normal  7.819744e-001 -5.907283e-001  1.988874e-001
    outer loop
      vertex -6.960395e+002  5.437710e+002 -1.300000e+003
      vertex -1.142776e+003  6.779545e+002  8.550000e+002
      vertex -7.133173e+002  5.208996e+002 -1.300000e+003
    endloop
  endfacet
  facet normal  8.319097e-001 -5.162841e-001  2.034134e-001
    outer loop
      vertex -7.133173e+002  5.208996e+002 -1.300000e+003
      vertex -1.142776e+003  6.779545e+002  8.550000e+002
      vertex -1.157998e+003  6.534268e+002  8.550000e+002
    endloop
  endfacet
  facet normal  8.005576e-001 -5.649191e-001  1.999349e-001
    outer loop
      vertex -7.133173e+002  5.208996e+002 -1.300000e+003
      vertex -1.157998e+003  6.534268e+002  8.550000e+002
      vertex -7.298436e+002  4.974798e+002 -1.300000e+003
    endloop
  endfacet
  facet normal  8.482487e-001 -4.887729e-001  2.038999e-001
    outer loop
      vertex -7.298436e+002  4.974798e+002 -1.300000e+003
      vertex -1.157998e+003  6.534268e+002  8.550000e+002
      vertex -1.172410e+003  6.284148e+002  8.550000e+002
    endloop
  endfacet
  facet normal  8.183212e-001 -5.385522e-001  2.007782e-001
    outer loop
      vertex -7.298436e+002  4.974798e+002 -1.300000e+003
      vertex -1.172410e+003  6.284148e+002  8.550000e+002
      vertex -7.456014e+002  4.735360e+002 -1.300000e+003
    endloop
  endfacet
  facet normal  8.637174e-001 -4.607639e-001  2.041785e-001
    outer loop
      vertex -7.456014e+002  4.735360e+002 -1.300000e+003
      vertex -1.172410e+003  6.284148e+002  8.550000e+002
      vertex -1.185997e+003  6.029450e+002  8.550000e+002
    endloop
  endfacet
  facet normal  8.352540e-001 -5.116463e-001  2.014172e-001
    outer loop
      vertex -7.456014e+002  4.735360e+002 -1.300000e+003
      vertex -1.185997e+003  6.029450e+002  8.550000e+002
      vertex -7.605741e+002  4.490934e+002 -1.300000e+003
    endloop
  endfacet
  facet normal  8.782992e-001 -4.322878e-001  2.042492e-001
    outer loop
      vertex -7.605741e+002  4.490934e+002 -1.300000e+003
      vertex -1.185997e+003  6.029450e+002  8.550000e+002
      vertex -1.198745e+003  5.770445e+002  8.550000e+002
    endloop
  endfacet
  facet normal  8.513383e-001 -4.842304e-001  2.018513e-001
    outer loop
      vertex -7.605741e+002  4.490934e+002 -1.300000e+003
      vertex -1.198745e+003  5.770445e+002  8.550000e+002
      vertex -7.747460e+002  4.241775e+002 -1.300000e+003
    endloop
  endfacet
  facet normal  8.919822e-001 -4.033684e-001  2.041121e-001
    outer loop
      vertex -7.747460e+002  4.241775e+002 -1.300000e+003
      vertex -1.198745e+003  5.770445e+002  8.550000e+002
      vertex -1.210640e+003  5.507407e+002  8.550000e+002
    endloop
  endfacet
  facet normal  8.665618e-001 -4.563267e-001  2.020805e-001
    outer loop
      vertex -7.747460e+002  4.241775e+002 -1.300000e+003
      vertex -1.210640e+003  5.507407e+002  8.550000e+002
      vertex -7.881021e+002  3.988143e+002 -1.300000e+003
    endloop
  endfacet
  facet normal  9.047549e-001 -3.740286e-001  2.037672e-001
    outer loop
      vertex -7.881021e+002  3.988143e+002 -1.300000e+003
      vertex -1.210640e+003  5.507407e+002  8.550000e+002
      vertex -1.221670e+003  5.240614e+002  8.550000e+002
    endloop
  endfacet
  facet normal  8.809072e-001 -4.279678e-001  2.021042e-001
    outer loop
      vertex -7.881021e+002  3.988143e+002 -1.300000e+003
      vertex -1.221670e+003  5.240614e+002  8.550000e+002
      vertex -8.006286e+002  3.730304e+002 -1.300000e+003
    endloop
  endfacet
  facet normal  9.166007e-001 -3.443064e-001  2.032145e-001
    outer loop
      vertex -8.006286e+002  3.730304e+002 -1.300000e+003
      vertex -1.221670e+003  5.240614e+002  8.550000e+002
      vertex -1.231822e+003  4.970351e+002  8.550000e+002
    endloop
  endfacet
  facet normal  8.943658e-001 -3.991706e-001  2.019226e-001
    outer loop
      vertex -8.006286e+002  3.730304e+002 -1.300000e+003
      vertex -1.231822e+003  4.970351e+002  8.550000e+002
      vertex -8.123121e+002  3.468527e+002 -1.300000e+003
    endloop
  endfacet
  facet normal  9.275152e-001 -3.142096e-001  2.024548e-001
    outer loop
      vertex -8.123121e+002  3.468527e+002 -1.300000e+003
      vertex -1.231822e+003  4.970351e+002  8.550000e+002
      vertex -1.241085e+003  4.696904e+002  8.550000e+002
    endloop
  endfacet
  facet normal  9.069228e-001 -3.699653e-001  2.015358e-001
    outer loop
      vertex -8.123121e+002  3.468527e+002 -1.300000e+003
      vertex -1.241085e+003  4.696904e+002  8.550000e+002
      vertex -8.231404e+002  3.203086e+002 -1.300000e+003
    endloop
  endfacet
  facet normal  9.374786e-001 -2.837895e-001  2.014882e-001
    outer loop
      vertex -8.231404e+002  3.203086e+002 -1.300000e+003
      vertex -1.241085e+003  4.696904e+002  8.550000e+002
      vertex -1.249450e+003  4.420564e+002  8.550000e+002
    endloop
  endfacet
  facet normal  9.185652e-001 -3.403813e-001  2.009439e-001
    outer loop
      vertex -8.231404e+002  3.203086e+002 -1.300000e+003
      vertex -1.249450e+003  4.420564e+002  8.550000e+002
      vertex -8.331019e+002  2.934260e+002 -1.300000e+003
    endloop
  endfacet
  facet normal  9.464856e-001 -2.530582e-001  2.003155e-001
    outer loop
      vertex -8.331019e+002  2.934260e+002 -1.300000e+003
      vertex -1.249450e+003  4.420564e+002  8.550000e+002
      vertex -1.256908e+003  4.141624e+002  8.550000e+002
    endloop
  endfacet
  facet normal  9.292834e-001 -3.104405e-001  2.001473e-001
    outer loop
      vertex -8.331019e+002  2.934260e+002 -1.300000e+003
      vertex -1.256908e+003  4.141624e+002  8.550000e+002
      vertex -8.421862e+002  2.662329e+002 -1.300000e+003
    endloop
  endfacet
  facet normal  9.545256e-001 -2.220465e-001  1.989373e-001
    outer loop
      vertex -8.421862e+002  2.662329e+002 -1.300000e+003
      vertex -1.256908e+003  4.141624e+002  8.550000e+002
      vertex -1.263451e+003  3.860383e+002  8.550000e+002
    endloop
  endfacet
  facet normal  9.390646e-001 -2.801756e-001  1.991467e-001
    outer loop
      vertex -8.421862e+002  2.662329e+002 -1.300000e+003
      vertex -1.263451e+003  3.860383e+002  8.550000e+002
      vertex -8.503834e+002  2.387581e+002 -1.300000e+003
    endloop
  endfacet
  facet normal  9.615874e-001 -1.907901e-001  1.973549e-001
    outer loop
      vertex -8.503834e+002  2.387581e+002 -1.300000e+003
      vertex -1.263451e+003  3.860383e+002  8.550000e+002
      vertex -1.269070e+003  3.577141e+002  8.550000e+002
    endloop
  endfacet
  facet normal  9.478998e-001 -2.496094e-001  1.979424e-001
    outer loop
      vertex -8.503834e+002  2.387581e+002 -1.300000e+003
      vertex -1.269070e+003  3.577141e+002  8.550000e+002
      vertex -8.576849e+002  2.110304e+002 -1.300000e+003
    endloop
  endfacet
  facet normal  9.676635e-001 -1.593118e-001  1.955690e-001
    outer loop
      vertex -8.576849e+002  2.110304e+002 -1.300000e+003
      vertex -1.269070e+003  3.577141e+002  8.550000e+002
      vertex -1.273762e+003  3.292199e+002  8.550000e+002
    endloop
  endfacet
  facet normal  9.557779e-001 -2.187752e-001  1.965354e-001
    outer loop
      vertex -8.576849e+002  2.110304e+002 -1.300000e+003
      vertex -1.273762e+003  3.292199e+002  8.550000e+002
      vertex -8.640829e+002  1.830791e+002 -1.300000e+003
    endloop
  endfacet
  facet normal  9.727452e-001 -1.276444e-001  1.935810e-001
    outer loop
      vertex -8.640829e+002  1.830791e+002 -1.300000e+003
      vertex -1.273762e+003  3.292199e+002  8.550000e+002
      vertex -1.277519e+003  3.005864e+002  8.550000e+002
    endloop
  endfacet
  facet normal  9.626912e-001 -1.876940e-001  1.949266e-001
    outer loop
      vertex -8.640829e+002  1.830791e+002 -1.300000e+003
      vertex -1.277519e+003  3.005864e+002  8.550000e+002
      vertex -8.695704e+002  1.549336e+002 -1.300000e+003
    endloop
  endfacet
  facet normal  9.768254e-001 -9.581812e-002  1.913924e-001
    outer loop
      vertex -8.695704e+002  1.549336e+002 -1.300000e+003
      vertex -1.277519e+003  3.005864e+002  8.550000e+002
      vertex -1.280338e+003  2.718444e+002  8.550000e+002
    endloop
  endfacet
  facet normal  9.686297e-001 -1.564042e-001  1.931171e-001
    outer loop
      vertex -8.695704e+002  1.549336e+002 -1.300000e+003
      vertex -1.280338e+003  2.718444e+002  8.550000e+002
      vertex -8.741416e+002  1.266237e+002 -1.300000e+003
    endloop
  endfacet
  facet normal  9.798976e-001 -6.385943e-002  1.890046e-001
    outer loop
      vertex -8.741416e+002  1.266237e+002 -1.300000e+003
      vertex -1.280338e+003  2.718444e+002  8.550000e+002
      vertex -1.282216e+003  2.430247e+002  8.550000e+002
    endloop
  endfacet
  facet normal  9.735867e-001 -1.249267e-001  1.911081e-001
    outer loop
      vertex -8.741416e+002  1.266237e+002 -1.300000e+003
      vertex -1.282216e+003  2.430247e+002  8.550000e+002
      vertex -8.777914e+002  9.817970e+001 -1.300000e+003
    endloop
  endfacet
  facet normal  9.819552e-001 -3.180766e-002  1.864198e-001
    outer loop
      vertex -8.777914e+002  9.817970e+001 -1.300000e+003
      vertex -1.282216e+003  2.430247e+002  8.550000e+002
      vertex -1.283151e+003  2.141586e+002  8.550000e+002
    endloop
  endfacet
  facet normal  9.775541e-001 -9.329696e-002  1.889012e-001
    outer loop
      vertex -8.777914e+002  9.817970e+001 -1.300000e+003
      vertex -1.283151e+003  2.141586e+002  8.550000e+002
      vertex -8.805161e+002  6.963173e+001 -1.300000e+003
    endloop
  endfacet
  facet normal -2.907878e-001 -9.561250e-001  3.560162e-002
    outer loop
      vertex -1.568983e+002  1.049152e+003  8.550000e+002
      vertex  3.123023e+002  8.262111e+002 -1.300000e+003
      vertex -1.291562e+002  1.040714e+003  8.550000e+002
    endloop
  endfacet
  facet normal -3.687199e-001 -9.293855e-001  1.697547e-002
    outer loop
      vertex -1.291562e+002  1.040714e+003  8.550000e+002
      vertex  3.123023e+002  8.262111e+002 -1.300000e+003
      vertex  3.390641e+002  8.155937e+002 -1.300000e+003
    endloop
  endfacet
  facet normal -3.220862e-001 -9.462700e-001  2.887140e-002
    outer loop
      vertex -1.291562e+002  1.040714e+003  8.550000e+002
      vertex  3.390641e+002  8.155937e+002 -1.300000e+003
      vertex -1.017073e+002  1.031372e+003  8.550000e+002
    endloop
  endfacet
  facet normal -3.988508e-001 -9.169587e-001  1.023551e-002
    outer loop
      vertex -1.017073e+002  1.031372e+003  8.550000e+002
      vertex  3.390641e+002  8.155937e+002 -1.300000e+003
      vertex  3.654645e+002  8.041103e+002 -1.300000e+003
    endloop
  endfacet
  facet normal -3.530352e-001 -9.353488e-001  2.210704e-002
    outer loop
      vertex -1.017073e+002  1.031372e+003  8.550000e+002
      vertex  3.654645e+002  8.041103e+002 -1.300000e+003
      vertex -7.458111e+001  1.021133e+003  8.550000e+002
    endloop
  endfacet
  facet normal -4.285420e-001 -9.035152e-001  3.482794e-003
    outer loop
      vertex -7.458111e+001  1.021133e+003  8.550000e+002
      vertex  3.654645e+002  8.041103e+002 -1.300000e+003
      vertex  3.914754e+002  7.917732e+002 -1.300000e+003
    endloop
  endfacet
  facet normal -3.835904e-001 -9.233763e-001  1.531816e-002
    outer loop
      vertex -7.458111e+001  1.021133e+003  8.550000e+002
      vertex  3.914754e+002  7.917732e+002 -1.300000e+003
      vertex -4.780684e+001  1.010011e+003  8.550000e+002
    endloop
  endfacet
  facet normal -4.577596e-001 -8.890700e-001 -3.274903e-003
    outer loop
      vertex -4.780684e+001  1.010011e+003  8.550000e+002
      vertex  3.914754e+002  7.917732e+002 -1.300000e+003
      vertex  4.170693e+002  7.785955e+002 -1.300000e+003
    endloop
  endfacet
  facet normal -4.137233e-001 -9.103628e-001  8.511137e-003
    outer loop
      vertex -4.780684e+001  1.010011e+003  8.550000e+002
      vertex  4.170693e+002  7.785955e+002 -1.300000e+003
      vertex -2.141315e+001  9.980157e+002  8.550000e+002
    endloop
  endfacet
  facet normal -4.864666e-001 -8.736417e-001 -1.002904e-002
    outer loop
      vertex -2.141315e+001  9.980157e+002  8.550000e+002
      vertex  4.170693e+002  7.785955e+002 -1.300000e+003
      vertex  4.422193e+002  7.645914e+002 -1.300000e+003
    endloop
  endfacet
  facet normal -4.433933e-001 -8.963255e-001  1.695074e-003
    outer loop
      vertex -2.141315e+001  9.980157e+002  8.550000e+002
      vertex  4.422193e+002  7.645914e+002 -1.300000e+003
      vertex  4.571669e+000  9.851616e+002  8.550000e+002
    endloop
  endfacet
  facet normal -5.146300e-001 -8.572483e-001 -1.677168e-002
    outer loop
      vertex  4.571669e+000  9.851616e+002  8.550000e+002
      vertex  4.422193e+002  7.645914e+002 -1.300000e+003
      vertex  4.668987e+002  7.497756e+002 -1.300000e+003
    endloop
  endfacet
  facet normal -4.725621e-001 -8.812826e-001 -5.121592e-003
    outer loop
      vertex  4.571669e+000  9.851616e+002  8.550000e+002
      vertex  4.668987e+002  7.497756e+002 -1.300000e+003
      vertex  3.011981e+001  9.714621e+002  8.550000e+002
    endloop
  endfacet
  facet normal -5.422166e-001 -8.399102e-001 -2.349517e-002
    outer loop
      vertex  3.011981e+001  9.714621e+002  8.550000e+002
      vertex  4.668987e+002  7.497756e+002 -1.300000e+003
      vertex  4.910816e+002  7.341640e+002 -1.300000e+003
    endloop
  endfacet
  facet normal -5.011975e-001 -8.652506e-001 -1.193068e-002
    outer loop
      vertex  3.011981e+001  9.714621e+002  8.550000e+002
      vertex  4.910816e+002  7.341640e+002 -1.300000e+003
      vertex  5.520394e+001  9.569321e+002  8.550000e+002
    endloop
  endfacet
  facet normal -5.691944e-001 -8.216485e-001 -3.019116e-002
    outer loop
      vertex  5.520394e+001  9.569321e+002  8.550000e+002
      vertex  4.910816e+002  7.341640e+002 -1.300000e+003
      vertex  5.147424e+002  7.177730e+002 -1.300000e+003
    endloop
  endfacet
  facet normal -5.292666e-001 -8.482488e-001 -1.872475e-002
    outer loop
      vertex  5.520394e+001  9.569321e+002  8.550000e+002
      vertex  5.147424e+002  7.177730e+002 -1.300000e+003
      vertex  7.979725e+001  9.415870e+002  8.550000e+002
    endloop
  endfacet
  facet normal -5.955305e-001 -8.024870e-001 -3.685161e-002
    outer loop
      vertex  7.979725e+001  9.415870e+002  8.550000e+002
      vertex  5.147424e+002  7.177730e+002 -1.300000e+003
      vertex  5.378563e+002  7.006201e+002 -1.300000e+003
    endloop
  endfacet
  facet normal -5.567333e-001 -8.303000e-001 -2.549498e-002
    outer loop
      vertex  7.979725e+001  9.415870e+002  8.550000e+002
      vertex  5.378563e+002  7.006201e+002 -1.300000e+003
      vertex  1.038734e+002  9.254435e+002  8.550000e+002
    endloop
  endfacet
  facet normal -6.211968e-001 -7.824480e-001 -4.346921e-002
    outer loop
      vertex  1.038734e+002  9.254435e+002  8.550000e+002
      vertex  5.378563e+002  7.006201e+002 -1.300000e+003
      vertex  5.603989e+002  6.827232e+002 -1.300000e+003
    endloop
  endfacet
  facet normal -5.835638e-001 -8.114274e-001 -3.223293e-002
    outer loop
      vertex  1.038734e+002  9.254435e+002  8.550000e+002
      vertex  5.603989e+002  6.827232e+002 -1.300000e+003
      vertex  1.274068e+002  9.085187e+002  8.550000e+002
    endloop
  endfacet
  facet normal -6.461623e-001 -7.615582e-001 -5.003553e-002
    outer loop
      vertex  1.274068e+002  9.085187e+002  8.550000e+002
      vertex  5.603989e+002  6.827232e+002 -1.300000e+003
      vertex  5.823463e+002  6.641014e+002 -1.300000e+003
    endloop
  endfacet
  facet normal -6.097298e-001 -7.916526e-001 -3.893104e-002
    outer loop
      vertex  1.274068e+002  9.085187e+002  8.550000e+002
      vertex  5.823463e+002  6.641014e+002 -1.300000e+003
      vertex  1.503721e+002  8.908309e+002  8.550000e+002
    endloop
  endfacet
  facet normal -6.703991e-001 -7.398432e-001 -5.654338e-002
    outer loop
      vertex  1.503721e+002  8.908309e+002  8.550000e+002
      vertex  5.823463e+002  6.641014e+002 -1.300000e+003
      vertex  6.036755e+002  6.447742e+002 -1.300000e+003
    endloop
  endfacet
  facet normal -6.352006e-001 -7.710010e-001 -4.558170e-002
    outer loop
      vertex  1.503721e+002  8.908309e+002  8.550000e+002
      vertex  6.036755e+002  6.447742e+002 -1.300000e+003
      vertex  1.727447e+002  8.723988e+002  8.550000e+002
    endloop
  endfacet
  facet normal -6.938824e-001 -7.173284e-001 -6.298543e-002
    outer loop
      vertex  1.727447e+002  8.723988e+002  8.550000e+002
      vertex  6.036755e+002  6.447742e+002 -1.300000e+003
      vertex  6.243640e+002  6.247620e+002 -1.300000e+003
    endloop
  endfacet
  facet normal -6.599440e-001 -7.495009e-001 -5.217607e-002
    outer loop
      vertex  1.727447e+002  8.723988e+002  8.550000e+002
      vertex  6.243640e+002  6.247620e+002 -1.300000e+003
      vertex  1.945009e+002  8.532423e+002  8.550000e+002
    endloop
  endfacet
  facet normal -7.165836e-001 -6.940447e-001 -6.935371e-002
    outer loop
      vertex  1.945009e+002  8.532423e+002  8.550000e+002
      vertex  6.243640e+002  6.247620e+002 -1.300000e+003
      vertex  6.443898e+002  6.040858e+002 -1.300000e+003
    endloop
  endfacet
  facet normal -6.839353e-001 -7.271767e-001 -5.870726e-002
    outer loop
      vertex  1.945009e+002  8.532423e+002  8.550000e+002
      vertex  6.443898e+002  6.040858e+002 -1.300000e+003
      vertex  2.156171e+002  8.333818e+002  8.550000e+002
    endloop
  endfacet
  facet normal -7.384806e-001 -6.700185e-001 -7.564157e-002
    outer loop
      vertex  2.156171e+002  8.333818e+002  8.550000e+002
      vertex  6.443898e+002  6.040858e+002 -1.300000e+003
      vertex  6.637318e+002  5.827675e+002 -1.300000e+003
    endloop
  endfacet
  facet normal -7.071452e-001 -7.040589e-001 -6.516690e-002
    outer loop
      vertex  2.156171e+002  8.333818e+002  8.550000e+002
      vertex  6.637318e+002  5.827675e+002 -1.300000e+003
      vertex  2.360708e+002  8.128384e+002  8.550000e+002
    endloop
  endfacet
  facet normal -7.595476e-001 -6.452825e-001 -8.184130e-002
    outer loop
      vertex  2.360708e+002  8.128384e+002  8.550000e+002
      vertex  6.637318e+002  5.827675e+002 -1.300000e+003
      vertex  6.823694e+002  5.608296e+002 -1.300000e+003
    endloop
  endfacet
  facet normal -7.295494e-001 -6.801753e-001 -7.154845e-002
    outer loop
      vertex  2.360708e+002  8.128384e+002  8.550000e+002
      vertex  6.823694e+002  5.608296e+002 -1.300000e+003
      vertex  2.558399e+002  7.916342e+002  8.550000e+002
    endloop
  endfacet
  facet normal -7.797658e-001 -6.198634e-001 -8.794690e-002
    outer loop
      vertex  2.558399e+002  7.916342e+002  8.550000e+002
      vertex  6.823694e+002  5.608296e+002 -1.300000e+003
      vertex  7.002829e+002  5.382950e+002 -1.300000e+003
    endloop
  endfacet
  facet normal -7.511244e-001 -6.555550e-001 -7.784418e-002
    outer loop
      vertex  2.558399e+002  7.916342e+002  8.550000e+002
      vertex  7.002829e+002  5.382950e+002 -1.300000e+003
      vertex  2.749033e+002  7.697917e+002  8.550000e+002
    endloop
  endfacet
  facet normal -7.991104e-001 -5.937977e-001 -9.395050e-002
    outer loop
      vertex  2.749033e+002  7.697917e+002  8.550000e+002
      vertex  7.002829e+002  5.382950e+002 -1.300000e+003
      vertex  7.174533e+002  5.151877e+002 -1.300000e+003
    endloop
  endfacet
  facet normal -7.718440e-001 -6.302326e-001 -8.404625e-002
    outer loop
      vertex  2.749033e+002  7.697917e+002  8.550000e+002
      vertex  7.174533e+002  5.151877e+002 -1.300000e+003
      vertex  2.932403e+002  7.473345e+002  8.550000e+002
    endloop
  endfacet
  facet normal -8.175667e-001 -5.671116e-001 -9.984645e-002
    outer loop
      vertex  2.932403e+002  7.473345e+002  8.550000e+002
      vertex  7.174533e+002  5.151877e+002 -1.300000e+003
      vertex  7.338623e+002  4.915320e+002 -1.300000e+003
    endloop
  endfacet
  facet normal -7.916885e-001 -6.042372e-001 -9.014861e-002
    outer loop
      vertex  2.932403e+002  7.473345e+002  8.550000e+002
      vertex  7.338623e+002  4.915320e+002 -1.300000e+003
      vertex  3.108311e+002  7.242864e+002  8.550000e+002
    endloop
  endfacet
  facet normal -8.351141e-001 -5.398400e-001 -1.056284e-001
    outer loop
      vertex  3.108311e+002  7.242864e+002  8.550000e+002
      vertex  7.338623e+002  4.915320e+002 -1.300000e+003
      vertex  7.494923e+002  4.673529e+002 -1.300000e+003
    endloop
  endfacet
  facet normal -8.106380e-001 -5.776005e-001 -9.614408e-002
    outer loop
      vertex  3.108311e+002  7.242864e+002  8.550000e+002
      vertex  7.494923e+002  4.673529e+002 -1.300000e+003
      vertex  3.276569e+002  7.006722e+002  8.550000e+002
    endloop
  endfacet
  facet normal -8.517355e-001 -5.120168e-001 -1.112896e-001
    outer loop
      vertex  3.276569e+002  7.006722e+002  8.550000e+002
      vertex  7.494923e+002  4.673529e+002 -1.300000e+003
      vertex  7.643267e+002  4.426761e+002 -1.300000e+003
    endloop
  endfacet
  facet normal -8.286720e-001 -5.503576e-001 -1.020261e-001
    outer loop
      vertex  3.276569e+002  7.006722e+002  8.550000e+002
      vertex  7.643267e+002  4.426761e+002 -1.300000e+003
      vertex  3.436991e+002  6.765174e+002  8.550000e+002
    endloop
  endfacet
  facet normal -8.674164e-001 -4.836742e-001 -1.168244e-001
    outer loop
      vertex  3.436991e+002  6.765174e+002  8.550000e+002
      vertex  7.643267e+002  4.426761e+002 -1.300000e+003
      vertex  7.783495e+002  4.175276e+002 -1.300000e+003
    endloop
  endfacet
  facet normal -8.457751e-001 -5.225381e-001 -1.077887e-001
    outer loop
      vertex  3.436991e+002  6.765174e+002  8.550000e+002
      vertex  7.783495e+002  4.175276e+002 -1.300000e+003
      vertex  3.589406e+002  6.518478e+002  8.550000e+002
    endloop
  endfacet
  facet normal -8.821439e-001 -4.548436e-001 -1.222273e-001
    outer loop
      vertex  3.589406e+002  6.518478e+002  8.550000e+002
      vertex  7.783495e+002  4.175276e+002 -1.300000e+003
      vertex  7.915457e+002  3.919344e+002 -1.300000e+003
    endloop
  endfacet
  facet normal -8.619286e-001 -4.941799e-001 -1.134248e-001
    outer loop
      vertex  3.589406e+002  6.518478e+002  8.550000e+002
      vertex  7.915457e+002  3.919344e+002 -1.300000e+003
      vertex  3.733645e+002  6.266901e+002  8.550000e+002
    endloop
  endfacet
  facet normal -8.959019e-001 -4.255649e-001 -1.274921e-001
    outer loop
      vertex  3.733645e+002  6.266901e+002  8.550000e+002
      vertex  7.915457e+002  3.919344e+002 -1.300000e+003
      vertex  8.039011e+002  3.659237e+002 -1.300000e+003
    endloop
  endfacet
  facet normal -8.771180e-001 -4.653170e-001 -1.189292e-001
    outer loop
      vertex  3.733645e+002  6.266901e+002  8.550000e+002
      vertex  8.039011e+002  3.659237e+002 -1.300000e+003
      vertex  3.869554e+002  6.010714e+002  8.550000e+002
    endloop
  endfacet
  facet normal -9.086824e-001 -3.958658e-001 -1.326146e-001
    outer loop
      vertex  3.869554e+002  6.010714e+002  8.550000e+002
      vertex  8.039011e+002  3.659237e+002 -1.300000e+003
      vertex  8.154023e+002  3.395233e+002 -1.300000e+003
    endloop
  endfacet
  facet normal -8.913299e-001 -4.359833e-001 -1.242957e-001
    outer loop
      vertex  3.869554e+002  6.010714e+002  8.550000e+002
      vertex  8.154023e+002  3.395233e+002 -1.300000e+003
      vertex  3.996982e+002  5.750197e+002  8.550000e+002
    endloop
  endfacet
  facet normal -9.204736e-001 -3.657835e-001 -1.375889e-001
    outer loop
      vertex  3.996982e+002  5.750197e+002  8.550000e+002
      vertex  8.154023e+002  3.395233e+002 -1.300000e+003
      vertex  8.260370e+002  3.127617e+002 -1.300000e+003
    endloop
  endfacet
  facet normal -9.045532e-001 -4.062121e-001 -1.295191e-001
    outer loop
      vertex  3.996982e+002  5.750197e+002  8.550000e+002
      vertex  8.260370e+002  3.127617e+002 -1.300000e+003
      vertex  4.115791e+002  5.485634e+002  8.550000e+002
    endloop
  endfacet
  facet normal -9.312462e-001 -3.354145e-001 -1.423995e-001
    outer loop
      vertex  4.115791e+002  5.485634e+002  8.550000e+002
      vertex  8.260370e+002  3.127617e+002 -1.300000e+003
      vertex  8.357550e+002  2.857807e+002 -1.300000e+003
    endloop
  endfacet
  facet normal -9.167522e-001 -3.761013e-001 -1.345852e-001
    outer loop
      vertex  4.115791e+002  5.485634e+002  8.550000e+002
      vertex  8.357550e+002  2.857807e+002 -1.300000e+003
      vertex  4.225411e+002  5.218433e+002  8.550000e+002
    endloop
  endfacet
  facet normal -9.409971e-001 -3.047990e-001 -1.470447e-001
    outer loop
      vertex  4.225411e+002  5.218433e+002  8.550000e+002
      vertex  8.357550e+002  2.857807e+002 -1.300000e+003
      vertex  8.445919e+002  2.584989e+002 -1.300000e+003
    endloop
  endfacet
  facet normal -9.279224e-001 -3.456931e-001 -1.394867e-001
    outer loop
      vertex  4.225411e+002  5.218433e+002  8.550000e+002
      vertex  8.445919e+002  2.584989e+002 -1.300000e+003
      vertex  4.326236e+002  4.947796e+002  8.550000e+002
    endloop
  endfacet
  facet normal -9.497451e-001 -2.739034e-001 -1.515298e-001
    outer loop
      vertex  4.326236e+002  4.947796e+002  8.550000e+002
      vertex  8.445919e+002  2.584989e+002 -1.300000e+003
      vertex  8.525382e+002  2.309454e+002 -1.300000e+003
    endloop
  endfacet
  facet normal -9.380832e-001 -3.149555e-001 -1.442316e-001
    outer loop
      vertex  4.326236e+002  4.947796e+002  8.550000e+002
      vertex  8.525382e+002  2.309454e+002 -1.300000e+003
      vertex  4.418156e+002  4.674015e+002  8.550000e+002
    endloop
  endfacet
  facet normal -9.574845e-001 -2.427636e-001 -1.558503e-001
    outer loop
      vertex  4.418156e+002  4.674015e+002  8.550000e+002
      vertex  8.525382e+002  2.309454e+002 -1.300000e+003
      vertex  8.595857e+002  2.031495e+002 -1.300000e+003
    endloop
  endfacet
  facet normal -9.472281e-001 -2.839241e-001 -1.488148e-001
    outer loop
      vertex  4.418156e+002  4.674015e+002  8.550000e+002
      vertex  8.595857e+002  2.031495e+002 -1.300000e+003
      vertex  4.501074e+002  4.397386e+002  8.550000e+002
    endloop
  endfacet
  facet normal -9.642113e-001 -2.114133e-001 -1.600025e-001
    outer loop
      vertex  4.501074e+002  4.397386e+002  8.550000e+002
      vertex  8.595857e+002  2.031495e+002 -1.300000e+003
      vertex  8.657269e+002  1.751406e+002 -1.300000e+003
    endloop
  endfacet
  facet normal -9.553507e-001 -2.526357e-001 -1.532323e-001
    outer loop
      vertex  4.501074e+002  4.397386e+002  8.550000e+002
      vertex  8.657269e+002  1.751406e+002 -1.300000e+003
      vertex  4.574901e+002  4.118205e+002  8.550000e+002
    endloop
  endfacet
  facet normal -9.699228e-001 -1.798865e-001 -1.639828e-001
    outer loop
      vertex  4.574901e+002  4.118205e+002  8.550000e+002
      vertex  8.657269e+002  1.751406e+002 -1.300000e+003
      vertex  8.709556e+002  1.469484e+002 -1.300000e+003
    endloop
  endfacet
  facet normal -9.624478e-001 -2.211202e-001 -1.574805e-001
    outer loop
      vertex  4.574901e+002  4.118205e+002  8.550000e+002
      vertex  8.709556e+002  1.469484e+002 -1.300000e+003
      vertex  4.639559e+002  3.836772e+002  8.550000e+002
    endloop
  endfacet
  facet normal -9.746178e-001 -1.482149e-001 -1.677876e-001
    outer loop
      vertex  4.639559e+002  3.836772e+002  8.550000e+002
      vertex  8.709556e+002  1.469484e+002 -1.300000e+003
      vertex  8.752662e+002  1.186027e+002 -1.300000e+003
    endloop
  endfacet
  facet normal -9.685153e-001 -1.894147e-001 -1.615551e-001
    outer loop
      vertex  4.639559e+002  3.836772e+002  8.550000e+002
      vertex  8.752662e+002  1.186027e+002 -1.300000e+003
      vertex  4.694981e+002  3.553391e+002  8.550000e+002
    endloop
  endfacet
  facet normal -9.782950e-001 -1.164289e-001 -1.714145e-001
    outer loop
      vertex  4.694981e+002  3.553391e+002  8.550000e+002
      vertex  8.752662e+002  1.186027e+002 -1.300000e+003
      vertex  8.786544e+002  9.013333e+001 -1.300000e+003
    endloop
  endfacet
  facet normal -9.735513e-001 -1.575537e-001 -1.654527e-001
    outer loop
      vertex  4.694981e+002  3.553391e+002  8.550000e+002
      vertex  8.786544e+002  9.013333e+001 -1.300000e+003
      vertex  4.741108e+002  3.268362e+002  8.550000e+002
    endloop
  endfacet
  facet normal -9.809550e-001 -8.456700e-002 -1.748593e-001
    outer loop
      vertex  4.741108e+002  3.268362e+002  8.550000e+002
      vertex  8.786544e+002  9.013333e+001 -1.300000e+003
      vertex  8.811168e+002  6.157032e+001 -1.300000e+003
    endloop
  endfacet
  facet normal -9.775553e-001 -1.255675e-001 -1.691703e-001
    outer loop
      vertex  4.741108e+002  3.268362e+002  8.550000e+002
      vertex  8.811168e+002  6.157032e+001 -1.300000e+003
      vertex  4.777893e+002  2.981991e+002  8.550000e+002
    endloop
  endfacet
  facet normal -9.825990e-001 -5.265362e-002 -1.781206e-001
    outer loop
      vertex  4.777893e+002  2.981991e+002  8.550000e+002
      vertex  8.811168e+002  6.157032e+001 -1.300000e+003
      vertex  8.826508e+002  3.294364e+001 -1.300000e+003
    endloop
  endfacet
  facet normal -9.805265e-001 -9.349288e-002 -1.727044e-001
    outer loop
      vertex  4.777893e+002  2.981991e+002  8.550000e+002
      vertex  8.826508e+002  3.294364e+001 -1.300000e+003
      vertex  4.805297e+002  2.694582e+002  8.550000e+002
    endloop
  endfacet
  facet normal -9.832287e-001 -2.073006e-002 -1.811945e-001
    outer loop
      vertex  4.805297e+002  2.694582e+002  8.550000e+002
      vertex  8.826508e+002  3.294364e+001 -1.300000e+003
      vertex  8.832551e+002  4.283346e+000 -1.300000e+003
    endloop
  endfacet
  facet normal -9.824665e-001 -6.136064e-002 -1.760524e-001
    outer loop
      vertex  4.805297e+002  2.694582e+002  8.550000e+002
      vertex  8.832551e+002  4.283346e+000 -1.300000e+003
      vertex  4.823293e+002  2.406443e+002  8.550000e+002
    endloop
  endfacet
  facet normal -9.828476e-001  1.118462e-002 -1.840801e-001
    outer loop
      vertex  4.823293e+002  2.406443e+002  8.550000e+002
      vertex  8.832551e+002  4.283346e+000 -1.300000e+003
      vertex  8.829289e+002 -2.438052e+001 -1.300000e+003
    endloop
  endfacet
  facet normal -9.833771e-001 -2.920177e-002 -1.792117e-001
    outer loop
      vertex  4.823293e+002  2.406443e+002  8.550000e+002
      vertex  8.829289e+002 -2.438052e+001 -1.300000e+003
      vertex  4.831862e+002  2.117878e+002  8.550000e+002
    endloop
  endfacet
  facet normal -9.814592e-001  4.304868e-002 -1.867741e-001
    outer loop
      vertex  4.831862e+002  2.117878e+002  8.550000e+002
      vertex  8.829289e+002 -2.438052e+001 -1.300000e+003
      vertex  8.816728e+002 -5.301792e+001 -1.300000e+003
    endloop
  endfacet
  facet normal -9.832609e-001  2.947679e-003 -1.821796e-001
    outer loop
      vertex  4.831862e+002  2.117878e+002  8.550000e+002
      vertex  8.816728e+002 -5.301792e+001 -1.300000e+003
      vertex  4.830997e+002  1.829196e+002  8.550000e+002
    endloop
  endfacet
  facet normal -9.790685e-001  7.483451e-002 -1.892745e-001
    outer loop
      vertex  4.830997e+002  1.829196e+002  8.550000e+002
      vertex  8.816728e+002 -5.301792e+001 -1.300000e+003
      vertex  8.794882e+002 -8.159889e+001 -1.300000e+003
    endloop
  endfacet
  facet normal -9.821216e-001  3.505902e-002 -1.849538e-001
    outer loop
      vertex  4.830997e+002  1.829196e+002  8.550000e+002
      vertex  8.794882e+002 -8.159889e+001 -1.300000e+003
      vertex  4.820698e+002  1.540702e+002  8.550000e+002
    endloop
  endfacet
  facet normal -9.756797e-001  1.065170e-001 -1.915807e-001
    outer loop
      vertex  4.820698e+002  1.540702e+002  8.550000e+002
      vertex  8.794882e+002 -8.159889e+001 -1.300000e+003
      vertex  8.763774e+002 -1.100935e+002 -1.300000e+003
    endloop
  endfacet
  facet normal -9.799638e-001  6.710090e-002 -1.875327e-001
    outer loop
      vertex  4.820698e+002  1.540702e+002  8.550000e+002
      vertex  8.763774e+002 -1.100935e+002 -1.300000e+003
      vertex  4.800978e+002  1.252703e+002  8.550000e+002
    endloop
  endfacet
  facet normal -9.712997e-001  1.380619e-001 -1.936896e-001
    outer loop
      vertex  4.800978e+002  1.252703e+002  8.550000e+002
      vertex  8.763774e+002 -1.100935e+002 -1.300000e+003
      vertex  8.723436e+002 -1.384720e+002 -1.300000e+003
    endloop
  endfacet
  facet normal -9.767926e-001  9.904122e-002 -1.899138e-001
    outer loop
      vertex  4.800978e+002  1.252703e+002  8.550000e+002
      vertex  8.723436e+002 -1.384720e+002 -1.300000e+003
      vertex  4.771858e+002  9.655039e+001  8.550000e+002
    endloop
  endfacet
  facet normal -9.659351e-001  1.694397e-001 -1.956004e-001
    outer loop
      vertex  4.771858e+002  9.655039e+001  8.550000e+002
      vertex  8.723436e+002 -1.384720e+002 -1.300000e+003
      vertex  8.673912e+002 -1.667047e+002 -1.300000e+003
    endloop
  endfacet
  facet normal -9.726136e-001  1.308512e-001 -1.920957e-001
    outer loop
      vertex  4.771858e+002  9.655039e+001  8.550000e+002
      vertex  8.673912e+002 -1.667047e+002 -1.300000e+003
      vertex  4.733368e+002  6.794099e+001  8.550000e+002
    endloop
  endfacet
  facet normal -9.595929e-001  2.006226e-001 -1.973120e-001
    outer loop
      vertex  4.733368e+002  6.794099e+001  8.550000e+002
      vertex  8.673912e+002 -1.667047e+002 -1.300000e+003
      vertex  8.615252e+002 -1.947619e+002 -1.300000e+003
    endloop
  endfacet
  facet normal -9.674338e-001  1.624994e-001 -1.940770e-001
    outer loop
      vertex  4.733368e+002  6.794099e+001  8.550000e+002
      vertex  8.615252e+002 -1.947619e+002 -1.300000e+003
      vertex  4.685549e+002  3.947244e+001  8.550000e+002
    endloop
  endfacet
  facet normal -9.522806e-001  2.315839e-001 -1.988228e-001
    outer loop
      vertex  4.685549e+002  3.947244e+001  8.550000e+002
      vertex  8.615252e+002 -1.947619e+002 -1.300000e+003
      vertex  8.547518e+002 -2.226145e+002 -1.300000e+003
    endloop
  endfacet
  facet normal -9.612604e-001  1.939559e-001 -1.958556e-001
    outer loop
      vertex  4.685549e+002  3.947244e+001  8.550000e+002
      vertex  8.547518e+002 -2.226145e+002 -1.300000e+003
      vertex  4.628452e+002  1.117496e+001  8.550000e+002
    endloop
  endfacet
  facet normal -9.440082e-001  2.622901e-001 -2.001315e-001
    outer loop
      vertex  4.628452e+002  1.117496e+001  8.550000e+002
      vertex  8.547518e+002 -2.226145e+002 -1.300000e+003
      vertex  8.470780e+002 -2.502332e+002 -1.300000e+003
    endloop
  endfacet
  facet normal -9.541008e-001  2.251943e-001 -1.974311e-001
    outer loop
      vertex  4.628452e+002  1.117496e+001  8.550000e+002
      vertex  8.470780e+002 -2.502332e+002 -1.300000e+003
      vertex  4.562137e+002 -1.692141e+001  8.550000e+002
    endloop
  endfacet
  facet normal -9.347834e-001  2.927170e-001 -2.012379e-001
    outer loop
      vertex  4.562137e+002 -1.692141e+001  8.550000e+002
      vertex  8.470780e+002 -2.502332e+002 -1.300000e+003
      vertex  8.385118e+002 -2.775891e+002 -1.300000e+003
    endloop
  endfacet
  facet normal -9.459647e-001  2.561808e-001 -1.988021e-001
    outer loop
      vertex  4.562137e+002 -1.692141e+001  8.550000e+002
      vertex  8.385118e+002 -2.775891e+002 -1.300000e+003
      vertex  4.486674e+002 -4.478681e+001  8.550000e+002
    endloop
  endfacet
  facet normal -9.246166e-001  3.228362e-001 -2.021409e-001
    outer loop
      vertex  4.486674e+002 -4.478681e+001  8.550000e+002
      vertex  8.385118e+002 -2.775891e+002 -1.300000e+003
      vertex  8.290621e+002 -3.046534e+002 -1.300000e+003
    endloop
  endfacet
  facet normal -9.368606e-001  2.868890e-001 -1.999673e-001
    outer loop
      vertex  4.486674e+002 -4.478681e+001  8.550000e+002
      vertex  8.290621e+002 -3.046534e+002 -1.300000e+003
      vertex  4.402142e+002 -7.239161e+001  8.550000e+002
    endloop
  endfacet
  facet normal -9.135181e-001  3.526199e-001 -2.028399e-001
    outer loop
      vertex  4.402142e+002 -7.239161e+001  8.550000e+002
      vertex  8.290621e+002 -3.046534e+002 -1.300000e+003
      vertex  8.187387e+002 -3.313979e+002 -1.300000e+003
    endloop
  endfacet
  facet normal -9.267983e-001  3.172910e-001 -2.009263e-001
    outer loop
      vertex  4.402142e+002 -7.239161e+001  8.550000e+002
      vertex  8.187387e+002 -3.313979e+002 -1.300000e+003
      vertex  4.308629e+002 -9.970643e+001  8.550000e+002
    endloop
  endfacet
  facet normal -9.014995e-001  3.820391e-001 -2.033340e-001
    outer loop
      vertex  4.308629e+002 -9.970643e+001  8.550000e+002
      vertex  8.187387e+002 -3.313979e+002 -1.300000e+003
      vertex  8.075524e+002 -3.577944e+002 -1.300000e+003
    endloop
  endfacet
  facet normal -9.157887e-001  3.473571e-001 -2.016782e-001
    outer loop
      vertex  4.308629e+002 -9.970643e+001  8.550000e+002
      vertex  8.075524e+002 -3.577944e+002 -1.300000e+003
      vertex  4.206234e+002 -1.267022e+002  8.550000e+002
    endloop
  endfacet
  facet normal -8.885706e-001  4.110713e-001 -2.036238e-001
    outer loop
      vertex  4.206234e+002 -1.267022e+002  8.550000e+002
      vertex  8.075524e+002 -3.577944e+002 -1.300000e+003
      vertex  7.955146e+002 -3.838151e+002 -1.300000e+003
    endloop
  endfacet
  facet normal -9.038423e-001  3.770613e-001 -2.022227e-001
    outer loop
      vertex  4.206234e+002 -1.267022e+002  8.550000e+002
      vertex  7.955146e+002 -3.838151e+002 -1.300000e+003
      vertex  4.095066e+002 -1.533500e+002  8.550000e+002
    endloop
  endfacet
  facet normal -8.747445e-001  4.396876e-001 -2.037082e-001
    outer loop
      vertex  4.095066e+002 -1.533500e+002  8.550000e+002
      vertex  7.955146e+002 -3.838151e+002 -1.300000e+003
      vertex  7.826381e+002 -4.094326e+002 -1.300000e+003
    endloop
  endfacet
  facet normal -8.909711e-001  4.063747e-001 -2.025592e-001
    outer loop
      vertex  4.095066e+002 -1.533500e+002  8.550000e+002
      vertex  7.826381e+002 -4.094326e+002 -1.300000e+003
      vertex  3.975241e+002 -1.796214e+002  8.550000e+002
    endloop
  endfacet
  facet normal -8.600343e-001  4.678601e-001 -2.035872e-001
    outer loop
      vertex  3.975241e+002 -1.796214e+002  8.550000e+002
      vertex  7.826381e+002 -4.094326e+002 -1.300000e+003
      vertex  7.689362e+002 -4.346198e+002 -1.300000e+003
    endloop
  endfacet
  facet normal -8.771875e-001  4.352702e-001 -2.026873e-001
    outer loop
      vertex  3.975241e+002 -1.796214e+002  8.550000e+002
      vertex  7.689362e+002 -4.346198e+002 -1.300000e+003
      vertex  3.846887e+002 -2.054884e+002  8.550000e+002
    endloop
  endfacet
  facet normal -8.444545e-001  4.955617e-001 -2.032614e-001
    outer loop
      vertex  3.846887e+002 -2.054884e+002  8.550000e+002
      vertex  7.689362e+002 -4.346198e+002 -1.300000e+003
      vertex  7.544234e+002 -4.593502e+002 -1.300000e+003
    endloop
  endfacet
  facet normal -8.625047e-001  4.637196e-001 -2.026073e-001
    outer loop
      vertex  3.846887e+002 -2.054884e+002  8.550000e+002
      vertex  7.544234e+002 -4.593502e+002 -1.300000e+003
      vertex  3.710139e+002 -2.309231e+002  8.550000e+002
    endloop
  endfacet
  facet normal -8.280162e-001  5.227709e-001 -2.027306e-001
    outer loop
      vertex  3.710139e+002 -2.309231e+002  8.550000e+002
      vertex  7.544234e+002 -4.593502e+002 -1.300000e+003
      vertex  7.391148e+002 -4.835974e+002 -1.300000e+003
    endloop
  endfacet
  facet normal -8.469359e-001  4.916978e-001 -2.023190e-001
    outer loop
      vertex  3.710139e+002 -2.309231e+002  8.550000e+002
      vertex  7.391148e+002 -4.835974e+002 -1.300000e+003
      vertex  3.565143e+002 -2.558982e+002  8.550000e+002
    endloop
  endfacet
  facet normal -8.107358e-001  5.494593e-001 -2.019951e-001
    outer loop
      vertex  3.565143e+002 -2.558982e+002  8.550000e+002
      vertex  7.391148e+002 -4.835974e+002 -1.300000e+003
      vertex  7.230266e+002 -5.073358e+002 -1.300000e+003
    endloop
  endfacet
  facet normal -8.304959e-001  5.191767e-001 -2.018224e-001
    outer loop
      vertex  3.565143e+002 -2.558982e+002  8.550000e+002
      vertex  7.230266e+002 -5.073358e+002 -1.300000e+003
      vertex  3.412055e+002 -2.803868e+002  8.550000e+002
    endloop
  endfacet
  facet normal -7.926278e-001  5.756022e-001 -2.010554e-001
    outer loop
      vertex  3.412055e+002 -2.803868e+002  8.550000e+002
      vertex  7.230266e+002 -5.073358e+002 -1.300000e+003
      vertex  7.061758e+002 -5.305400e+002 -1.300000e+003
    endloop
  endfacet
  facet normal -8.131984e-001  5.461316e-001 -2.011184e-001
    outer loop
      vertex  3.412055e+002 -2.803868e+002  8.550000e+002
      vertex  7.061758e+002 -5.305400e+002 -1.300000e+003
      vertex  3.251038e+002 -3.043625e+002  8.550000e+002
    endloop
  endfacet
  facet normal -7.737093e-001  6.011730e-001 -1.999122e-001
    outer loop
      vertex  3.251038e+002 -3.043625e+002  8.550000e+002
      vertex  7.061758e+002 -5.305400e+002 -1.300000e+003
      vertex  6.885804e+002 -5.531854e+002 -1.300000e+003
    endloop
  endfacet
  facet normal -7.950606e-001  5.725347e-001 -2.002068e-001
    outer loop
      vertex  3.251038e+002 -3.043625e+002  8.550000e+002
      vertex  6.885804e+002 -5.531854e+002 -1.300000e+003
      vertex  3.082266e+002 -3.277994e+002  8.550000e+002
    endloop
  endfacet
endsolid CATIA STL
