solid CATIA STL
  facet normal  2.621942e-001 -9.650151e-001  0.000000e+000
    outer loop
      vertex  3.000000e+003  1.460000e+003  0.000000e+000
      vertex  3.000000e+003  1.460000e+003  2.850000e+003
      vertex  2.895436e+003  1.431590e+003  0.000000e+000
    endloop
  endfacet
  facet normal  2.621942e-001 -9.650151e-001  0.000000e+000
    outer loop
      vertex  2.895436e+003  1.431590e+003  0.000000e+000
      vertex  3.000000e+003  1.460000e+003  2.850000e+003
      vertex  2.895436e+003  1.431590e+003  2.850000e+003
    endloop
  endfacet
  facet normal  2.745969e-001 -9.615594e-001  0.000000e+000
    outer loop
      vertex  2.895436e+003  1.431590e+003  0.000000e+000
      vertex  2.895436e+003  1.431590e+003  2.850000e+003
      vertex  2.791367e+003  1.401871e+003  0.000000e+000
    endloop
  endfacet
  facet normal  2.745969e-001 -9.615594e-001  0.000000e+000
    outer loop
      vertex  2.791367e+003  1.401871e+003  0.000000e+000
      vertex  2.895436e+003  1.431590e+003  2.850000e+003
      vertex  2.791367e+003  1.401871e+003  2.850000e+003
    endloop
  endfacet
  facet normal  2.869607e-001 -9.579424e-001  0.000000e+000
    outer loop
      vertex  2.791367e+003  1.401871e+003  0.000000e+000
      vertex  2.791367e+003  1.401871e+003  2.850000e+003
      vertex  2.687792e+003  1.370844e+003  0.000000e+000
    endloop
  endfacet
  facet normal  2.869607e-001 -9.579424e-001  0.000000e+000
    outer loop
      vertex  2.687792e+003  1.370844e+003  0.000000e+000
      vertex  2.791367e+003  1.401871e+003  2.850000e+003
      vertex  2.687792e+003  1.370844e+003  2.850000e+003
    endloop
  endfacet
  facet normal  2.992471e-001 -9.541757e-001  0.000000e+000
    outer loop
      vertex  2.687792e+003  1.370844e+003  0.000000e+000
      vertex  2.687792e+003  1.370844e+003  2.850000e+003
      vertex  2.584709e+003  1.338515e+003  0.000000e+000
    endloop
  endfacet
  facet normal  2.992471e-001 -9.541757e-001  0.000000e+000
    outer loop
      vertex  2.584709e+003  1.338515e+003  0.000000e+000
      vertex  2.687792e+003  1.370844e+003  2.850000e+003
      vertex  2.584709e+003  1.338515e+003  2.850000e+003
    endloop
  endfacet
  facet normal  3.114050e-001 -9.502773e-001  0.000000e+000
    outer loop
      vertex  2.584709e+003  1.338515e+003  0.000000e+000
      vertex  2.584709e+003  1.338515e+003  2.850000e+003
      vertex  2.482114e+003  1.304895e+003  0.000000e+000
    endloop
  endfacet
  facet normal  3.114050e-001 -9.502773e-001  0.000000e+000
    outer loop
      vertex  2.482114e+003  1.304895e+003  0.000000e+000
      vertex  2.584709e+003  1.338515e+003  2.850000e+003
      vertex  2.482114e+003  1.304895e+003  2.850000e+003
    endloop
  endfacet
  facet normal  3.233634e-001 -9.462749e-001  0.000000e+000
    outer loop
      vertex  2.482114e+003  1.304895e+003  0.000000e+000
      vertex  2.482114e+003  1.304895e+003  2.850000e+003
      vertex  2.380000e+003  1.270000e+003  0.000000e+000
    endloop
  endfacet
  facet normal  3.233634e-001 -9.462749e-001  0.000000e+000
    outer loop
      vertex  2.380000e+003  1.270000e+003  0.000000e+000
      vertex  2.482114e+003  1.304895e+003  2.850000e+003
      vertex  2.380000e+003  1.270000e+003  2.850000e+003
    endloop
  endfacet
  facet normal  3.352306e-001 -9.421360e-001  0.000000e+000
    outer loop
      vertex  2.380000e+003  1.270000e+003  0.000000e+000
      vertex  2.380000e+003  1.270000e+003  2.850000e+003
      vertex  2.275021e+003  1.232646e+003  0.000000e+000
    endloop
  endfacet
  facet normal  3.352306e-001 -9.421360e-001  0.000000e+000
    outer loop
      vertex  2.275021e+003  1.232646e+003  0.000000e+000
      vertex  2.380000e+003  1.270000e+003  2.850000e+003
      vertex  2.275021e+003  1.232646e+003  2.850000e+003
    endloop
  endfacet
  facet normal  3.468953e-001 -9.379039e-001  0.000000e+000
    outer loop
      vertex  2.275021e+003  1.232646e+003  0.000000e+000
      vertex  2.275021e+003  1.232646e+003  2.850000e+003
      vertex  2.170531e+003  1.193999e+003  0.000000e+000
    endloop
  endfacet
  facet normal  3.468953e-001 -9.379039e-001  0.000000e+000
    outer loop
      vertex  2.170531e+003  1.193999e+003  0.000000e+000
      vertex  2.275021e+003  1.232646e+003  2.850000e+003
      vertex  2.170531e+003  1.193999e+003  2.850000e+003
    endloop
  endfacet
  facet normal  3.580658e-001 -9.336964e-001  0.000000e+000
    outer loop
      vertex  2.170531e+003  1.193999e+003  0.000000e+000
      vertex  2.170531e+003  1.193999e+003  2.850000e+003
      vertex  2.066509e+003  1.154108e+003  0.000000e+000
    endloop
  endfacet
  facet normal  3.580658e-001 -9.336964e-001  0.000000e+000
    outer loop
      vertex  2.066509e+003  1.154108e+003  0.000000e+000
      vertex  2.170531e+003  1.193999e+003  2.850000e+003
      vertex  2.066509e+003  1.154108e+003  2.850000e+003
    endloop
  endfacet
  facet normal  3.686578e-001 -9.295652e-001  0.000000e+000
    outer loop
      vertex  2.066509e+003  1.154108e+003  0.000000e+000
      vertex  2.066509e+003  1.154108e+003  2.850000e+003
      vertex  1.962934e+003  1.113031e+003  0.000000e+000
    endloop
  endfacet
  facet normal  3.686578e-001 -9.295652e-001  0.000000e+000
    outer loop
      vertex  1.962934e+003  1.113031e+003  0.000000e+000
      vertex  2.066509e+003  1.154108e+003  2.850000e+003
      vertex  1.962934e+003  1.113031e+003  2.850000e+003
    endloop
  endfacet
  facet normal  3.785955e-001 -9.255623e-001  0.000000e+000
    outer loop
      vertex  1.962934e+003  1.113031e+003  0.000000e+000
      vertex  1.962934e+003  1.113031e+003  2.850000e+003
      vertex  1.859780e+003  1.070836e+003  0.000000e+000
    endloop
  endfacet
  facet normal  3.785955e-001 -9.255623e-001  0.000000e+000
    outer loop
      vertex  1.859780e+003  1.070836e+003  0.000000e+000
      vertex  1.962934e+003  1.113031e+003  2.850000e+003
      vertex  1.859780e+003  1.070836e+003  2.850000e+003
    endloop
  endfacet
  facet normal  3.882977e-001 -9.215339e-001  0.000000e+000
    outer loop
      vertex  1.859780e+003  1.070836e+003  0.000000e+000
      vertex  1.859780e+003  1.070836e+003  2.850000e+003
      vertex  1.745622e+003  1.022735e+003  0.000000e+000
    endloop
  endfacet
  facet normal  3.882977e-001 -9.215339e-001  0.000000e+000
    outer loop
      vertex  1.745622e+003  1.022735e+003  0.000000e+000
      vertex  1.859780e+003  1.070836e+003  2.850000e+003
      vertex  1.745622e+003  1.022735e+003  2.850000e+003
    endloop
  endfacet
  facet normal  3.975824e-001 -9.175665e-001  0.000000e+000
    outer loop
      vertex  1.745622e+003  1.022735e+003  0.000000e+000
      vertex  1.745622e+003  1.022735e+003  2.850000e+003
      vertex  1.631904e+003  9.734606e+002  0.000000e+000
    endloop
  endfacet
  facet normal  3.975824e-001 -9.175665e-001  0.000000e+000
    outer loop
      vertex  1.631904e+003  9.734606e+002  0.000000e+000
      vertex  1.745622e+003  1.022735e+003  2.850000e+003
      vertex  1.631904e+003  9.734606e+002  2.850000e+003
    endloop
  endfacet
  facet normal  4.058470e-001 -9.139410e-001  0.000000e+000
    outer loop
      vertex  1.631904e+003  9.734606e+002  0.000000e+000
      vertex  1.631904e+003  9.734606e+002  2.850000e+003
      vertex  1.518578e+003  9.231367e+002  0.000000e+000
    endloop
  endfacet
  facet normal  4.058470e-001 -9.139410e-001  0.000000e+000
    outer loop
      vertex  1.518578e+003  9.231367e+002  0.000000e+000
      vertex  1.631904e+003  9.734606e+002  2.850000e+003
      vertex  1.518578e+003  9.231367e+002  2.850000e+003
    endloop
  endfacet
  facet normal  4.122242e-001 -9.110824e-001  0.000000e+000
    outer loop
      vertex  1.518578e+003  9.231367e+002  0.000000e+000
      vertex  1.518578e+003  9.231367e+002  2.850000e+003
      vertex  1.433811e+003  8.847834e+002  0.000000e+000
    endloop
  endfacet
  facet normal  4.122242e-001 -9.110824e-001  0.000000e+000
    outer loop
      vertex  1.433811e+003  8.847834e+002  0.000000e+000
      vertex  1.518578e+003  9.231367e+002  2.850000e+003
      vertex  1.433811e+003  8.847834e+002  2.850000e+003
    endloop
  endfacet
  facet normal  4.170039e-001 -9.089047e-001  0.000000e+000
    outer loop
      vertex  1.433811e+003  8.847834e+002  0.000000e+000
      vertex  1.433811e+003  8.847834e+002  2.850000e+003
      vertex  1.349214e+003  8.459706e+002  0.000000e+000
    endloop
  endfacet
  facet normal  4.170039e-001 -9.089047e-001  0.000000e+000
    outer loop
      vertex  1.349214e+003  8.459706e+002  0.000000e+000
      vertex  1.433811e+003  8.847834e+002  2.850000e+003
      vertex  1.349214e+003  8.459706e+002  2.850000e+003
    endloop
  endfacet
  facet normal  4.211532e-001 -9.069895e-001  0.000000e+000
    outer loop
      vertex  1.349214e+003  8.459706e+002  0.000000e+000
      vertex  1.349214e+003  8.459706e+002  2.850000e+003
      vertex  1.264765e+003  8.067574e+002  0.000000e+000
    endloop
  endfacet
  facet normal  4.211532e-001 -9.069895e-001  0.000000e+000
    outer loop
      vertex  1.264765e+003  8.067574e+002  0.000000e+000
      vertex  1.349214e+003  8.459706e+002  2.850000e+003
      vertex  1.264765e+003  8.067574e+002  2.850000e+003
    endloop
  endfacet
  facet normal  4.246633e-001 -9.053513e-001  0.000000e+000
    outer loop
      vertex  1.264765e+003  8.067574e+002  0.000000e+000
      vertex  1.264765e+003  8.067574e+002  2.850000e+003
      vertex  1.180441e+003  7.672042e+002  0.000000e+000
    endloop
  endfacet
  facet normal  4.246633e-001 -9.053513e-001  0.000000e+000
    outer loop
      vertex  1.180441e+003  7.672042e+002  0.000000e+000
      vertex  1.264765e+003  8.067574e+002  2.850000e+003
      vertex  1.180441e+003  7.672042e+002  2.850000e+003
    endloop
  endfacet
  facet normal  4.286411e-001 -9.034749e-001  0.000000e+000
    outer loop
      vertex  1.180441e+003  7.672042e+002  0.000000e+000
      vertex  1.180441e+003  7.672042e+002  2.850000e+003
      vertex  1.012071e+003  6.873235e+002  0.000000e+000
    endloop
  endfacet
  facet normal  4.286411e-001 -9.034749e-001  0.000000e+000
    outer loop
      vertex  1.012071e+003  6.873235e+002  0.000000e+000
      vertex  1.180441e+003  7.672042e+002  2.850000e+003
      vertex  1.012071e+003  6.873235e+002  2.850000e+003
    endloop
  endfacet
  facet normal  4.317950e-001 -9.019718e-001  0.000000e+000
    outer loop
      vertex  1.012071e+003  6.873235e+002  0.000000e+000
      vertex  1.012071e+003  6.873235e+002  2.850000e+003
      vertex  8.439147e+002  6.068232e+002  0.000000e+000
    endloop
  endfacet
  facet normal  4.317950e-001 -9.019718e-001  0.000000e+000
    outer loop
      vertex  8.439147e+002  6.068232e+002  0.000000e+000
      vertex  1.012071e+003  6.873235e+002  2.850000e+003
      vertex  8.439147e+002  6.068232e+002  2.850000e+003
    endloop
  endfacet
  facet normal  4.324027e-001 -9.016806e-001  0.000000e+000
    outer loop
      vertex  8.439147e+002  6.068232e+002  0.000000e+000
      vertex  8.439147e+002  6.068232e+002  2.850000e+003
      vertex  6.757831e+002  5.261953e+002  0.000000e+000
    endloop
  endfacet
  facet normal  4.324027e-001 -9.016806e-001  0.000000e+000
    outer loop
      vertex  6.757831e+002  5.261953e+002  0.000000e+000
      vertex  8.439147e+002  6.068232e+002  2.850000e+003
      vertex  6.757831e+002  5.261953e+002  2.850000e+003
    endloop
  endfacet
  facet normal  4.307030e-001 -9.024938e-001  0.000000e+000
    outer loop
      vertex  6.757831e+002  5.261953e+002  0.000000e+000
      vertex  6.757831e+002  5.261953e+002  2.850000e+003
      vertex  5.237700e+002  4.536491e+002  0.000000e+000
    endloop
  endfacet
  facet normal  4.307030e-001 -9.024938e-001  0.000000e+000
    outer loop
      vertex  5.237700e+002  4.536491e+002  0.000000e+000
      vertex  6.757831e+002  5.261953e+002  2.850000e+003
      vertex  5.237700e+002  4.536491e+002  2.850000e+003
    endloop
  endfacet
  facet normal  4.282283e-001 -9.036705e-001  0.000000e+000
    outer loop
      vertex  5.237700e+002  4.536491e+002  0.000000e+000
      vertex  5.237700e+002  4.536491e+002  2.850000e+003
      vertex  4.476741e+002  4.175891e+002  0.000000e+000
    endloop
  endfacet
  facet normal  4.282283e-001 -9.036705e-001  0.000000e+000
    outer loop
      vertex  4.476741e+002  4.175891e+002  0.000000e+000
      vertex  5.237700e+002  4.536491e+002  2.850000e+003
      vertex  4.476741e+002  4.175891e+002  2.850000e+003
    endloop
  endfacet
  facet normal  4.253025e-001 -9.050512e-001  0.000000e+000
    outer loop
      vertex  4.476741e+002  4.175891e+002  0.000000e+000
      vertex  4.476741e+002  4.175891e+002  2.850000e+003
      vertex  3.333754e+002  3.638777e+002  0.000000e+000
    endloop
  endfacet
  facet normal  4.253025e-001 -9.050512e-001  0.000000e+000
    outer loop
      vertex  3.333754e+002  3.638777e+002  0.000000e+000
      vertex  4.476741e+002  4.175891e+002  2.850000e+003
      vertex  3.333754e+002  3.638777e+002  2.850000e+003
    endloop
  endfacet
  facet normal  4.215953e-001 -9.067841e-001  0.000000e+000
    outer loop
      vertex  3.333754e+002  3.638777e+002  0.000000e+000
      vertex  3.333754e+002  3.638777e+002  2.850000e+003
      vertex  2.502547e+002  3.252320e+002  0.000000e+000
    endloop
  endfacet
  facet normal  4.215953e-001 -9.067841e-001  0.000000e+000
    outer loop
      vertex  2.502547e+002  3.252320e+002  0.000000e+000
      vertex  3.333754e+002  3.638777e+002  2.850000e+003
      vertex  2.502547e+002  3.252320e+002  2.850000e+003
    endloop
  endfacet
  facet normal  4.179261e-001 -9.084811e-001  0.000000e+000
    outer loop
      vertex  2.502547e+002  3.252320e+002  0.000000e+000
      vertex  2.502547e+002  3.252320e+002  2.850000e+003
      vertex  1.669958e+002  2.869307e+002  0.000000e+000
    endloop
  endfacet
  facet normal  4.179261e-001 -9.084811e-001  0.000000e+000
    outer loop
      vertex  1.669958e+002  2.869307e+002  0.000000e+000
      vertex  2.502547e+002  3.252320e+002  2.850000e+003
      vertex  1.669958e+002  2.869307e+002  2.850000e+003
    endloop
  endfacet
  facet normal  4.138002e-001 -9.103678e-001  0.000000e+000
    outer loop
      vertex  1.669958e+002  2.869307e+002  0.000000e+000
      vertex  1.669958e+002  2.869307e+002  2.850000e+003
      vertex  8.358253e+001  2.490158e+002  0.000000e+000
    endloop
  endfacet
  facet normal  4.138002e-001 -9.103678e-001  0.000000e+000
    outer loop
      vertex  8.358253e+001  2.490158e+002  0.000000e+000
      vertex  1.669958e+002  2.869307e+002  2.850000e+003
      vertex  8.358253e+001  2.490158e+002  2.850000e+003
    endloop
  endfacet
  facet normal  4.092519e-001 -9.124215e-001  0.000000e+000
    outer loop
      vertex  8.358253e+001  2.490158e+002  0.000000e+000
      vertex  8.358253e+001  2.490158e+002  2.850000e+003
      vertex  0.000000e+000  2.115262e+002  0.000000e+000
    endloop
  endfacet
  facet normal  4.092519e-001 -9.124215e-001  0.000000e+000
    outer loop
      vertex  0.000000e+000  2.115262e+002  0.000000e+000
      vertex  8.358253e+001  2.490158e+002  2.850000e+003
      vertex  0.000000e+000  2.115262e+002  2.850000e+003
    endloop
  endfacet
  facet normal  4.045791e-001 -9.145030e-001  0.000000e+000
    outer loop
      vertex  0.000000e+000  2.115262e+002  0.000000e+000
      vertex  0.000000e+000  2.115262e+002  2.850000e+003
      vertex -7.528968e+001  1.782178e+002  0.000000e+000
    endloop
  endfacet
  facet normal  4.045791e-001 -9.145030e-001  0.000000e+000
    outer loop
      vertex -7.528968e+001  1.782178e+002  0.000000e+000
      vertex  0.000000e+000  2.115262e+002  2.850000e+003
      vertex -7.528968e+001  1.782178e+002  2.850000e+003
    endloop
  endfacet
  facet normal  3.998634e-001 -9.165747e-001  0.000000e+000
    outer loop
      vertex -7.528968e+001  1.782178e+002  0.000000e+000
      vertex -7.528968e+001  1.782178e+002  2.850000e+003
      vertex -1.507357e+002  1.453039e+002  0.000000e+000
    endloop
  endfacet
  facet normal  3.998634e-001 -9.165747e-001  0.000000e+000
    outer loop
      vertex -1.507357e+002  1.453039e+002  0.000000e+000
      vertex -7.528968e+001  1.782178e+002  2.850000e+003
      vertex -1.507357e+002  1.453039e+002  2.850000e+003
    endloop
  endfacet
  facet normal  3.949795e-001 -9.186900e-001  0.000000e+000
    outer loop
      vertex -1.507357e+002  1.453039e+002  0.000000e+000
      vertex -1.507357e+002  1.453039e+002  2.850000e+003
      vertex -2.238735e+002  1.138592e+002  0.000000e+000
    endloop
  endfacet
  facet normal  3.949795e-001 -9.186900e-001  0.000000e+000
    outer loop
      vertex -2.238735e+002  1.138592e+002  0.000000e+000
      vertex -1.507357e+002  1.453039e+002  2.850000e+003
      vertex -2.238735e+002  1.138592e+002  2.850000e+003
    endloop
  endfacet
  facet normal  3.899634e-001 -9.208303e-001  0.000000e+000
    outer loop
      vertex -2.238735e+002  1.138592e+002  0.000000e+000
      vertex -2.238735e+002  1.138592e+002  2.850000e+003
      vertex -2.971709e+002  8.281840e+001  0.000000e+000
    endloop
  endfacet
  facet normal  3.899634e-001 -9.208303e-001  0.000000e+000
    outer loop
      vertex -2.971709e+002  8.281840e+001  0.000000e+000
      vertex -2.238735e+002  1.138592e+002  2.850000e+003
      vertex -2.971709e+002  8.281840e+001  2.850000e+003
    endloop
  endfacet
  facet normal  3.838112e-001 -9.234116e-001  0.000000e+000
    outer loop
      vertex -2.971709e+002  8.281840e+001  0.000000e+000
      vertex -2.971709e+002  8.281840e+001  2.850000e+003
      vertex -3.968151e+002  4.140180e+001  0.000000e+000
    endloop
  endfacet
  facet normal  3.838112e-001 -9.234116e-001  0.000000e+000
    outer loop
      vertex -3.968151e+002  4.140180e+001  0.000000e+000
      vertex -2.971709e+002  8.281840e+001  2.850000e+003
      vertex -3.968151e+002  4.140180e+001  2.850000e+003
    endloop
  endfacet
  facet normal  3.764611e-001 -9.264324e-001  0.000000e+000
    outer loop
      vertex -3.968151e+002  4.140180e+001  0.000000e+000
      vertex -3.968151e+002  4.140180e+001  2.850000e+003
      vertex -4.967740e+002  7.829391e-001  0.000000e+000
    endloop
  endfacet
  facet normal  3.764611e-001 -9.264324e-001  0.000000e+000
    outer loop
      vertex -4.967740e+002  7.829391e-001  0.000000e+000
      vertex -3.968151e+002  4.140180e+001  2.850000e+003
      vertex -4.967740e+002  7.829391e-001  2.850000e+003
    endloop
  endfacet
  facet normal  3.688643e-001 -9.294832e-001  0.000000e+000
    outer loop
      vertex -4.967740e+002  7.829391e-001  0.000000e+000
      vertex -4.967740e+002  7.829391e-001  2.850000e+003
      vertex -5.970568e+002 -3.901414e+001  0.000000e+000
    endloop
  endfacet
  facet normal  3.688643e-001 -9.294832e-001  0.000000e+000
    outer loop
      vertex -5.970568e+002 -3.901414e+001  0.000000e+000
      vertex -4.967740e+002  7.829391e-001  2.850000e+003
      vertex -5.970568e+002 -3.901414e+001  2.850000e+003
    endloop
  endfacet
  facet normal  3.600764e-001 -9.329228e-001  0.000000e+000
    outer loop
      vertex -5.970568e+002 -3.901414e+001  0.000000e+000
      vertex -5.970568e+002 -3.901414e+001  2.850000e+003
      vertex -7.228766e+002 -8.757632e+001  0.000000e+000
    endloop
  endfacet
  facet normal  3.600764e-001 -9.329228e-001  0.000000e+000
    outer loop
      vertex -7.228766e+002 -8.757632e+001  0.000000e+000
      vertex -5.970568e+002 -3.901414e+001  2.850000e+003
      vertex -7.228766e+002 -8.757632e+001  2.850000e+003
    endloop
  endfacet
  facet normal  3.500883e-001 -9.367168e-001  0.000000e+000
    outer loop
      vertex -7.228766e+002 -8.757632e+001  0.000000e+000
      vertex -7.228766e+002 -8.757632e+001  2.850000e+003
      vertex -8.492245e+002 -1.347975e+002  0.000000e+000
    endloop
  endfacet
  facet normal  3.500883e-001 -9.367168e-001  0.000000e+000
    outer loop
      vertex -8.492245e+002 -1.347975e+002  0.000000e+000
      vertex -7.228766e+002 -8.757632e+001  2.850000e+003
      vertex -8.492245e+002 -1.347975e+002  2.850000e+003
    endloop
  endfacet
  facet normal  3.399259e-001 -9.404522e-001  0.000000e+000
    outer loop
      vertex -8.492245e+002 -1.347975e+002  0.000000e+000
      vertex -8.492245e+002 -1.347975e+002  2.850000e+003
      vertex -9.761074e+002 -1.806593e+002  0.000000e+000
    endloop
  endfacet
  facet normal  3.399259e-001 -9.404522e-001  0.000000e+000
    outer loop
      vertex -9.761074e+002 -1.806593e+002  0.000000e+000
      vertex -8.492245e+002 -1.347975e+002  2.850000e+003
      vertex -9.761074e+002 -1.806593e+002  2.850000e+003
    endloop
  endfacet
  facet normal  3.296452e-001 -9.441050e-001  0.000000e+000
    outer loop
      vertex -9.761074e+002 -1.806593e+002  0.000000e+000
      vertex -9.761074e+002 -1.806593e+002  2.850000e+003
      vertex -1.103530e+003 -2.251502e+002  0.000000e+000
    endloop
  endfacet
  facet normal  3.296452e-001 -9.441050e-001  0.000000e+000
    outer loop
      vertex -1.103530e+003 -2.251502e+002  0.000000e+000
      vertex -9.761074e+002 -1.806593e+002  2.850000e+003
      vertex -1.103530e+003 -2.251502e+002  2.850000e+003
    endloop
  endfacet
  facet normal  3.192900e-001 -9.476570e-001  0.000000e+000
    outer loop
      vertex -1.103530e+003 -2.251502e+002  0.000000e+000
      vertex -1.103530e+003 -2.251502e+002  2.850000e+003
      vertex -1.231494e+003 -2.682646e+002  0.000000e+000
    endloop
  endfacet
  facet normal  3.192900e-001 -9.476570e-001  0.000000e+000
    outer loop
      vertex -1.231494e+003 -2.682646e+002  0.000000e+000
      vertex -1.103530e+003 -2.251502e+002  2.850000e+003
      vertex -1.231494e+003 -2.682646e+002  2.850000e+003
    endloop
  endfacet
  facet normal  3.088908e-001 -9.510974e-001  0.000000e+000
    outer loop
      vertex -1.231494e+003 -2.682646e+002  0.000000e+000
      vertex -1.231494e+003 -2.682646e+002  2.850000e+003
      vertex -1.360000e+003 -3.100000e+002  0.000000e+000
    endloop
  endfacet
  facet normal  3.088908e-001 -9.510974e-001  0.000000e+000
    outer loop
      vertex -1.360000e+003 -3.100000e+002  0.000000e+000
      vertex -1.231494e+003 -2.682646e+002  2.850000e+003
      vertex -1.360000e+003 -3.100000e+002  2.850000e+003
    endloop
  endfacet
endsolid CATIA STL
