solid CATIA STL
  facet normal  4.830995e-001 -8.755654e-001  0.000000e+000
    outer loop
      vertex  3.116038e+003  1.472463e+003  0.000000e+000
      vertex  3.116038e+003  1.472463e+003  2.850000e+003
      vertex  2.979282e+003  1.397006e+003  0.000000e+000
    endloop
  endfacet
  facet normal  4.830995e-001 -8.755654e-001  0.000000e+000
    outer loop
      vertex  2.979282e+003  1.397006e+003  0.000000e+000
      vertex  3.116038e+003  1.472463e+003  2.850000e+003
      vertex  2.979282e+003  1.397006e+003  2.850000e+003
    endloop
  endfacet
  facet normal  4.744910e-001 -8.802603e-001  0.000000e+000
    outer loop
      vertex  2.979282e+003  1.397006e+003  0.000000e+000
      vertex  2.979282e+003  1.397006e+003  2.850000e+003
      vertex  2.841885e+003  1.322944e+003  0.000000e+000
    endloop
  endfacet
  facet normal  4.744910e-001 -8.802603e-001  0.000000e+000
    outer loop
      vertex  2.841885e+003  1.322944e+003  0.000000e+000
      vertex  2.979282e+003  1.397006e+003  2.850000e+003
      vertex  2.841885e+003  1.322944e+003  2.850000e+003
    endloop
  endfacet
  facet normal  4.658334e-001 -8.848724e-001  0.000000e+000
    outer loop
      vertex  2.841885e+003  1.322944e+003  0.000000e+000
      vertex  2.841885e+003  1.322944e+003  2.850000e+003
      vertex  2.703847e+003  1.250276e+003  0.000000e+000
    endloop
  endfacet
  facet normal  4.658334e-001 -8.848724e-001  0.000000e+000
    outer loop
      vertex  2.703847e+003  1.250276e+003  0.000000e+000
      vertex  2.841885e+003  1.322944e+003  2.850000e+003
      vertex  2.703847e+003  1.250276e+003  2.850000e+003
    endloop
  endfacet
  facet normal  4.571387e-001 -8.893955e-001  0.000000e+000
    outer loop
      vertex  2.703847e+003  1.250276e+003  0.000000e+000
      vertex  2.703847e+003  1.250276e+003  2.850000e+003
      vertex  2.565170e+003  1.178998e+003  0.000000e+000
    endloop
  endfacet
  facet normal  4.571387e-001 -8.893955e-001  0.000000e+000
    outer loop
      vertex  2.565170e+003  1.178998e+003  0.000000e+000
      vertex  2.703847e+003  1.250276e+003  2.850000e+003
      vertex  2.565170e+003  1.178998e+003  2.850000e+003
    endloop
  endfacet
  facet normal  4.484237e-001 -8.938211e-001  0.000000e+000
    outer loop
      vertex  2.565170e+003  1.178998e+003  0.000000e+000
      vertex  2.565170e+003  1.178998e+003  2.850000e+003
      vertex  2.425858e+003  1.109106e+003  0.000000e+000
    endloop
  endfacet
  facet normal  4.484237e-001 -8.938211e-001  0.000000e+000
    outer loop
      vertex  2.425858e+003  1.109106e+003  0.000000e+000
      vertex  2.565170e+003  1.178998e+003  2.850000e+003
      vertex  2.425858e+003  1.109106e+003  2.850000e+003
    endloop
  endfacet
  facet normal  4.397121e-001 -8.981387e-001  0.000000e+000
    outer loop
      vertex  2.425858e+003  1.109106e+003  0.000000e+000
      vertex  2.425858e+003  1.109106e+003  2.850000e+003
      vertex  2.285914e+003  1.040591e+003  0.000000e+000
    endloop
  endfacet
  facet normal  4.397121e-001 -8.981387e-001  0.000000e+000
    outer loop
      vertex  2.285914e+003  1.040591e+003  0.000000e+000
      vertex  2.425858e+003  1.109106e+003  2.850000e+003
      vertex  2.285914e+003  1.040591e+003  2.850000e+003
    endloop
  endfacet
  facet normal  4.310358e-001 -9.023348e-001  0.000000e+000
    outer loop
      vertex  2.285914e+003  1.040591e+003  0.000000e+000
      vertex  2.285914e+003  1.040591e+003  2.850000e+003
      vertex  2.145345e+003  9.734432e+002  0.000000e+000
    endloop
  endfacet
  facet normal  4.310358e-001 -9.023348e-001  0.000000e+000
    outer loop
      vertex  2.145345e+003  9.734432e+002  0.000000e+000
      vertex  2.285914e+003  1.040591e+003  2.850000e+003
      vertex  2.145345e+003  9.734432e+002  2.850000e+003
    endloop
  endfacet
  facet normal  4.224264e-001 -9.063972e-001  0.000000e+000
    outer loop
      vertex  2.145345e+003  9.734432e+002  0.000000e+000
      vertex  2.145345e+003  9.734432e+002  2.850000e+003
      vertex  2.004161e+003  9.076443e+002  0.000000e+000
    endloop
  endfacet
  facet normal  4.224264e-001 -9.063972e-001  0.000000e+000
    outer loop
      vertex  2.004161e+003  9.076443e+002  0.000000e+000
      vertex  2.145345e+003  9.734432e+002  2.850000e+003
      vertex  2.004161e+003  9.076443e+002  2.850000e+003
    endloop
  endfacet
  facet normal  4.139253e-001 -9.103109e-001  0.000000e+000
    outer loop
      vertex  2.004161e+003  9.076443e+002  0.000000e+000
      vertex  2.004161e+003  9.076443e+002  2.850000e+003
      vertex  1.862374e+003  8.431727e+002  0.000000e+000
    endloop
  endfacet
  facet normal  4.139253e-001 -9.103109e-001  0.000000e+000
    outer loop
      vertex  1.862374e+003  8.431727e+002  0.000000e+000
      vertex  2.004161e+003  9.076443e+002  2.850000e+003
      vertex  1.862374e+003  8.431727e+002  2.850000e+003
    endloop
  endfacet
  facet normal  4.055784e-001 -9.140602e-001  0.000000e+000
    outer loop
      vertex  1.862374e+003  8.431727e+002  0.000000e+000
      vertex  1.862374e+003  8.431727e+002  2.850000e+003
      vertex  1.720000e+003  7.800000e+002  0.000000e+000
    endloop
  endfacet
  facet normal  4.055784e-001 -9.140602e-001  0.000000e+000
    outer loop
      vertex  1.720000e+003  7.800000e+002  0.000000e+000
      vertex  1.862374e+003  8.431727e+002  2.850000e+003
      vertex  1.720000e+003  7.800000e+002  2.850000e+003
    endloop
  endfacet
  facet normal  3.978844e-001 -9.174356e-001  0.000000e+000
    outer loop
      vertex  1.720000e+003  7.800000e+002  0.000000e+000
      vertex  1.720000e+003  7.800000e+002  2.850000e+003
      vertex  1.593137e+003  7.249805e+002  0.000000e+000
    endloop
  endfacet
  facet normal  3.978844e-001 -9.174356e-001  0.000000e+000
    outer loop
      vertex  1.593137e+003  7.249805e+002  0.000000e+000
      vertex  1.720000e+003  7.800000e+002  2.850000e+003
      vertex  1.593137e+003  7.249805e+002  2.850000e+003
    endloop
  endfacet
  facet normal  3.908577e-001 -9.204512e-001  0.000000e+000
    outer loop
      vertex  1.593137e+003  7.249805e+002  0.000000e+000
      vertex  1.593137e+003  7.249805e+002  2.850000e+003
      vertex  1.465844e+003  6.709274e+002  0.000000e+000
    endloop
  endfacet
  facet normal  3.908577e-001 -9.204512e-001  0.000000e+000
    outer loop
      vertex  1.465844e+003  6.709274e+002  0.000000e+000
      vertex  1.593137e+003  7.249805e+002  2.850000e+003
      vertex  1.465844e+003  6.709274e+002  2.850000e+003
    endloop
  endfacet
  facet normal  3.840661e-001 -9.233056e-001  0.000000e+000
    outer loop
      vertex  1.465844e+003  6.709274e+002  0.000000e+000
      vertex  1.465844e+003  6.709274e+002  2.850000e+003
      vertex  1.338141e+003  6.178069e+002  0.000000e+000
    endloop
  endfacet
  facet normal  3.840661e-001 -9.233056e-001  0.000000e+000
    outer loop
      vertex  1.338141e+003  6.178069e+002  0.000000e+000
      vertex  1.465844e+003  6.709274e+002  2.850000e+003
      vertex  1.338141e+003  6.178069e+002  2.850000e+003
    endloop
  endfacet
  facet normal  3.775387e-001 -9.259939e-001  0.000000e+000
    outer loop
      vertex  1.338141e+003  6.178069e+002  0.000000e+000
      vertex  1.338141e+003  6.178069e+002  2.850000e+003
      vertex  1.210049e+003  5.655820e+002  0.000000e+000
    endloop
  endfacet
  facet normal  3.775387e-001 -9.259939e-001  0.000000e+000
    outer loop
      vertex  1.210049e+003  5.655820e+002  0.000000e+000
      vertex  1.338141e+003  6.178069e+002  2.850000e+003
      vertex  1.210049e+003  5.655820e+002  2.850000e+003
    endloop
  endfacet
  facet normal  3.723098e-001 -9.281086e-001  0.000000e+000
    outer loop
      vertex  1.210049e+003  5.655820e+002  0.000000e+000
      vertex  1.210049e+003  5.655820e+002  2.850000e+003
      vertex  1.124448e+003  5.312436e+002  0.000000e+000
    endloop
  endfacet
  facet normal  3.723098e-001 -9.281086e-001  0.000000e+000
    outer loop
      vertex  1.124448e+003  5.312436e+002  0.000000e+000
      vertex  1.210049e+003  5.655820e+002  2.850000e+003
      vertex  1.124448e+003  5.312436e+002  2.850000e+003
    endloop
  endfacet
  facet normal  3.682814e-001 -9.297144e-001  0.000000e+000
    outer loop
      vertex  1.124448e+003  5.312436e+002  0.000000e+000
      vertex  1.124448e+003  5.312436e+002  2.850000e+003
      vertex  1.038692e+003  4.972735e+002  0.000000e+000
    endloop
  endfacet
  facet normal  3.682814e-001 -9.297144e-001  0.000000e+000
    outer loop
      vertex  1.038692e+003  4.972735e+002  0.000000e+000
      vertex  1.124448e+003  5.312436e+002  2.850000e+003
      vertex  1.038692e+003  4.972735e+002  2.850000e+003
    endloop
  endfacet
  facet normal  3.625164e-001 -9.319773e-001  0.000000e+000
    outer loop
      vertex  1.038692e+003  4.972735e+002  0.000000e+000
      vertex  1.038692e+003  4.972735e+002  2.850000e+003
      vertex  8.667393e+002  4.303881e+002  0.000000e+000
    endloop
  endfacet
  facet normal  3.625164e-001 -9.319773e-001  0.000000e+000
    outer loop
      vertex  8.667393e+002  4.303881e+002  0.000000e+000
      vertex  1.038692e+003  4.972735e+002  2.850000e+003
      vertex  8.667393e+002  4.303881e+002  2.850000e+003
    endloop
  endfacet
  facet normal  3.558695e-001 -9.345356e-001  0.000000e+000
    outer loop
      vertex  8.667393e+002  4.303881e+002  0.000000e+000
      vertex  8.667393e+002  4.303881e+002  2.850000e+003
      vertex  7.230316e+002  3.756644e+002  0.000000e+000
    endloop
  endfacet
  facet normal  3.558695e-001 -9.345356e-001  0.000000e+000
    outer loop
      vertex  7.230316e+002  3.756644e+002  0.000000e+000
      vertex  8.667393e+002  4.303881e+002  2.850000e+003
      vertex  7.230316e+002  3.756644e+002  2.850000e+003
    endloop
  endfacet
  facet normal  3.502439e-001 -9.366586e-001  0.000000e+000
    outer loop
      vertex  7.230316e+002  3.756644e+002  0.000000e+000
      vertex  7.230316e+002  3.756644e+002  2.850000e+003
      vertex  5.789832e+002  3.218005e+002  0.000000e+000
    endloop
  endfacet
  facet normal  3.502439e-001 -9.366586e-001  0.000000e+000
    outer loop
      vertex  5.789832e+002  3.218005e+002  0.000000e+000
      vertex  7.230316e+002  3.756644e+002  2.850000e+003
      vertex  5.789832e+002  3.218005e+002  2.850000e+003
    endloop
  endfacet
  facet normal  3.450001e-001 -9.386027e-001  0.000000e+000
    outer loop
      vertex  5.789832e+002  3.218005e+002  0.000000e+000
      vertex  5.789832e+002  3.218005e+002  2.850000e+003
      vertex  4.346264e+002  2.687396e+002  0.000000e+000
    endloop
  endfacet
  facet normal  3.450001e-001 -9.386027e-001  0.000000e+000
    outer loop
      vertex  4.346264e+002  2.687396e+002  0.000000e+000
      vertex  5.789832e+002  3.218005e+002  2.850000e+003
      vertex  4.346264e+002  2.687396e+002  2.850000e+003
    endloop
  endfacet
  facet normal  3.407873e-001 -9.401405e-001  0.000000e+000
    outer loop
      vertex  4.346264e+002  2.687396e+002  0.000000e+000
      vertex  4.346264e+002  2.687396e+002  2.850000e+003
      vertex  3.312647e+002  2.312725e+002  0.000000e+000
    endloop
  endfacet
  facet normal  3.407873e-001 -9.401405e-001  0.000000e+000
    outer loop
      vertex  3.312647e+002  2.312725e+002  0.000000e+000
      vertex  4.346264e+002  2.687396e+002  2.850000e+003
      vertex  3.312647e+002  2.312725e+002  2.850000e+003
    endloop
  endfacet
  facet normal  3.374747e-001 -9.413347e-001  0.000000e+000
    outer loop
      vertex  3.312647e+002  2.312725e+002  0.000000e+000
      vertex  3.312647e+002  2.312725e+002  2.850000e+003
      vertex  2.277717e+002  1.941696e+002  0.000000e+000
    endloop
  endfacet
  facet normal  3.374747e-001 -9.413347e-001  0.000000e+000
    outer loop
      vertex  2.277717e+002  1.941696e+002  0.000000e+000
      vertex  3.312647e+002  2.312725e+002  2.850000e+003
      vertex  2.277717e+002  1.941696e+002  2.850000e+003
    endloop
  endfacet
  facet normal  3.341741e-001 -9.425114e-001  0.000000e+000
    outer loop
      vertex  2.277717e+002  1.941696e+002  0.000000e+000
      vertex  2.277717e+002  1.941696e+002  2.850000e+003
      vertex  1.139534e+002  1.538145e+002  0.000000e+000
    endloop
  endfacet
  facet normal  3.341741e-001 -9.425114e-001  0.000000e+000
    outer loop
      vertex  1.139534e+002  1.538145e+002  0.000000e+000
      vertex  2.277717e+002  1.941696e+002  2.850000e+003
      vertex  1.139534e+002  1.538145e+002  2.850000e+003
    endloop
  endfacet
  facet normal  3.308901e-001 -9.436693e-001  0.000000e+000
    outer loop
      vertex  1.139534e+002  1.538145e+002  0.000000e+000
      vertex  1.139534e+002  1.538145e+002  2.850000e+003
      vertex  1.136868e-013  1.138577e+002  0.000000e+000
    endloop
  endfacet
  facet normal  3.308901e-001 -9.436693e-001  0.000000e+000
    outer loop
      vertex  1.136868e-013  1.138577e+002  0.000000e+000
      vertex  1.139534e+002  1.538145e+002  2.850000e+003
      vertex  1.136868e-013  1.138577e+002  2.850000e+003
    endloop
  endfacet
  facet normal  3.270841e-001 -9.449952e-001  0.000000e+000
    outer loop
      vertex  1.136868e-013  1.138577e+002  0.000000e+000
      vertex  1.136868e-013  1.138577e+002  2.850000e+003
      vertex -1.651677e+002  5.668939e+001  0.000000e+000
    endloop
  endfacet
  facet normal  3.270841e-001 -9.449952e-001  0.000000e+000
    outer loop
      vertex -1.651677e+002  5.668939e+001  0.000000e+000
      vertex  1.136868e-013  1.138577e+002  2.850000e+003
      vertex -1.651677e+002  5.668939e+001  2.850000e+003
    endloop
  endfacet
  facet normal  3.228091e-001 -9.464641e-001  0.000000e+000
    outer loop
      vertex -1.651677e+002  5.668939e+001  0.000000e+000
      vertex -1.651677e+002  5.668939e+001  2.850000e+003
      vertex -3.305725e+002  2.750335e-001  0.000000e+000
    endloop
  endfacet
  facet normal  3.228091e-001 -9.464641e-001  0.000000e+000
    outer loop
      vertex -3.305725e+002  2.750335e-001  0.000000e+000
      vertex -1.651677e+002  5.668939e+001  2.850000e+003
      vertex -3.305725e+002  2.750335e-001  2.850000e+003
    endloop
  endfacet
  facet normal  3.187236e-001 -9.478477e-001  0.000000e+000
    outer loop
      vertex -3.305725e+002  2.750335e-001  0.000000e+000
      vertex -3.305725e+002  2.750335e-001  2.850000e+003
      vertex -4.961960e+002 -5.541759e+001  0.000000e+000
    endloop
  endfacet
  facet normal  3.187236e-001 -9.478477e-001  0.000000e+000
    outer loop
      vertex -4.961960e+002 -5.541759e+001  0.000000e+000
      vertex -3.305725e+002  2.750335e-001  2.850000e+003
      vertex -4.961960e+002 -5.541759e+001  2.850000e+003
    endloop
  endfacet
  facet normal  3.152559e-001 -9.490066e-001  0.000000e+000
    outer loop
      vertex -4.961960e+002 -5.541759e+001  0.000000e+000
      vertex -4.961960e+002 -5.541759e+001  2.850000e+003
      vertex -6.205493e+002 -9.672723e+001  0.000000e+000
    endloop
  endfacet
  facet normal  3.152559e-001 -9.490066e-001  0.000000e+000
    outer loop
      vertex -6.205493e+002 -9.672723e+001  0.000000e+000
      vertex -4.961960e+002 -5.541759e+001  2.850000e+003
      vertex -6.205493e+002 -9.672723e+001  2.850000e+003
    endloop
  endfacet
  facet normal  3.123395e-001 -9.499705e-001  0.000000e+000
    outer loop
      vertex -6.205493e+002 -9.672723e+001  0.000000e+000
      vertex -6.205493e+002 -9.672723e+001  2.850000e+003
      vertex -7.450148e+002 -1.376501e+002  0.000000e+000
    endloop
  endfacet
  facet normal  3.123395e-001 -9.499705e-001  0.000000e+000
    outer loop
      vertex -7.450148e+002 -1.376501e+002  0.000000e+000
      vertex -6.205493e+002 -9.672723e+001  2.850000e+003
      vertex -7.450148e+002 -1.376501e+002  2.850000e+003
    endloop
  endfacet
  facet normal  3.080225e-001 -9.513791e-001  0.000000e+000
    outer loop
      vertex -7.450148e+002 -1.376501e+002  0.000000e+000
      vertex -7.450148e+002 -1.376501e+002  2.850000e+003
      vertex -9.942732e+002 -2.183510e+002  0.000000e+000
    endloop
  endfacet
  facet normal  3.080225e-001 -9.513791e-001  0.000000e+000
    outer loop
      vertex -9.942732e+002 -2.183510e+002  0.000000e+000
      vertex -7.450148e+002 -1.376501e+002  2.850000e+003
      vertex -9.942732e+002 -2.183510e+002  2.850000e+003
    endloop
  endfacet
  facet normal  3.023017e-001 -9.532123e-001  0.000000e+000
    outer loop
      vertex -9.942732e+002 -2.183510e+002  0.000000e+000
      vertex -9.942732e+002 -2.183510e+002  2.850000e+003
      vertex -1.243962e+003 -2.975372e+002  0.000000e+000
    endloop
  endfacet
  facet normal  3.023017e-001 -9.532123e-001  0.000000e+000
    outer loop
      vertex -1.243962e+003 -2.975372e+002  0.000000e+000
      vertex -9.942732e+002 -2.183510e+002  2.850000e+003
      vertex -1.243962e+003 -2.975372e+002  2.850000e+003
    endloop
  endfacet
endsolid CATIA STL
