solid NW complete panelisation - 13 Apr 2012
   facet normal 3.605388e-005 -3.458110e-006 1.000000e+000
      outer loop
         vertex 2.854388e+002 6.137175e+002 2.487071e-002
         vertex 2.851389e+002 6.064901e+002 2.598806e-002
         vertex 9.897684e+002 6.113734e+002 5.182571e-004
      endloop
   endfacet
   facet normal 3.602181e-005 -3.992404e-006 1.000000e+000
      outer loop
         vertex 9.897684e+002 6.113734e+002 5.182571e-004
         vertex 2.851389e+002 6.064901e+002 2.598806e-002
         vertex 2.849350e+002 6.023108e+002 2.506873e-002
      endloop
   endfacet
   facet normal 3.591436e-005 -2.102102e-006 1.000000e+000
      outer loop
         vertex 9.897684e+002 6.113734e+002 5.182571e-004
         vertex 2.849350e+002 6.023108e+002 2.506873e-002
         vertex 9.897703e+002 5.916534e+002 -1.428386e-004
      endloop
   endfacet
   facet normal 3.598198e-005 -4.340178e-006 1.000000e+000
      outer loop
         vertex 9.897703e+002 5.916534e+002 -1.428386e-004
         vertex 2.849350e+002 6.023108e+002 2.506873e-002
         vertex 2.847828e+002 5.992656e+002 2.540421e-002
      endloop
   endfacet
   facet normal 3.590166e-005 -4.795808e-006 1.000000e+000
      outer loop
         vertex 9.897703e+002 5.916534e+002 -1.428386e-004
         vertex 2.847828e+002 5.992656e+002 2.540421e-002
         vertex 2.843671e+002 5.920464e+002 2.541562e-002
      endloop
   endfacet
   facet normal 3.588612e-005 -5.516270e-006 1.000000e+000
      outer loop
         vertex 2.843671e+002 5.920464e+002 2.541562e-002
         vertex 2.838915e+002 5.848319e+002 2.499929e-002
         vertex 9.897703e+002 5.916534e+002 -1.428386e-004
      endloop
   endfacet
   facet normal 3.583819e-005 -6.104315e-006 1.000000e+000
      outer loop
         vertex 9.897703e+002 5.916534e+002 -1.428386e-004
         vertex 2.838915e+002 5.848319e+002 2.499929e-002
         vertex 2.835545e+002 5.803007e+002 2.458927e-002
      endloop
   endfacet
   facet normal 3.564313e-005 -3.149828e-006 1.000000e+000
      outer loop
         vertex 9.897703e+002 5.916534e+002 -1.428386e-004
         vertex 2.835545e+002 5.803007e+002 2.458927e-002
         vertex 9.897684e+002 5.719333e+002 3.687109e-004
      endloop
   endfacet
   facet normal 3.569985e-005 -6.401578e-006 1.000000e+000
      outer loop
         vertex 9.897684e+002 5.719333e+002 3.687109e-004
         vertex 2.835545e+002 5.803007e+002 2.458927e-002
         vertex 2.833524e+002 5.776219e+002 2.553262e-002
      endloop
   endfacet
   facet normal 3.567374e-005 -6.882349e-006 1.000000e+000
      outer loop
         vertex 9.897684e+002 5.719333e+002 3.687109e-004
         vertex 2.833524e+002 5.776219e+002 2.553262e-002
         vertex 2.827573e+002 5.704153e+002 2.528537e-002
      endloop
   endfacet
   facet normal 3.435148e-005 -1.374680e-005 1.000000e+000
      outer loop
         vertex 2.747102e+002 5.058379e+002 2.412729e-002
         vertex 2.735170e+002 4.987048e+002 2.490520e-002
         vertex 9.897704e+002 5.127740e+002 -3.319143e-005
      endloop
   endfacet
   facet normal 3.426602e-005 -1.441594e-005 1.000000e+000
      outer loop
         vertex 9.897704e+002 5.127740e+002 -3.319143e-005
         vertex 2.735170e+002 4.987048e+002 2.490520e-002
         vertex 2.724866e+002 4.928204e+002 2.386016e-002
      endloop
   endfacet
   facet normal 3.377853e-005 -7.363073e-006 1.000000e+000
      outer loop
         vertex 9.897704e+002 5.127740e+002 -3.319143e-005
         vertex 2.724866e+002 4.928204e+002 2.386016e-002
         vertex 9.897686e+002 4.930539e+002 3.759775e-004
      endloop
   endfacet
   facet normal 3.398173e-005 -1.474401e-005 1.000000e+000
      outer loop
         vertex 9.897686e+002 4.930539e+002 3.759775e-004
         vertex 2.724866e+002 4.928204e+002 2.386016e-002
         vertex 2.722675e+002 4.915806e+002 2.459150e-002
      endloop
   endfacet
   facet normal 3.389463e-005 -1.509318e-005 1.000000e+000
      outer loop
         vertex 9.897686e+002 4.930539e+002 3.759775e-004
         vertex 2.722675e+002 4.915806e+002 2.459150e-002
         vertex 2.709581e+002 4.844663e+002 2.425565e-002
      endloop
   endfacet
   facet normal 3.484948e-005 -1.170591e-005 1.000000e+000
      outer loop
         vertex 2.779275e+002 5.272891e+002 2.447612e-002
         vertex 2.769136e+002 5.201290e+002 2.439747e-002
         vertex 9.897686e+002 5.324941e+002 5.255237e-004
      endloop
   endfacet
   facet normal 3.477295e-005 -1.229476e-005 1.000000e+000
      outer loop
         vertex 9.897686e+002 5.324941e+002 5.255237e-004
         vertex 2.769136e+002 5.201290e+002 2.439747e-002
         vertex 2.760809e+002 5.145788e+002 2.456397e-002
      endloop
   endfacet
   facet normal 3.433174e-005 -6.253954e-006 1.000000e+000
      outer loop
         vertex 9.897686e+002 5.324941e+002 5.255237e-004
         vertex 2.760809e+002 5.145788e+002 2.456397e-002
         vertex 9.897704e+002 5.127740e+002 -3.319143e-005
      endloop
   endfacet
   facet normal 3.452419e-005 -1.264856e-005 1.000000e+000
      outer loop
         vertex 9.897704e+002 5.127740e+002 -3.319143e-005
         vertex 2.760809e+002 5.145788e+002 2.456397e-002
         vertex 2.758400e+002 5.129796e+002 2.470542e-002
      endloop
   endfacet
   facet normal 3.447841e-005 -1.304986e-005 1.000000e+000
      outer loop
         vertex 9.897704e+002 5.127740e+002 -3.319143e-005
         vertex 2.758400e+002 5.129796e+002 2.470542e-002
         vertex 2.747102e+002 5.058379e+002 2.412729e-002
      endloop
   endfacet
   facet normal 3.522037e-005 -9.615318e-006 1.000000e+000
      outer loop
         vertex 2.806097e+002 5.488218e+002 2.509581e-002
         vertex 2.797755e+002 5.416365e+002 2.497808e-002
         vertex 9.897704e+002 5.522142e+002 1.163548e-004
      endloop
   endfacet
   facet normal 3.521674e-005 -1.022873e-005 1.000000e+000
      outer loop
         vertex 9.897704e+002 5.522142e+002 1.163548e-004
         vertex 2.797755e+002 5.416365e+002 2.497808e-002
         vertex 2.791241e+002 5.364209e+002 2.511019e-002
      endloop
   endfacet
   facet normal 3.487603e-005 -5.225119e-006 1.000000e+000
      outer loop
         vertex 9.897704e+002 5.522142e+002 1.163548e-004
         vertex 2.791241e+002 5.364209e+002 2.511019e-002
         vertex 9.897686e+002 5.324941e+002 5.255237e-004
      endloop
   endfacet
   facet normal 3.499657e-005 -1.058172e-005 1.000000e+000
      outer loop
         vertex 9.897686e+002 5.324941e+002 5.255237e-004
         vertex 2.791241e+002 5.364209e+002 2.511019e-002
         vertex 2.788813e+002 5.344580e+002 2.443103e-002
      endloop
   endfacet
   facet normal 3.494484e-005 -1.103654e-005 1.000000e+000
      outer loop
         vertex 9.897686e+002 5.324941e+002 5.255237e-004
         vertex 2.788813e+002 5.344580e+002 2.443103e-002
         vertex 2.779275e+002 5.272891e+002 2.447612e-002
      endloop
   endfacet
   facet normal 3.560697e-005 -7.550907e-006 1.000000e+000
      outer loop
         vertex 2.827573e+002 5.704153e+002 2.528537e-002
         vertex 2.821024e+002 5.632123e+002 2.481593e-002
         vertex 9.897684e+002 5.719333e+002 3.687109e-004
      endloop
   endfacet
   facet normal 3.558168e-005 -8.191666e-006 1.000000e+000
      outer loop
         vertex 9.897684e+002 5.719333e+002 3.687109e-004
         vertex 2.821024e+002 5.632123e+002 2.481593e-002
         vertex 2.816165e+002 5.583331e+002 2.499710e-002
      endloop
   endfacet
   facet normal 3.532463e-005 -4.198944e-006 1.000000e+000
      outer loop
         vertex 9.897684e+002 5.719333e+002 3.687109e-004
         vertex 2.816165e+002 5.583331e+002 2.499710e-002
         vertex 9.897704e+002 5.522142e+002 1.163548e-004
      endloop
   endfacet
   facet normal 3.538615e-005 -8.490549e-006 1.000000e+000
      outer loop
         vertex 9.897704e+002 5.522142e+002 1.163548e-004
         vertex 2.816165e+002 5.583331e+002 2.499710e-002
         vertex 2.813841e+002 5.560137e+002 2.529614e-002
      endloop
   endfacet
   facet normal 3.533441e-005 -8.945368e-006 1.000000e+000
      outer loop
         vertex 9.897704e+002 5.522142e+002 1.163548e-004
         vertex 2.813841e+002 5.560137e+002 2.529614e-002
         vertex 2.806097e+002 5.488218e+002 2.509581e-002
      endloop
   endfacet
   facet normal 3.059409e-005 -1.150736e-005 1.000000e+000
      outer loop
         vertex 9.897706e+002 4.338946e+002 -2.592490e-005
         vertex 2.526432e+002 4.069039e+002 2.285134e-002
         vertex 9.897687e+002 4.141745e+002 3.832440e-004
      endloop
   endfacet
   facet normal 3.092576e-005 -2.325798e-005 1.000000e+000
      outer loop
         vertex 9.897687e+002 4.141745e+002 3.832440e-004
         vertex 2.526432e+002 4.069039e+002 2.285134e-002
         vertex 2.506805e+002 4.001170e+002 2.268713e-002
      endloop
   endfacet
   facet normal 3.070031e-005 -2.390441e-005 1.000000e+000
      outer loop
         vertex 9.897687e+002 4.141745e+002 3.832440e-004
         vertex 2.506805e+002 4.001170e+002 2.268713e-002
         vertex 2.486144e+002 3.931857e+002 2.225431e-002
      endloop
   endfacet
   facet normal 3.160443e-005 -2.187859e-005 1.000000e+000
      outer loop
         vertex 2.565375e+002 4.210144e+002 2.276773e-002
         vertex 2.546439e+002 4.140329e+002 2.271468e-002
         vertex 9.897706e+002 4.338946e+002 -2.592490e-005
      endloop
   endfacet
   facet normal 3.140162e-005 -2.257773e-005 1.000000e+000
      outer loop
         vertex 9.897706e+002 4.338946e+002 -2.592490e-005
         vertex 2.546439e+002 4.140329e+002 2.271468e-002
         vertex 2.526903e+002 4.070665e+002 2.284033e-002
      endloop
   endfacet
   facet normal 3.134311e-005 -2.292609e-005 1.000000e+000
      outer loop
         vertex 9.897706e+002 4.338946e+002 -2.592490e-005
         vertex 2.526903e+002 4.070665e+002 2.284033e-002
         vertex 2.526432e+002 4.069039e+002 2.285134e-002
      endloop
   endfacet
   facet normal 3.237549e-005 -1.985660e-005 1.000000e+000
      outer loop
         vertex 2.618700e+002 4.420471e+002 2.386054e-002
         vertex 2.601524e+002 4.350230e+002 2.311150e-002
         vertex 9.897687e+002 4.536146e+002 6.351708e-004
      endloop
   endfacet
   facet normal 3.221996e-005 -2.055435e-005 1.000000e+000
      outer loop
         vertex 9.897687e+002 4.536146e+002 6.351708e-004
         vertex 2.601524e+002 4.350230e+002 2.311150e-002
         vertex 2.584178e+002 4.281883e+002 2.338704e-002
      endloop
   endfacet
   facet normal 3.146764e-005 -1.041574e-005 1.000000e+000
      outer loop
         vertex 9.897687e+002 4.536146e+002 6.351708e-004
         vertex 2.584178e+002 4.281883e+002 2.338704e-002
         vertex 9.897706e+002 4.338946e+002 -2.592490e-005
      endloop
   endfacet
   facet normal 3.185384e-005 -2.093814e-005 1.000000e+000
      outer loop
         vertex 9.897706e+002 4.338946e+002 -2.592490e-005
         vertex 2.584178e+002 4.281883e+002 2.338704e-002
         vertex 2.583749e+002 4.280117e+002 2.274749e-002
      endloop
   endfacet
   facet normal 3.175698e-005 -2.120760e-005 1.000000e+000
      outer loop
         vertex 9.897706e+002 4.338946e+002 -2.592490e-005
         vertex 2.583749e+002 4.280117e+002 2.274749e-002
         vertex 2.565375e+002 4.210144e+002 2.276773e-002
      endloop
   endfacet
   facet normal 2.859373e-005 -2.857792e-005 1.000000e+000
      outer loop
         vertex 2.350147e+002 3.519806e+002 2.061323e-002
         vertex 2.325476e+002 3.451815e+002 2.117791e-002
         vertex 9.897688e+002 3.747344e+002 2.336978e-004
      endloop
   endfacet
   facet normal 2.847208e-005 -2.898142e-005 1.000000e+000
      outer loop
         vertex 9.897688e+002 3.747344e+002 2.336978e-004
         vertex 2.325476e+002 3.451815e+002 2.117791e-002
         vertex 2.321190e+002 3.440240e+002 2.059630e-002
      endloop
   endfacet
   facet normal 2.744236e-005 -1.453070e-005 1.000000e+000
      outer loop
         vertex 9.897688e+002 3.747344e+002 2.336978e-004
         vertex 2.321190e+002 3.440240e+002 2.059630e-002
         vertex 9.897707e+002 3.550153e+002 -1.865837e-005
      endloop
   endfacet
   facet normal 2.795323e-005 -2.928956e-005 1.000000e+000
      outer loop
         vertex 9.897707e+002 3.550153e+002 -1.865837e-005
         vertex 2.321190e+002 3.440240e+002 2.059630e-002
         vertex 2.300278e+002 3.384038e+002 2.039035e-002
      endloop
   endfacet
   facet normal 2.775936e-005 -2.990842e-005 1.000000e+000
      outer loop
         vertex 9.897707e+002 3.550153e+002 -1.865837e-005
         vertex 2.300278e+002 3.384038e+002 2.039035e-002
         vertex 2.274518e+002 3.316492e+002 2.003591e-002
      endloop
   endfacet
   facet normal 2.753093e-005 -3.058161e-005 1.000000e+000
      outer loop
         vertex 2.274518e+002 3.316492e+002 2.003591e-002
         vertex 2.248195e+002 3.249177e+002 1.980745e-002
         vertex 9.897707e+002 3.550153e+002 -1.865837e-005
      endloop
   endfacet
   facet normal 2.733936e-005 -3.093378e-005 1.000000e+000
      outer loop
         vertex 9.897707e+002 3.550153e+002 -1.865837e-005
         vertex 2.248195e+002 3.249177e+002 1.980745e-002
         vertex 2.242254e+002 3.234313e+002 1.937606e-002
      endloop
   endfacet
   facet normal 2.626038e-005 -1.549777e-005 1.000000e+000
      outer loop
         vertex 9.897707e+002 3.550153e+002 -1.865837e-005
         vertex 2.242254e+002 3.234313e+002 1.937606e-002
         vertex 9.897689e+002 3.352951e+002 4.928912e-004
      endloop
   endfacet
   facet normal 2.683622e-005 -3.126811e-005 1.000000e+000
      outer loop
         vertex 9.897689e+002 3.352951e+002 4.928912e-004
         vertex 2.242254e+002 3.234313e+002 1.937606e-002
         vertex 2.221311e+002 3.182103e+002 2.021610e-002
      endloop
   endfacet
   facet normal 2.662366e-005 -3.188755e-005 1.000000e+000
      outer loop
         vertex 9.897689e+002 3.352951e+002 4.928912e-004
         vertex 2.221311e+002 3.182103e+002 2.021610e-002
         vertex 2.193900e+002 3.115222e+002 1.906931e-002
      endloop
   endfacet
   facet normal 2.959636e-005 -2.660261e-005 1.000000e+000
      outer loop
         vertex 2.420714e+002 3.725009e+002 2.152022e-002
         vertex 2.397767e+002 3.656417e+002 2.114155e-002
         vertex 9.897706e+002 3.944545e+002 -1.754711e-004
      endloop
   endfacet
   facet normal 2.947769e-005 -2.697935e-005 1.000000e+000
      outer loop
         vertex 9.897706e+002 3.944545e+002 -1.754711e-004
         vertex 2.397767e+002 3.656417e+002 2.114155e-002
         vertex 2.394902e+002 3.648090e+002 2.130745e-002
      endloop
   endfacet
   facet normal 2.852582e-005 -1.351311e-005 1.000000e+000
      outer loop
         vertex 9.897706e+002 3.944545e+002 -1.754711e-004
         vertex 2.394902e+002 3.648090e+002 2.130745e-002
         vertex 9.897688e+002 3.747344e+002 2.336978e-004
      endloop
   endfacet
   facet normal 2.898744e-005 -2.728668e-005 1.000000e+000
      outer loop
         vertex 9.897688e+002 3.747344e+002 2.336978e-004
         vertex 2.394902e+002 3.648090e+002 2.130745e-002
         vertex 2.374220e+002 3.588015e+002 2.165511e-002
      endloop
   endfacet
   facet normal 2.879356e-005 -2.790554e-005 1.000000e+000
      outer loop
         vertex 9.897688e+002 3.747344e+002 2.336978e-004
         vertex 2.374220e+002 3.588015e+002 2.165511e-002
         vertex 2.350147e+002 3.519806e+002 2.061323e-002
      endloop
   endfacet
   facet normal 3.055767e-005 -2.457517e-005 1.000000e+000
      outer loop
         vertex 2.486144e+002 3.931857e+002 2.225431e-002
         vertex 2.464921e+002 3.862733e+002 2.174584e-002
         vertex 9.897687e+002 4.141745e+002 3.832440e-004
      endloop
   endfacet
   facet normal 3.045470e-005 -2.497809e-005 1.000000e+000
      outer loop
         vertex 9.897687e+002 4.141745e+002 3.832440e-004
         vertex 2.464921e+002 3.862733e+002 2.174584e-002
         vertex 2.463315e+002 3.857728e+002 2.212451e-002
      endloop
   endfacet
   facet normal 2.962798e-005 -1.249494e-005 1.000000e+000
      outer loop
         vertex 9.897687e+002 4.141745e+002 3.832440e-004
         vertex 2.463315e+002 3.857728e+002 2.212451e-002
         vertex 9.897706e+002 3.944545e+002 -1.754711e-004
      endloop
   endfacet
   facet normal 2.999305e-005 -2.528461e-005 1.000000e+000
      outer loop
         vertex 9.897706e+002 3.944545e+002 -1.754711e-004
         vertex 2.463315e+002 3.857728e+002 2.212451e-002
         vertex 2.443099e+002 3.793782e+002 2.161928e-002
      endloop
   endfacet
   facet normal 2.982479e-005 -2.592942e-005 1.000000e+000
      outer loop
         vertex 9.897706e+002 3.944545e+002 -1.754711e-004
         vertex 2.443099e+002 3.793782e+002 2.161928e-002
         vertex 2.420714e+002 3.725009e+002 2.152022e-002
      endloop
   endfacet
   facet normal 3.376472e-005 -1.581688e-005 1.000000e+000
      outer loop
         vertex 2.709581e+002 4.844663e+002 2.425565e-002
         vertex 2.695889e+002 4.773636e+002 2.451038e-002
         vertex 9.897686e+002 4.930539e+002 3.759775e-004
      endloop
   endfacet
   facet normal 3.362505e-005 -1.646088e-005 1.000000e+000
      outer loop
         vertex 9.897686e+002 4.930539e+002 3.759775e-004
         vertex 2.695889e+002 4.773636e+002 2.451038e-002
         vertex 2.683412e+002 4.711601e+002 2.411400e-002
      endloop
   endfacet
   facet normal 3.309538e-005 -8.369319e-006 1.000000e+000
      outer loop
         vertex 9.897686e+002 4.930539e+002 3.759775e-004
         vertex 2.683412e+002 4.711601e+002 2.411400e-002
         vertex 9.897704e+002 4.733339e+002 -2.851183e-004
      endloop
   endfacet
   facet normal 3.335067e-005 -1.678872e-005 1.000000e+000
      outer loop
         vertex 9.897704e+002 4.733339e+002 -2.851183e-004
         vertex 2.683412e+002 4.711601e+002 2.411400e-002
         vertex 2.681635e+002 4.702729e+002 2.397828e-002
      endloop
   endfacet
   facet normal 3.326059e-005 -1.716465e-005 1.000000e+000
      outer loop
         vertex 9.897704e+002 4.733339e+002 -2.851183e-004
         vertex 2.681635e+002 4.702729e+002 2.397828e-002
         vertex 2.666781e+002 4.631952e+002 2.362645e-002
      endloop
   endfacet
   facet normal 3.310506e-005 -1.786240e-005 1.000000e+000
      outer loop
         vertex 2.666781e+002 4.631952e+002 2.362645e-002
         vertex 2.651328e+002 4.561313e+002 2.376125e-002
         vertex 9.897704e+002 4.733339e+002 -2.851183e-004
      endloop
   endfacet
   facet normal 3.293680e-005 -1.850721e-005 1.000000e+000
      outer loop
         vertex 9.897704e+002 4.733339e+002 -2.851183e-004
         vertex 2.651328e+002 4.561313e+002 2.376125e-002
         vertex 2.636516e+002 4.496115e+002 2.368667e-002
      endloop
   endfacet
   facet normal 3.232928e-005 -9.431166e-006 1.000000e+000
      outer loop
         vertex 9.897704e+002 4.733339e+002 -2.851183e-004
         vertex 2.636516e+002 4.496115e+002 2.368667e-002
         vertex 9.897687e+002 4.536146e+002 6.351708e-004
      endloop
   endfacet
   facet normal 3.263383e-005 -1.883586e-005 1.000000e+000
      outer loop
         vertex 9.897687e+002 4.536146e+002 6.351708e-004
         vertex 2.636516e+002 4.496115e+002 2.368667e-002
         vertex 2.635314e+002 4.490833e+002 2.372036e-002
      endloop
   endfacet
   facet normal 3.251813e-005 -1.918584e-005 1.000000e+000
      outer loop
         vertex 9.897687e+002 4.536146e+002 6.351708e-004
         vertex 2.635314e+002 4.490833e+002 2.372036e-002
         vertex 2.618700e+002 4.420471e+002 2.386054e-002
      endloop
   endfacet
   facet normal 2.265990e-005 -3.837403e-005 1.000000e+000
      outer loop
         vertex 1.922080e+002 2.523704e+002 1.715337e-002
         vertex 1.889193e+002 2.459298e+002 1.665851e-002
         vertex 9.897708e+002 2.761350e+002 -4.201314e-004
      endloop
   endfacet
   facet normal 2.243676e-005 -3.875378e-005 1.000000e+000
      outer loop
         vertex 9.897708e+002 2.761350e+002 -4.201314e-004
         vertex 1.889193e+002 2.459298e+002 1.665851e-002
         vertex 1.875241e+002 2.432545e+002 1.689202e-002
      endloop
   endfacet
   facet normal 2.110453e-005 -1.945827e-005 1.000000e+000
      outer loop
         vertex 9.897708e+002 2.761350e+002 -4.201314e-004
         vertex 1.875241e+002 2.432545e+002 1.689202e-002
         vertex 9.897691e+002 2.564157e+002 5.001577e-004
      endloop
   endfacet
   facet normal 2.185775e-005 -3.909031e-005 1.000000e+000
      outer loop
         vertex 9.897691e+002 2.564157e+002 5.001577e-004
         vertex 1.875241e+002 2.432545e+002 1.689202e-002
         vertex 1.855782e+002 2.395193e+002 1.644246e-002
      endloop
   endfacet
   facet normal 2.162850e-005 -3.960351e-005 1.000000e+000
      outer loop
         vertex 9.897691e+002 2.564157e+002 5.001577e-004
         vertex 1.855782e+002 2.395193e+002 1.644246e-002
         vertex 1.821844e+002 2.331382e+002 1.589172e-002
      endloop
   endfacet
   facet normal 2.393857e-005 -3.639085e-005 1.000000e+000
      outer loop
         vertex 2.017588e+002 2.718604e+002 1.755665e-002
         vertex 1.986277e+002 2.653362e+002 1.765323e-002
         vertex 9.897690e+002 2.958550e+002 2.409643e-004
      endloop
   endfacet
   facet normal 2.378535e-005 -3.682193e-005 1.000000e+000
      outer loop
         vertex 9.897690e+002 2.958550e+002 2.409643e-004
         vertex 1.986277e+002 2.653362e+002 1.765323e-002
         vertex 1.974550e+002 2.629442e+002 1.783174e-002
      endloop
   endfacet
   facet normal 2.245807e-005 -1.848634e-005 1.000000e+000
      outer loop
         vertex 9.897690e+002 2.958550e+002 2.409643e-004
         vertex 1.974550e+002 2.629442e+002 1.783174e-002
         vertex 9.897708e+002 2.761350e+002 -4.201314e-004
      endloop
   endfacet
   facet normal 2.314915e-005 -3.716007e-005 1.000000e+000
      outer loop
         vertex 9.897708e+002 2.761350e+002 -4.201314e-004
         vertex 1.974550e+002 2.629442e+002 1.783174e-002
         vertex 1.954441e+002 2.588392e+002 1.741669e-002
      endloop
   endfacet
   facet normal 2.294849e-005 -3.767246e-005 1.000000e+000
      outer loop
         vertex 9.897708e+002 2.761350e+002 -4.201314e-004
         vertex 1.954441e+002 2.588392e+002 1.741669e-002
         vertex 1.922080e+002 2.523704e+002 1.715337e-002
      endloop
   endfacet
   facet normal 1.702622e-005 -4.586825e-005 1.000000e+000
      outer loop
         vertex 1.492713e+002 1.769967e+002 1.379957e-002
         vertex 1.453563e+002 1.709114e+002 1.333321e-002
         vertex 9.897709e+002 1.972556e+002 -3.104842e-004
      endloop
   endfacet
   facet normal 1.679399e-005 -4.640821e-005 1.000000e+000
      outer loop
         vertex 9.897709e+002 1.972556e+002 -3.104842e-004
         vertex 1.453563e+002 1.709114e+002 1.333321e-002
         vertex 1.429209e+002 1.671905e+002 1.258730e-002
      endloop
   endfacet
   facet normal 1.532982e-005 -2.327650e-005 1.000000e+000
      outer loop
         vertex 9.897709e+002 1.972556e+002 -3.104842e-004
         vertex 1.429209e+002 1.671905e+002 1.258730e-002
         vertex 9.897692e+002 1.775355e+002 9.868468e-005
      endloop
   endfacet
   facet normal 1.611349e-005 -4.672099e-005 1.000000e+000
      outer loop
         vertex 9.897692e+002 1.775355e+002 9.868468e-005
         vertex 1.429209e+002 1.671905e+002 1.258730e-002
         vertex 1.413927e+002 1.648612e+002 1.309527e-002
      endloop
   endfacet
   facet normal 1.587449e-005 -4.715449e-005 1.000000e+000
      outer loop
         vertex 9.897692e+002 1.775355e+002 9.868468e-005
         vertex 1.413927e+002 1.648612e+002 1.309527e-002
         vertex 1.373802e+002 1.588444e+002 1.226829e-002
      endloop
   endfacet
   facet normal 1.849894e-005 -4.401286e-005 1.000000e+000
      outer loop
         vertex 1.607124e+002 1.954448e+002 1.447113e-002
         vertex 1.569511e+002 1.892639e+002 1.383301e-002
         vertex 9.897691e+002 2.169756e+002 2.482308e-004
      endloop
   endfacet
   facet normal 1.825100e-005 -4.452664e-005 1.000000e+000
      outer loop
         vertex 9.897691e+002 2.169756e+002 2.482308e-004
         vertex 1.569511e+002 1.892639e+002 1.383301e-002
         vertex 1.547877e+002 1.857778e+002 1.404164e-002
      endloop
   endfacet
   facet normal 1.685775e-005 -2.235288e-005 1.000000e+000
      outer loop
         vertex 9.897691e+002 2.169756e+002 2.482308e-004
         vertex 1.547877e+002 1.857778e+002 1.404164e-002
         vertex 9.897709e+002 1.972556e+002 -3.104842e-004
      endloop
   endfacet
   facet normal 1.761778e-005 -4.483802e-005 1.000000e+000
      outer loop
         vertex 9.897709e+002 1.972556e+002 -3.104842e-004
         vertex 1.547877e+002 1.857778e+002 1.404164e-002
         vertex 1.531374e+002 1.831142e+002 1.357529e-002
      endloop
   endfacet
   facet normal 1.735316e-005 -4.524557e-005 1.000000e+000
      outer loop
         vertex 9.897709e+002 1.972556e+002 -3.104842e-004
         vertex 1.531374e+002 1.831142e+002 1.357529e-002
         vertex 1.492713e+002 1.769967e+002 1.379957e-002
      endloop
   endfacet
   facet normal 1.994009e-005 -4.218503e-005 1.000000e+000
      outer loop
         vertex 1.716885e+002 2.141666e+002 1.510030e-002
         vertex 1.680811e+002 2.078971e+002 1.530875e-002
         vertex 9.897709e+002 2.366957e+002 -1.609380e-004
      endloop
   endfacet
   facet normal 1.970108e-005 -4.261853e-005 1.000000e+000
      outer loop
         vertex 9.897709e+002 2.366957e+002 -1.609380e-004
         vertex 1.680811e+002 2.078971e+002 1.530875e-002
         vertex 1.661847e+002 2.046589e+002 1.456454e-002
      endloop
   endfacet
   facet normal 1.832850e-005 -2.143087e-005 1.000000e+000
      outer loop
         vertex 9.897709e+002 2.366957e+002 -1.609380e-004
         vertex 1.661847e+002 2.046589e+002 1.456454e-002
         vertex 9.897691e+002 2.169756e+002 2.482308e-004
      endloop
   endfacet
   facet normal 1.904918e-005 -4.293050e-005 1.000000e+000
      outer loop
         vertex 9.897691e+002 2.169756e+002 2.482308e-004
         vertex 1.661847e+002 2.046589e+002 1.456454e-002
         vertex 1.644248e+002 2.016560e+002 1.411303e-002
      endloop
   endfacet
   facet normal 1.878157e-005 -4.336481e-005 1.000000e+000
      outer loop
         vertex 9.897691e+002 2.169756e+002 2.482308e-004
         vertex 1.644248e+002 2.016560e+002 1.411303e-002
         vertex 1.607124e+002 1.954448e+002 1.447113e-002
      endloop
   endfacet
   facet normal 2.130454e-005 -4.019943e-005 1.000000e+000
      outer loop
         vertex 1.821844e+002 2.331382e+002 1.589172e-002
         vertex 1.787384e+002 2.267881e+002 1.613089e-002
         vertex 9.897691e+002 2.564157e+002 5.001577e-004
      endloop
   endfacet
   facet normal 2.110388e-005 -4.071182e-005 1.000000e+000
      outer loop
         vertex 9.897691e+002 2.564157e+002 5.001577e-004
         vertex 1.787384e+002 2.267881e+002 1.613089e-002
         vertex 1.770968e+002 2.238217e+002 1.609169e-002
      endloop
   endfacet
   facet normal 1.971659e-005 -2.040461e-005 1.000000e+000
      outer loop
         vertex 9.897691e+002 2.564157e+002 5.001577e-004
         vertex 1.770968e+002 2.238217e+002 1.609169e-002
         vertex 9.897709e+002 2.366957e+002 -1.609380e-004
      endloop
   endfacet
   facet normal 2.049628e-005 -4.104915e-005 1.000000e+000
      outer loop
         vertex 9.897709e+002 2.366957e+002 -1.609380e-004
         vertex 1.770968e+002 2.238217e+002 1.609169e-002
         vertex 1.752397e+002 2.204642e+002 1.593534e-002
      endloop
   endfacet
   facet normal 2.025132e-005 -4.153618e-005 1.000000e+000
      outer loop
         vertex 9.897709e+002 2.366957e+002 -1.609380e-004
         vertex 1.752397e+002 2.204642e+002 1.593534e-002
         vertex 1.716885e+002 2.141666e+002 1.510030e-002
      endloop
   endfacet
   facet normal 1.083071e-005 -5.329850e-005 1.000000e+000
      outer loop
         vertex 9.906584e+001 1.062602e+002 8.394858e-003
         vertex 9.456275e+001 1.005936e+002 8.875613e-003
         vertex 9.897711e+002 1.183762e+002 -3.032177e-004
      endloop
   endfacet
   facet normal 1.047816e-005 -5.389523e-005 1.000000e+000
      outer loop
         vertex 9.897711e+002 1.183762e+002 -3.032177e-004
         vertex 9.456275e+001 1.005936e+002 8.875613e-003
         vertex 9.086736e+001 9.601658e+001 8.103551e-003
      endloop
   endfacet
   facet normal 9.151966e-006 -2.705290e-005 1.000000e+000
      outer loop
         vertex 9.897711e+002 1.183762e+002 -3.032177e-004
         vertex 9.086736e+001 9.601658e+001 8.103551e-003
         vertex 9.897693e+002 9.865612e+001 1.059512e-004
      endloop
   endfacet
   facet normal 9.775019e-006 -5.415529e-005 1.000000e+000
      outer loop
         vertex 9.897693e+002 9.865612e+001 1.059512e-004
         vertex 9.086736e+001 9.601658e+001 8.103551e-003
         vertex 9.001836e+001 9.496423e+001 7.647465e-003
      endloop
   endfacet
   facet normal 9.596177e-006 -5.456041e-005 1.000000e+000
      outer loop
         vertex 9.897693e+002 9.865612e+001 1.059512e-004
         vertex 9.001836e+001 9.496423e+001 7.647465e-003
         vertex 8.542540e+001 8.937389e+001 7.258900e-003
      endloop
   endfacet
   facet normal 1.243650e-005 -5.143929e-005 1.000000e+000
      outer loop
         vertex 1.122795e+002 1.234794e+002 9.898294e-003
         vertex 1.079223e+002 1.177036e+002 9.389748e-003
         vertex 9.897693e+002 1.380962e+002 3.578780e-004
      endloop
   endfacet
   facet normal 1.208394e-005 -5.203602e-005 1.000000e+000
      outer loop
         vertex 9.897693e+002 1.380962e+002 3.578780e-004
         vertex 1.079223e+002 1.177036e+002 9.389748e-003
         vertex 1.045519e+002 1.133112e+002 9.103538e-003
      endloop
   endfacet
   facet normal 1.072420e-005 -2.615464e-005 1.000000e+000
      outer loop
         vertex 9.897693e+002 1.380962e+002 3.578780e-004
         vertex 1.045519e+002 1.133112e+002 9.103538e-003
         vertex 9.897711e+002 1.183762e+002 -3.032177e-004
      endloop
   endfacet
   facet normal 1.143501e-005 -5.232122e-005 1.000000e+000
      outer loop
         vertex 9.897711e+002 1.183762e+002 -3.032177e-004
         vertex 1.045519e+002 1.133112e+002 9.103538e-003
         vertex 1.035166e+002 1.119638e+002 9.313611e-003
      endloop
   endfacet
   facet normal 1.117039e-005 -5.272877e-005 1.000000e+000
      outer loop
         vertex 9.897711e+002 1.183762e+002 -3.032177e-004
         vertex 1.035166e+002 1.119638e+002 9.313611e-003
         vertex 9.906584e+001 1.062602e+002 8.394858e-003
      endloop
   endfacet
   facet normal 2.745363e-006 -3.083577e-005 1.000000e+000
      outer loop
         vertex 9.897712e+002 3.949684e+001 -2.959511e-004
         vertex 3.189543e+001 3.045885e+001 2.752025e-003
         vertex 9.897695e+002 1.977669e+001 2.155984e-004
      endloop
   endfacet
   facet normal 2.841826e-006 -6.189994e-005 1.000000e+000
      outer loop
         vertex 9.897695e+002 1.977669e+001 2.155984e-004
         vertex 3.189543e+001 3.045885e+001 2.752025e-003
         vertex 2.682984e+001 2.541177e+001 2.327728e-003
      endloop
   endfacet
   facet normal 2.457699e-006 -6.252424e-005 1.000000e+000
      outer loop
         vertex 9.897695e+002 1.977669e+001 2.155984e-004
         vertex 2.682984e+001 2.541177e+001 2.327728e-003
         vertex 2.166142e+001 2.034735e+001 2.108678e-003
      endloop
   endfacet
   facet normal 4.149264e-006 -6.066259e-005 1.000000e+000
      outer loop
         vertex 4.208143e+001 4.086040e+001 3.240577e-003
         vertex 3.703991e+001 3.566920e+001 3.200036e-003
         vertex 9.897712e+002 3.949684e+001 -2.959511e-004
      endloop
   endfacet
   facet normal 3.736542e-006 -6.128770e-005 1.000000e+000
      outer loop
         vertex 9.897712e+002 3.949684e+001 -2.959511e-004
         vertex 3.703991e+001 3.566920e+001 3.200036e-003
         vertex 3.195732e+001 3.051992e+001 2.777626e-003
      endloop
   endfacet
   facet normal 3.547943e-006 -6.161312e-005 1.000000e+000
      outer loop
         vertex 9.897712e+002 3.949684e+001 -2.959511e-004
         vertex 3.195732e+001 3.051992e+001 2.777626e-003
         vertex 3.189543e+001 3.045885e+001 2.752025e-003
      endloop
   endfacet
   facet normal 5.866445e-006 -5.882690e-005 1.000000e+000
      outer loop
         vertex 5.693326e+001 5.667593e+001 5.089716e-003
         vertex 5.202634e+001 5.136462e+001 5.026908e-003
         vertex 9.897694e+002 5.921684e+001 3.651446e-004
      endloop
   endfacet
   facet normal 5.456700e-006 -5.942525e-005 1.000000e+000
      outer loop
         vertex 9.897694e+002 5.921684e+001 3.651446e-004
         vertex 5.202634e+001 5.136462e+001 5.026908e-003
         vertex 4.725581e+001 4.628382e+001 4.236912e-003
      endloop
   endfacet
   facet normal 4.365032e-006 -2.985620e-005 1.000000e+000
      outer loop
         vertex 9.897694e+002 5.921684e+001 3.651446e-004
         vertex 4.725581e+001 4.628382e+001 4.236912e-003
         vertex 9.897712e+002 3.949684e+001 -2.959511e-004
      endloop
   endfacet
   facet normal 4.776201e-006 -5.973802e-005 1.000000e+000
      outer loop
         vertex 9.897712e+002 3.949684e+001 -2.959511e-004
         vertex 4.725581e+001 4.628382e+001 4.236912e-003
         vertex 4.707447e+001 4.609246e+001 4.631036e-003
      endloop
   endfacet
   facet normal 4.577696e-006 -6.006367e-005 1.000000e+000
      outer loop
         vertex 9.897712e+002 3.949684e+001 -2.959511e-004
         vertex 4.707447e+001 4.609246e+001 4.631036e-003
         vertex 4.208143e+001 4.086040e+001 3.240577e-003
      endloop
   endfacet
   facet normal 9.212049e-006 -5.518471e-005 1.000000e+000
      outer loop
         vertex 8.542540e+001 8.937389e+001 7.258900e-003
         vertex 8.078762e+001 8.382349e+001 7.048392e-003
         vertex 9.897693e+002 9.865612e+001 1.059512e-004
      endloop
   endfacet
   facet normal 8.836852e-006 -5.572872e-005 1.000000e+000
      outer loop
         vertex 9.897693e+002 9.865612e+001 1.059512e-004
         vertex 8.078762e+001 8.382349e+001 7.048392e-003
         vertex 7.675132e+001 7.907293e+001 6.583547e-003
      endloop
   endfacet
   facet normal 7.566845e-006 -2.797814e-005 1.000000e+000
      outer loop
         vertex 9.897693e+002 9.865612e+001 1.059512e-004
         vertex 7.675132e+001 7.907293e+001 6.583547e-003
         vertex 9.897711e+002 7.893608e+001 -4.527639e-004
      endloop
   endfacet
   facet normal 8.140642e-006 -5.601532e-005 1.000000e+000
      outer loop
         vertex 9.897711e+002 7.893608e+001 -4.527639e-004
         vertex 7.675132e+001 7.907293e+001 6.583547e-003
         vertex 7.610490e+001 7.831223e+001 6.504820e-003
      endloop
   endfacet
   facet normal 7.881972e-006 -5.636934e-005 1.000000e+000
      outer loop
         vertex 9.897711e+002 7.893608e+001 -4.527639e-004
         vertex 7.610490e+001 7.831223e+001 6.504820e-003
         vertex 7.137746e+001 7.284280e+001 6.649643e-003
      endloop
   endfacet
   facet normal 7.526438e-006 -5.699283e-005 1.000000e+000
      outer loop
         vertex 7.137746e+001 7.284280e+001 6.649643e-003
         vertex 6.660883e+001 6.741448e+001 5.901475e-003
         vertex 9.897711e+002 7.893608e+001 -4.527639e-004
      endloop
   endfacet
   facet normal 7.161148e-006 -5.753661e-005 1.000000e+000
      outer loop
         vertex 9.897711e+002 7.893608e+001 -4.527639e-004
         vertex 6.660883e+001 6.741448e+001 5.901475e-003
         vertex 6.221155e+001 6.249181e+001 5.157875e-003
      endloop
   endfacet
   facet normal 5.978747e-006 -2.893014e-005 1.000000e+000
      outer loop
         vertex 9.897711e+002 7.893608e+001 -4.527639e-004
         vertex 6.221155e+001 6.249181e+001 5.157875e-003
         vertex 9.897694e+002 5.921684e+001 3.651446e-004
      endloop
   endfacet
   facet normal 6.496359e-006 -5.787557e-005 1.000000e+000
      outer loop
         vertex 9.897694e+002 5.921684e+001 3.651446e-004
         vertex 6.221155e+001 6.249181e+001 5.157875e-003
         vertex 6.179533e+001 6.202621e+001 5.126603e-003
      endloop
   endfacet
   facet normal 6.250572e-006 -5.820260e-005 1.000000e+000
      outer loop
         vertex 9.897694e+002 5.921684e+001 3.651446e-004
         vertex 6.179533e+001 6.202621e+001 5.126603e-003
         vertex 5.693326e+001 5.667593e+001 5.089716e-003
      endloop
   endfacet
   facet normal 1.401764e-005 -4.963418e-005 1.000000e+000
      outer loop
         vertex 1.250510e+002 1.410101e+002 1.166513e-002
         vertex 1.208437e+002 1.351328e+002 1.083122e-002
         vertex 9.897711e+002 1.578164e+002 -1.536715e-004
      endloop
   endfacet
   facet normal 1.374393e-005 -5.020194e-005 1.000000e+000
      outer loop
         vertex 9.897711e+002 1.578164e+002 -1.536715e-004
         vertex 1.208437e+002 1.351328e+002 1.083122e-002
         vertex 1.177935e+002 1.309458e+002 1.055054e-002
      endloop
   endfacet
   facet normal 1.226800e-005 -2.517727e-005 1.000000e+000
      outer loop
         vertex 9.897711e+002 1.578164e+002 -1.536715e-004
         vertex 1.177935e+002 1.309458e+002 1.055054e-002
         vertex 9.897693e+002 1.380962e+002 3.578780e-004
      endloop
   endfacet
   facet normal 1.299351e-005 -5.046340e-005 1.000000e+000
      outer loop
         vertex 9.897693e+002 1.380962e+002 3.578780e-004
         vertex 1.177935e+002 1.309458e+002 1.055054e-002
         vertex 1.165879e+002 1.292895e+002 1.012415e-002
      endloop
   endfacet
   facet normal 1.281467e-005 -5.086852e-005 1.000000e+000
      outer loop
         vertex 9.897693e+002 1.380962e+002 3.578780e-004
         vertex 1.165879e+002 1.292895e+002 1.012415e-002
         vertex 1.122795e+002 1.234794e+002 9.898294e-003
      endloop
   endfacet
   facet normal 1.551895e-005 -4.777798e-005 1.000000e+000
      outer loop
         vertex 1.373802e+002 1.588444e+002 1.226829e-002
         vertex 1.333192e+002 1.528644e+002 1.218007e-002
         vertex 9.897692e+002 1.775355e+002 9.868468e-005
      endloop
   endfacet
   facet normal 1.525813e-005 -4.831875e-005 1.000000e+000
      outer loop
         vertex 9.897692e+002 1.775355e+002 9.868468e-005
         vertex 1.333192e+002 1.528644e+002 1.218007e-002
         vertex 1.305844e+002 1.489089e+002 1.193259e-002
      endloop
   endfacet
   facet normal 1.382453e-005 -2.425283e-005 1.000000e+000
      outer loop
         vertex 9.897692e+002 1.775355e+002 9.868468e-005
         vertex 1.305844e+002 1.489089e+002 1.193259e-002
         vertex 9.897711e+002 1.578164e+002 -1.536715e-004
      endloop
   endfacet
   facet normal 1.459632e-005 -4.863094e-005 1.000000e+000
      outer loop
         vertex 9.897711e+002 1.578164e+002 -1.536715e-004
         vertex 1.305844e+002 1.489089e+002 1.193259e-002
         vertex 1.292095e+002 1.469197e+002 1.191076e-002
      endloop
   endfacet
   facet normal 1.436327e-005 -4.901092e-005 1.000000e+000
      outer loop
         vertex 9.897711e+002 1.578164e+002 -1.536715e-004
         vertex 1.292095e+002 1.469197e+002 1.191076e-002
         vertex 1.250510e+002 1.410101e+002 1.166513e-002
      endloop
   endfacet
   facet normal 2.521128e-005 -3.446120e-005 1.000000e+000
      outer loop
         vertex 2.108220e+002 2.915861e+002 1.863558e-002
         vertex 2.078559e+002 2.849864e+002 1.830299e-002
         vertex 9.897708e+002 3.155751e+002 -1.682046e-004
      endloop
   endfacet
   facet normal 2.501956e-005 -3.489331e-005 1.000000e+000
      outer loop
         vertex 9.897708e+002 3.155751e+002 -1.682046e-004
         vertex 2.078559e+002 2.849864e+002 1.830299e-002
         vertex 2.068860e+002 2.828796e+002 1.886356e-002
      endloop
   endfacet
   facet normal 2.380469e-005 -1.748787e-005 1.000000e+000
      outer loop
         vertex 9.897708e+002 3.155751e+002 -1.682046e-004
         vertex 2.068860e+002 2.828796e+002 1.886356e-002
         vertex 9.897690e+002 2.958550e+002 2.409643e-004
      endloop
   endfacet
   facet normal 2.444055e-005 -3.522983e-005 1.000000e+000
      outer loop
         vertex 9.897690e+002 2.958550e+002 2.409643e-004
         vertex 2.068860e+002 2.828796e+002 1.886356e-002
         vertex 2.048336e+002 2.784108e+002 1.819799e-002
      endloop
   endfacet
   facet normal 2.419261e-005 -3.574362e-005 1.000000e+000
      outer loop
         vertex 9.897690e+002 2.958550e+002 2.409643e-004
         vertex 2.048336e+002 2.784108e+002 1.819799e-002
         vertex 2.017588e+002 2.718604e+002 1.755665e-002
      endloop
   endfacet
   facet normal 2.636962e-005 -3.253479e-005 1.000000e+000
      outer loop
         vertex 2.193900e+002 3.115222e+002 1.906931e-002
         vertex 2.165890e+002 3.048549e+002 1.922272e-002
         vertex 9.897689e+002 3.352951e+002 4.928912e-004
      endloop
   endfacet
   facet normal 2.623806e-005 -3.293851e-005 1.000000e+000
      outer loop
         vertex 9.897689e+002 3.352951e+002 4.928912e-004
         vertex 2.165890e+002 3.048549e+002 1.922272e-002
         vertex 2.158132e+002 3.030458e+002 1.871472e-002
      endloop
   endfacet
   facet normal 2.507542e-005 -1.649161e-005 1.000000e+000
      outer loop
         vertex 9.897689e+002 3.352951e+002 4.928912e-004
         vertex 2.158132e+002 3.030458e+002 1.871472e-002
         vertex 9.897708e+002 3.155751e+002 -1.682046e-004
      endloop
   endfacet
   facet normal 2.564334e-005 -3.324886e-005 1.000000e+000
      outer loop
         vertex 9.897708e+002 3.155751e+002 -1.682046e-004
         vertex 2.158132e+002 3.030458e+002 1.871472e-002
         vertex 2.137319e+002 2.982098e+002 1.970765e-002
      endloop
   endfacet
   facet normal 2.543971e-005 -3.378801e-005 1.000000e+000
      outer loop
         vertex 9.897708e+002 3.155751e+002 -1.682046e-004
         vertex 2.137319e+002 2.982098e+002 1.970765e-002
         vertex 2.108220e+002 2.915861e+002 1.863558e-002
      endloop
   endfacet
   facet normal 4.836003e-006 5.893127e-005 1.000000e+000
      outer loop
         vertex 4.662704e+001 1.246260e+003 4.319043e-003
         vertex 5.158318e+001 1.240992e+003 4.354680e-003
         vertex 9.897709e+002 1.242410e+003 -3.041724e-004
      endloop
   endfacet
   facet normal 3.107881e-006 6.074863e-005 1.000000e+000
      outer loop
         vertex 3.124509e+001 1.262073e+003 2.869454e-003
         vertex 3.659479e+001 1.256666e+003 2.825035e-003
         vertex 9.897691e+002 1.262130e+003 3.569234e-004
      endloop
   endfacet
   facet normal 3.523257e-006 6.014713e-005 1.000000e+000
      outer loop
         vertex 9.897691e+002 1.262130e+003 3.569234e-004
         vertex 3.659479e+001 1.256666e+003 2.825035e-003
         vertex 4.163213e+001 1.251484e+003 3.452276e-003
      endloop
   endfacet
   facet normal 3.818725e-006 2.991533e-005 1.000000e+000
      outer loop
         vertex 9.897691e+002 1.262130e+003 3.569234e-004
         vertex 4.163213e+001 1.251484e+003 3.452276e-003
         vertex 9.897709e+002 1.242410e+003 -3.041724e-004
      endloop
   endfacet
   facet normal 4.465081e-006 5.958733e-005 1.000000e+000
      outer loop
         vertex 9.897709e+002 1.242410e+003 -3.041724e-004
         vertex 4.163213e+001 1.251484e+003 3.452276e-003
         vertex 4.662290e+001 1.246265e+003 4.259597e-003
      endloop
   endfacet
   facet normal 4.625413e-006 5.924523e-005 1.000000e+000
      outer loop
         vertex 9.897709e+002 1.242410e+003 -3.041724e-004
         vertex 4.662290e+001 1.246265e+003 4.259597e-003
         vertex 4.662704e+001 1.246260e+003 4.319043e-003
      endloop
   endfacet
   facet normal 5.254356e-006 5.835654e-005 1.000000e+000
      outer loop
         vertex 5.158318e+001 1.240992e+003 4.354680e-003
         vertex 5.649308e+001 1.235682e+003 5.391790e-003
         vertex 9.897709e+002 1.242410e+003 -3.041724e-004
      endloop
   endfacet
   facet normal 5.641139e-006 5.775423e-005 1.000000e+000
      outer loop
         vertex 9.897709e+002 1.242410e+003 -3.041724e-004
         vertex 5.649308e+001 1.235682e+003 5.391790e-003
         vertex 6.136410e+001 1.230330e+003 5.391833e-003
      endloop
   endfacet
   facet normal 5.600732e-006 2.873954e-005 1.000000e+000
      outer loop
         vertex 9.897709e+002 1.242410e+003 -3.041724e-004
         vertex 6.136410e+001 1.230330e+003 5.391833e-003
         vertex 9.897692e+002 1.222690e+003 2.073772e-004
      endloop
   endfacet
   facet normal 6.356513e-006 5.745463e-005 1.000000e+000
      outer loop
         vertex 9.897692e+002 1.222690e+003 2.073772e-004
         vertex 6.136410e+001 1.230330e+003 5.391833e-003
         vertex 6.159414e+001 1.230072e+003 5.623561e-003
      endloop
   endfacet
   facet normal 6.551392e-006 5.716686e-005 1.000000e+000
      outer loop
         vertex 9.897692e+002 1.222690e+003 2.073772e-004
         vertex 6.159414e+001 1.230072e+003 5.623561e-003
         vertex 6.618868e+001 1.224938e+003 5.778675e-003
      endloop
   endfacet
   facet normal 1.025443e-005 5.295256e-005 1.000000e+000
      outer loop
         vertex 9.417731e+001 1.191769e+003 8.479615e-003
         vertex 9.867548e+001 1.186112e+003 9.100075e-003
         vertex 9.897692e+002 1.183250e+003 1.598201e-004
      endloop
   endfacet
   facet normal 1.058402e-005 5.234863e-005 1.000000e+000
      outer loop
         vertex 9.897692e+002 1.183250e+003 1.598201e-004
         vertex 9.867548e+001 1.186112e+003 9.100075e-003
         vertex 1.031267e+002 1.180420e+003 9.079220e-003
      endloop
   endfacet
   facet normal 1.041037e-005 2.599683e-005 1.000000e+000
      outer loop
         vertex 9.897692e+002 1.183250e+003 1.598201e-004
         vertex 1.031267e+002 1.180420e+003 9.079220e-003
         vertex 9.897711e+002 1.163531e+003 -1.945252e-004
      endloop
   endfacet
   facet normal 1.133775e-005 5.197014e-005 1.000000e+000
      outer loop
         vertex 9.897711e+002 1.163531e+003 -1.945252e-004
         vertex 1.031267e+002 1.180420e+003 9.079220e-003
         vertex 1.039894e+002 1.179298e+003 8.930624e-003
      endloop
   endfacet
   facet normal 1.151394e-005 5.168179e-005 1.000000e+000
      outer loop
         vertex 9.897711e+002 1.163531e+003 -1.945252e-004
         vertex 1.039894e+002 1.179298e+003 8.930624e-003
         vertex 1.075313e+002 1.174691e+003 9.134890e-003
      endloop
   endfacet
   facet normal 1.183660e-005 5.110439e-005 1.000000e+000
      outer loop
         vertex 1.075313e+002 1.174691e+003 9.134890e-003
         vertex 1.118857e+002 1.168923e+003 1.023692e-002
         vertex 9.897711e+002 1.163531e+003 -1.945252e-004
      endloop
   endfacet
   facet normal 1.220767e-005 5.052827e-005 1.000000e+000
      outer loop
         vertex 9.897711e+002 1.163531e+003 -1.945252e-004
         vertex 1.118857e+002 1.168923e+003 1.023692e-002
         vertex 1.161971e+002 1.163118e+003 1.055037e-002
      endloop
   endfacet
   facet normal 1.190293e-005 2.510604e-005 1.000000e+000
      outer loop
         vertex 9.897711e+002 1.163531e+003 -1.945252e-004
         vertex 1.161971e+002 1.163118e+003 1.055037e-002
         vertex 9.897693e+002 1.143811e+003 2.146437e-004
      endloop
   endfacet
   facet normal 1.293281e-005 5.014896e-005 1.000000e+000
      outer loop
         vertex 9.897693e+002 1.143811e+003 2.146437e-004
         vertex 1.161971e+002 1.163118e+003 1.055037e-002
         vertex 1.172479e+002 1.161677e+003 1.078318e-002
      endloop
   endfacet
   facet normal 1.310207e-005 4.988714e-005 1.000000e+000
      outer loop
         vertex 9.897693e+002 1.143811e+003 2.146437e-004
         vertex 1.172479e+002 1.161677e+003 1.078318e-002
         vertex 1.204619e+002 1.157275e+003 1.073598e-002
      endloop
   endfacet
   facet normal 6.928268e-006 5.656432e-005 1.000000e+000
      outer loop
         vertex 6.618868e+001 1.224938e+003 5.778675e-003
         vertex 7.096689e+001 1.219505e+003 6.858284e-003
         vertex 9.897692e+002 1.222690e+003 2.073772e-004
      endloop
   endfacet
   facet normal 7.340667e-006 5.593607e-005 1.000000e+000
      outer loop
         vertex 9.897692e+002 1.222690e+003 2.073772e-004
         vertex 7.096689e+001 1.219505e+003 6.858284e-003
         vertex 7.570225e+001 1.214034e+003 7.150870e-003
      endloop
   endfacet
   facet normal 7.239093e-006 2.779963e-005 1.000000e+000
      outer loop
         vertex 9.897692e+002 1.222690e+003 2.073772e-004
         vertex 7.570225e+001 1.214034e+003 7.150870e-003
         vertex 9.897711e+002 1.202970e+003 -2.493488e-004
      endloop
   endfacet
   facet normal 8.056041e-006 5.563647e-005 1.000000e+000
      outer loop
         vertex 9.897711e+002 1.202970e+003 -2.493488e-004
         vertex 7.570225e+001 1.214034e+003 7.150870e-003
         vertex 7.615059e+001 1.213506e+003 7.250802e-003
      endloop
   endfacet
   facet normal 8.250920e-006 5.534870e-005 1.000000e+000
      outer loop
         vertex 9.897711e+002 1.202970e+003 -2.493488e-004
         vertex 7.615059e+001 1.213506e+003 7.250802e-003
         vertex 8.039104e+001 1.208523e+003 7.623537e-003
      endloop
   endfacet
   facet normal 8.583492e-006 5.477153e-005 1.000000e+000
      outer loop
         vertex 8.039104e+001 1.208523e+003 7.623537e-003
         vertex 8.503687e+001 1.202975e+003 7.103246e-003
         vertex 9.897711e+002 1.202970e+003 -2.493488e-004
      endloop
   endfacet
   facet normal 8.970274e-006 5.416923e-005 1.000000e+000
      outer loop
         vertex 9.897711e+002 1.202970e+003 -2.493488e-004
         vertex 8.503687e+001 1.202975e+003 7.103246e-003
         vertex 8.962865e+001 1.197390e+003 8.493257e-003
      endloop
   endfacet
   facet normal 8.807533e-006 2.691103e-005 1.000000e+000
      outer loop
         vertex 9.897711e+002 1.202970e+003 -2.493488e-004
         vertex 8.962865e+001 1.197390e+003 8.493257e-003
         vertex 9.897692e+002 1.183250e+003 1.598201e-004
      endloop
   endfacet
   facet normal 9.705312e-006 5.379015e-005 1.000000e+000
      outer loop
         vertex 9.897692e+002 1.183250e+003 1.598201e-004
         vertex 8.962865e+001 1.197390e+003 8.493257e-003
         vertex 9.028757e+001 1.196578e+003 7.747400e-003
      endloop
   endfacet
   facet normal 9.893261e-006 5.352891e-005 1.000000e+000
      outer loop
         vertex 9.897692e+002 1.183250e+003 1.598201e-004
         vertex 9.028757e+001 1.196578e+003 7.747400e-003
         vertex 9.417731e+001 1.191769e+003 8.479615e-003
      endloop
   endfacet
   facet normal 1.652312e-005 4.561144e-005 1.000000e+000
      outer loop
         vertex 1.450258e+002 1.121481e+003 1.251278e-002
         vertex 1.489435e+002 1.115400e+003 1.283992e-002
         vertex 9.897694e+002 1.104371e+003 2.694673e-004
      endloop
   endfacet
   facet normal 1.681831e-005 4.503312e-005 1.000000e+000
      outer loop
         vertex 9.897694e+002 1.104371e+003 2.694673e-004
         vertex 1.489435e+002 1.115400e+003 1.283992e-002
         vertex 1.528104e+002 1.109289e+003 1.328534e-002
      endloop
   endfacet
   facet normal 1.646216e-005 2.232951e-005 1.000000e+000
      outer loop
         vertex 9.897694e+002 1.104371e+003 2.694673e-004
         vertex 1.528104e+002 1.109289e+003 1.328534e-002
         vertex 9.897712e+002 1.084651e+003 -3.916284e-004
      endloop
   endfacet
   facet normal 1.754925e-005 4.462740e-005 1.000000e+000
      outer loop
         vertex 9.897712e+002 1.084651e+003 -3.916284e-004
         vertex 1.528104e+002 1.109289e+003 1.328534e-002
         vertex 1.543021e+002 1.106884e+003 1.396783e-002
      endloop
   endfacet
   facet normal 1.751290e-005 2.222615e-005 1.000000e+000
      outer loop
         vertex 9.897712e+002 1.084651e+003 -3.916284e-004
         vertex 1.543021e+002 1.106884e+003 1.396783e-002
         vertex 9.897695e+002 1.064931e+003 2.219102e-004
      endloop
   endfacet
   facet normal 1.818577e-005 4.429884e-005 1.000000e+000
      outer loop
         vertex 9.897695e+002 1.064931e+003 2.219102e-004
         vertex 1.543021e+002 1.106884e+003 1.396783e-002
         vertex 1.566226e+002 1.103147e+003 1.420305e-002
      endloop
   endfacet
   facet normal 1.846413e-005 4.374682e-005 1.000000e+000
      outer loop
         vertex 9.897695e+002 1.064931e+003 2.219102e-004
         vertex 1.566226e+002 1.103147e+003 1.420305e-002
         vertex 1.603838e+002 1.096977e+003 1.482873e-002
      endloop
   endfacet
   facet normal 1.879372e-005 4.314289e-005 1.000000e+000
      outer loop
         vertex 1.603838e+002 1.096977e+003 1.482873e-002
         vertex 1.640979e+002 1.090775e+003 1.419685e-002
         vertex 9.897695e+002 1.064931e+003 2.219102e-004
      endloop
   endfacet
   facet normal 1.902100e-005 4.272271e-005 1.000000e+000
      outer loop
         vertex 9.897695e+002 1.064931e+003 2.219102e-004
         vertex 1.640979e+002 1.090775e+003 1.419685e-002
         vertex 1.657188e+002 1.088015e+003 1.424924e-002
      endloop
   endfacet
   facet normal 1.918431e-005 4.240736e-005 1.000000e+000
      outer loop
         vertex 9.897695e+002 1.064931e+003 2.219102e-004
         vertex 1.657188e+002 1.088015e+003 1.424924e-002
         vertex 1.677576e+002 1.084541e+003 1.475509e-002
      endloop
   endfacet
   facet normal 2.291627e-005 3.752716e-005 1.000000e+000
      outer loop
         vertex 1.919275e+002 1.040065e+003 1.693085e-002
         vertex 1.951681e+002 1.033601e+003 1.693078e-002
         vertex 9.897714e+002 1.005771e+003 -3.843619e-004
      endloop
   endfacet
   facet normal 2.312470e-005 3.702646e-005 1.000000e+000
      outer loop
         vertex 9.897714e+002 1.005771e+003 -3.843619e-004
         vertex 1.951681e+002 1.033601e+003 1.693078e-002
         vertex 1.970503e+002 1.029762e+003 1.772413e-002
      endloop
   endfacet
   facet normal 2.328801e-005 3.671111e-005 1.000000e+000
      outer loop
         vertex 9.897714e+002 1.005771e+003 -3.843619e-004
         vertex 1.970503e+002 1.029762e+003 1.772413e-002
         vertex 1.983540e+002 1.027108e+003 1.750379e-002
      endloop
   endfacet
   facet normal 2.345512e-005 3.626255e-005 1.000000e+000
      outer loop
         vertex 1.983540e+002 1.027108e+003 1.750379e-002
         vertex 2.014888e+002 1.020589e+003 1.747646e-002
         vertex 9.897714e+002 1.005771e+003 -3.843619e-004
      endloop
   endfacet
   facet normal 2.379448e-005 3.557892e-005 1.000000e+000
      outer loop
         vertex 9.897714e+002 1.005771e+003 -3.843619e-004
         vertex 2.014888e+002 1.020589e+003 1.747646e-002
         vertex 2.045651e+002 1.014043e+003 1.857981e-002
      endloop
   endfacet
   facet normal 2.345132e-005 1.764895e-005 1.000000e+000
      outer loop
         vertex 9.897714e+002 1.005771e+003 -3.843619e-004
         vertex 2.045651e+002 1.014043e+003 1.857981e-002
         vertex 9.897696e+002 9.860512e+002 1.271876e-004
      endloop
   endfacet
   facet normal 2.445051e-005 3.509095e-005 1.000000e+000
      outer loop
         vertex 9.897696e+002 9.860512e+002 1.271876e-004
         vertex 2.045651e+002 1.014043e+003 1.857981e-002
         vertex 2.065050e+002 1.009837e+003 1.795572e-002
      endloop
   endfacet
   facet normal 2.458523e-005 3.477480e-005 1.000000e+000
      outer loop
         vertex 9.897696e+002 9.860512e+002 1.271876e-004
         vertex 2.065050e+002 1.009837e+003 1.795572e-002
         vertex 2.075939e+002 1.007472e+003 1.811337e-002
      endloop
   endfacet
   facet normal 1.942134e-005 4.190747e-005 1.000000e+000
      outer loop
         vertex 1.677576e+002 1.084541e+003 1.475509e-002
         vertex 1.713665e+002 1.078275e+003 1.543279e-002
         vertex 9.897695e+002 1.064931e+003 2.219102e-004
      endloop
   endfacet
   facet normal 1.972234e-005 4.130273e-005 1.000000e+000
      outer loop
         vertex 9.897695e+002 1.064931e+003 2.219102e-004
         vertex 1.713665e+002 1.078275e+003 1.543279e-002
         vertex 1.749245e+002 1.071978e+003 1.571765e-002
      endloop
   endfacet
   facet normal 1.938004e-005 2.046614e-005 1.000000e+000
      outer loop
         vertex 9.897695e+002 1.064931e+003 2.219102e-004
         vertex 1.749245e+002 1.071978e+003 1.571765e-002
         vertex 9.897713e+002 1.045211e+003 -3.368048e-004
      endloop
   endfacet
   facet normal 2.043854e-005 4.084315e-005 1.000000e+000
      outer loop
         vertex 9.897713e+002 1.045211e+003 -3.368048e-004
         vertex 1.749245e+002 1.071978e+003 1.571765e-002
         vertex 1.766509e+002 1.068863e+003 1.582939e-002
      endloop
   endfacet
   facet normal 2.060185e-005 4.052780e-005 1.000000e+000
      outer loop
         vertex 9.897713e+002 1.045211e+003 -3.368048e-004
         vertex 1.766509e+002 1.068863e+003 1.582939e-002
         vertex 1.784316e+002 1.065652e+003 1.571127e-002
      endloop
   endfacet
   facet normal 2.081029e-005 4.002710e-005 1.000000e+000
      outer loop
         vertex 1.784316e+002 1.065652e+003 1.571127e-002
         vertex 1.818841e+002 1.059296e+003 1.658552e-002
         vertex 9.897713e+002 1.045211e+003 -3.368048e-004
      endloop
   endfacet
   facet normal 2.113691e-005 3.939641e-005 1.000000e+000
      outer loop
         vertex 9.897713e+002 1.045211e+003 -3.368048e-004
         vertex 1.818841e+002 1.059296e+003 1.658552e-002
         vertex 1.852854e+002 1.052913e+003 1.655346e-002
      endloop
   endfacet
   facet normal 2.075823e-005 1.957210e-005 1.000000e+000
      outer loop
         vertex 9.897713e+002 1.045211e+003 -3.368048e-004
         vertex 1.852854e+002 1.052913e+003 1.655346e-002
         vertex 9.897695e+002 1.025491e+003 7.236404e-005
      endloop
   endfacet
   facet normal 2.182451e-005 3.893602e-005 1.000000e+000
      outer loop
         vertex 9.897695e+002 1.025491e+003 7.236404e-005
         vertex 1.852854e+002 1.052913e+003 1.655346e-002
         vertex 1.870975e+002 1.049441e+003 1.685721e-002
      endloop
   endfacet
   facet normal 2.176155e-005 1.938741e-005 1.000000e+000
      outer loop
         vertex 9.897695e+002 1.025491e+003 7.236404e-005
         vertex 1.870975e+002 1.049441e+003 1.685721e-002
         vertex 9.897714e+002 1.005771e+003 -3.843619e-004
      endloop
   endfacet
   facet normal 2.244122e-005 3.860699e-005 1.000000e+000
      outer loop
         vertex 9.897714e+002 1.005771e+003 -3.843619e-004
         vertex 1.870975e+002 1.049441e+003 1.685721e-002
         vertex 1.886320e+002 1.046502e+003 1.719609e-002
      endloop
   endfacet
   facet normal 2.263097e-005 3.810571e-005 1.000000e+000
      outer loop
         vertex 9.897714e+002 1.005771e+003 -3.843619e-004
         vertex 1.886320e+002 1.046502e+003 1.719609e-002
         vertex 1.919275e+002 1.040065e+003 1.693085e-002
      endloop
   endfacet
   facet normal 1.341893e-005 4.933616e-005 1.000000e+000
      outer loop
         vertex 1.204619e+002 1.157275e+003 1.073598e-002
         vertex 1.246798e+002 1.151396e+003 1.058858e-002
         vertex 9.897693e+002 1.143811e+003 2.146437e-004
      endloop
   endfacet
   facet normal 1.376126e-005 4.867929e-005 1.000000e+000
      outer loop
         vertex 9.897693e+002 1.143811e+003 2.146437e-004
         vertex 1.246798e+002 1.151396e+003 1.058858e-002
         vertex 1.288474e+002 1.145481e+003 1.117767e-002
      endloop
   endfacet
   facet normal 1.348709e-005 2.419126e-005 1.000000e+000
      outer loop
         vertex 9.897693e+002 1.143811e+003 2.146437e-004
         vertex 1.288474e+002 1.145481e+003 1.117767e-002
         vertex 9.897711e+002 1.124090e+003 -4.464520e-004
      endloop
   endfacet
   facet normal 1.451498e-005 4.830079e-005 1.000000e+000
      outer loop
         vertex 9.897711e+002 1.124090e+003 -4.464520e-004
         vertex 1.288474e+002 1.145481e+003 1.117767e-002
         vertex 1.300620e+002 1.143727e+003 1.114724e-002
      endloop
   endfacet
   facet normal 1.467829e-005 4.798545e-005 1.000000e+000
      outer loop
         vertex 9.897711e+002 1.124090e+003 -4.464520e-004
         vertex 1.300620e+002 1.143727e+003 1.114724e-002
         vertex 1.329643e+002 1.139531e+003 1.219570e-002
      endloop
   endfacet
   facet normal 1.496953e-005 4.746042e-005 1.000000e+000
      outer loop
         vertex 1.329643e+002 1.139531e+003 1.219570e-002
         vertex 1.370343e+002 1.133547e+003 1.246965e-002
         vertex 9.897711e+002 1.124090e+003 -4.464520e-004
      endloop
   endfacet
   facet normal 1.530210e-005 4.688325e-005 1.000000e+000
      outer loop
         vertex 9.897711e+002 1.124090e+003 -4.464520e-004
         vertex 1.370343e+002 1.133547e+003 1.246965e-002
         vertex 1.410536e+002 1.127531e+003 1.306861e-002
      endloop
   endfacet
   facet normal 1.498248e-005 2.324730e-005 1.000000e+000
      outer loop
         vertex 9.897711e+002 1.124090e+003 -4.464520e-004
         vertex 1.410536e+002 1.127531e+003 1.306861e-002
         vertex 9.897694e+002 1.104371e+003 2.694673e-004
      endloop
   endfacet
   facet normal 1.605285e-005 4.647800e-005 1.000000e+000
      outer loop
         vertex 9.897694e+002 1.104371e+003 2.694673e-004
         vertex 1.410536e+002 1.127531e+003 1.306861e-002
         vertex 1.424161e+002 1.125459e+003 1.214643e-002
      endloop
   endfacet
   facet normal 1.622889e-005 4.610971e-005 1.000000e+000
      outer loop
         vertex 9.897694e+002 1.104371e+003 2.694673e-004
         vertex 1.424161e+002 1.125459e+003 1.214643e-002
         vertex 1.450258e+002 1.121481e+003 1.251278e-002
      endloop
   endfacet
   facet normal 2.709932e-005 3.044652e-005 1.000000e+000
      outer loop
         vertex 2.245852e+002 9.675539e+002 1.982615e-002
         vertex 2.272214e+002 9.608199e+002 2.067649e-002
         vertex 9.897697e+002 9.466116e+002 7.963058e-005
      endloop
   endfacet
   facet normal 2.731454e-005 2.983936e-005 1.000000e+000
      outer loop
         vertex 9.897697e+002 9.466116e+002 7.963058e-005
         vertex 2.272214e+002 9.608199e+002 2.067649e-002
         vertex 2.298061e+002 9.540637e+002 2.020669e-002
      endloop
   endfacet
   facet normal 2.714194e-005 1.474096e-005 1.000000e+000
      outer loop
         vertex 9.897697e+002 9.466116e+002 7.963058e-005
         vertex 2.298061e+002 9.540637e+002 2.020669e-002
         vertex 9.897715e+002 9.268919e+002 -2.747147e-004
      endloop
   endfacet
   facet normal 2.797438e-005 2.921816e-005 1.000000e+000
      outer loop
         vertex 9.897715e+002 9.268919e+002 -2.747147e-004
         vertex 2.298061e+002 9.540637e+002 2.020669e-002
         vertex 2.317985e+002 9.487192e+002 2.049256e-002
      endloop
   endfacet
   facet normal 2.808348e-005 2.892796e-005 1.000000e+000
      outer loop
         vertex 9.897715e+002 9.268919e+002 -2.747147e-004
         vertex 2.317985e+002 9.487192e+002 2.049256e-002
         vertex 2.323322e+002 9.472859e+002 2.086364e-002
      endloop
   endfacet
   facet normal 2.822497e-005 2.850534e-005 1.000000e+000
      outer loop
         vertex 2.323322e+002 9.472859e+002 2.086364e-002
         vertex 2.348031e+002 9.404868e+002 2.096280e-002
         vertex 9.897715e+002 9.268919e+002 -2.747147e-004
      endloop
   endfacet
   facet normal 2.841853e-005 2.787083e-005 1.000000e+000
      outer loop
         vertex 9.897715e+002 9.268919e+002 -2.747147e-004
         vertex 2.348031e+002 9.404868e+002 2.096280e-002
         vertex 2.372186e+002 9.336681e+002 2.060538e-002
      endloop
   endfacet
   facet normal 2.825683e-005 1.378611e-005 1.000000e+000
      outer loop
         vertex 9.897715e+002 9.268919e+002 -2.747147e-004
         vertex 2.372186e+002 9.336681e+002 2.060538e-002
         vertex 9.897698e+002 9.071719e+002 1.344542e-004
      endloop
   endfacet
   facet normal 2.902416e-005 2.727478e-005 1.000000e+000
      outer loop
         vertex 9.897698e+002 9.071719e+002 1.344542e-004
         vertex 2.372186e+002 9.336681e+002 2.060538e-002
         vertex 2.391902e+002 9.279421e+002 2.154559e-002
      endloop
   endfacet
   facet normal 2.905106e-005 1.351547e-005 1.000000e+000
      outer loop
         vertex 9.897698e+002 9.071719e+002 1.344542e-004
         vertex 2.391902e+002 9.279421e+002 2.154559e-002
         vertex 9.897715e+002 8.874518e+002 -5.266416e-004
      endloop
   endfacet
   facet normal 2.950482e-005 2.691518e-005 1.000000e+000
      outer loop
         vertex 9.897715e+002 8.874518e+002 -5.266416e-004
         vertex 2.391902e+002 9.279421e+002 2.154559e-002
         vertex 2.395754e+002 9.268305e+002 2.106560e-002
      endloop
   endfacet
   facet normal 2.957342e-005 2.651712e-005 1.000000e+000
      outer loop
         vertex 9.897715e+002 8.874518e+002 -5.266416e-004
         vertex 2.395754e+002 9.268305e+002 2.106560e-002
         vertex 2.418731e+002 9.199745e+002 2.183158e-002
      endloop
   endfacet
   facet normal 3.111495e-005 2.256109e-005 1.000000e+000
      outer loop
         vertex 2.525177e+002 8.854199e+002 2.266889e-002
         vertex 2.544762e+002 8.784555e+002 2.231691e-002
         vertex 9.897698e+002 8.677321e+002 1.892778e-004
      endloop
   endfacet
   facet normal 3.129264e-005 2.187283e-005 1.000000e+000
      outer loop
         vertex 9.897698e+002 8.677321e+002 1.892778e-004
         vertex 2.544762e+002 8.784555e+002 2.231691e-002
         vertex 2.563757e+002 8.714757e+002 2.247310e-002
      endloop
   endfacet
   facet normal 3.120216e-005 1.083017e-005 1.000000e+000
      outer loop
         vertex 9.897698e+002 8.677321e+002 1.892778e-004
         vertex 2.563757e+002 8.714757e+002 2.247310e-002
         vertex 9.897717e+002 8.480121e+002 -4.718180e-004
      endloop
   endfacet
   facet normal 3.178092e-005 2.124677e-005 1.000000e+000
      outer loop
         vertex 9.897717e+002 8.480121e+002 -4.718180e-004
         vertex 2.563757e+002 8.714757e+002 2.247310e-002
         vertex 2.581893e+002 8.645829e+002 2.272869e-002
      endloop
   endfacet
   facet normal 3.193027e-005 1.047762e-005 1.000000e+000
      outer loop
         vertex 9.897717e+002 8.480121e+002 -4.718180e-004
         vertex 2.581893e+002 8.645829e+002 2.272869e-002
         vertex 9.897699e+002 8.282925e+002 1.417207e-004
      endloop
   endfacet
   facet normal 3.215414e-005 2.085740e-005 1.000000e+000
      outer loop
         vertex 2.581893e+002 8.645829e+002 2.272869e-002
         vertex 2.582161e+002 8.644811e+002 2.293229e-002
         vertex 9.897699e+002 8.282925e+002 1.417207e-004
      endloop
   endfacet
   facet normal 3.226026e-005 2.054044e-005 1.000000e+000
      outer loop
         vertex 9.897699e+002 8.282925e+002 1.417207e-004
         vertex 2.582161e+002 8.644811e+002 2.293229e-002
         vertex 2.599971e+002 8.574724e+002 2.328458e-002
      endloop
   endfacet
   facet normal 3.241234e-005 1.987813e-005 1.000000e+000
      outer loop
         vertex 9.897699e+002 8.282925e+002 1.417207e-004
         vertex 2.599971e+002 8.574724e+002 2.328458e-002
         vertex 2.617227e+002 8.504511e+002 2.297043e-002
      endloop
   endfacet
   facet normal 3.254573e-005 1.921524e-005 1.000000e+000
      outer loop
         vertex 2.617227e+002 8.504511e+002 2.297043e-002
         vertex 2.633892e+002 8.434164e+002 2.316288e-002
         vertex 9.897699e+002 8.282925e+002 1.417207e-004
      endloop
   endfacet
   facet normal 3.262325e-005 1.889747e-005 1.000000e+000
      outer loop
         vertex 9.897699e+002 8.282925e+002 1.417207e-004
         vertex 2.633892e+002 8.434164e+002 2.316288e-002
         vertex 2.634442e+002 8.431658e+002 2.391167e-002
      endloop
   endfacet
   facet normal 3.269483e-005 1.852617e-005 1.000000e+000
      outer loop
         vertex 9.897699e+002 8.282925e+002 1.417207e-004
         vertex 2.634442e+002 8.431658e+002 2.391167e-002
         vertex 2.649964e+002 8.363661e+002 2.345436e-002
      endloop
   endfacet
   facet normal 2.978566e-005 2.588319e-005 1.000000e+000
      outer loop
         vertex 2.418731e+002 9.199745e+002 2.183158e-002
         vertex 2.441155e+002 9.131015e+002 2.203663e-002
         vertex 9.897715e+002 8.874518e+002 -5.266416e-004
      endloop
   endfacet
   facet normal 2.998517e-005 2.530221e-005 1.000000e+000
      outer loop
         vertex 9.897715e+002 8.874518e+002 -5.266416e-004
         vertex 2.441155e+002 9.131015e+002 2.203663e-002
         vertex 2.460579e+002 9.069849e+002 2.158233e-002
      endloop
   endfacet
   facet normal 3.011096e-005 2.490577e-005 1.000000e+000
      outer loop
         vertex 9.897715e+002 8.874518e+002 -5.266416e-004
         vertex 2.460579e+002 9.069849e+002 2.158233e-002
         vertex 2.463026e+002 9.062094e+002 2.178469e-002
      endloop
   endfacet
   facet normal 3.023278e-005 2.456263e-005 1.000000e+000
      outer loop
         vertex 2.463026e+002 9.062094e+002 2.178469e-002
         vertex 2.484308e+002 8.992979e+002 2.235081e-002
         vertex 9.897715e+002 8.874518e+002 -5.266416e-004
      endloop
   endfacet
   facet normal 3.040170e-005 2.387402e-005 1.000000e+000
      outer loop
         vertex 9.897715e+002 8.874518e+002 -5.266416e-004
         vertex 2.484308e+002 8.992979e+002 2.235081e-002
         vertex 2.505038e+002 8.923674e+002 2.215280e-002
      endloop
   endfacet
   facet normal 3.030314e-005 1.176450e-005 1.000000e+000
      outer loop
         vertex 9.897715e+002 8.874518e+002 -5.266416e-004
         vertex 2.505038e+002 8.923674e+002 2.215280e-002
         vertex 9.897698e+002 8.677321e+002 1.892778e-004
      endloop
   endfacet
   facet normal 3.088007e-005 2.324773e-005 1.000000e+000
      outer loop
         vertex 9.897698e+002 8.677321e+002 1.892778e-004
         vertex 2.505038e+002 8.923674e+002 2.215280e-002
         vertex 2.523899e+002 8.858605e+002 2.257560e-002
      endloop
   endfacet
   facet normal 3.101180e-005 2.290482e-005 1.000000e+000
      outer loop
         vertex 9.897698e+002 8.677321e+002 1.892778e-004
         vertex 2.523899e+002 8.858605e+002 2.257560e-002
         vertex 2.525177e+002 8.854199e+002 2.266889e-002
      endloop
   endfacet
   facet normal 3.415768e-005 1.379454e-005 1.000000e+000
      outer loop
         vertex 2.734112e+002 7.937950e+002 2.469611e-002
         vertex 2.746071e+002 7.866641e+002 2.469100e-002
         vertex 9.897700e+002 7.888524e+002 -7.825494e-006
      endloop
   endfacet
   facet normal 3.427819e-005 1.310466e-005 1.000000e+000
      outer loop
         vertex 9.897700e+002 7.888524e+002 -7.825494e-006
         vertex 2.746071e+002 7.866641e+002 2.469100e-002
         vertex 2.757438e+002 7.795249e+002 2.488182e-002
      endloop
   endfacet
   facet normal 3.424353e-005 6.383600e-006 1.000000e+000
      outer loop
         vertex 9.897700e+002 7.888524e+002 -7.825494e-006
         vertex 2.757438e+002 7.795249e+002 2.488182e-002
         vertex 9.897718e+002 7.691323e+002 -6.689212e-004
      endloop
   endfacet
   facet normal 3.453704e-005 1.271204e-005 1.000000e+000
      outer loop
         vertex 9.897718e+002 7.691323e+002 -6.689212e-004
         vertex 2.757438e+002 7.795249e+002 2.488182e-002
         vertex 2.759439e+002 7.782115e+002 2.433874e-002
      endloop
   endfacet
   facet normal 3.456431e-005 1.236612e-005 1.000000e+000
      outer loop
         vertex 9.897718e+002 7.691323e+002 -6.689212e-004
         vertex 2.759439e+002 7.782115e+002 2.433874e-002
         vertex 2.768211e+002 7.723743e+002 2.486141e-002
      endloop
   endfacet
   facet normal 3.469077e-005 1.172976e-005 1.000000e+000
      outer loop
         vertex 2.768211e+002 7.723743e+002 2.486141e-002
         vertex 2.778391e+002 7.652142e+002 2.524246e-002
         vertex 9.897718e+002 7.691323e+002 -6.689212e-004
      endloop
   endfacet
   facet normal 3.478961e-005 1.101254e-005 1.000000e+000
      outer loop
         vertex 9.897718e+002 7.691323e+002 -6.689212e-004
         vertex 2.778391e+002 7.652142e+002 2.524246e-002
         vertex 2.788014e+002 7.580449e+002 2.454521e-002
      endloop
   endfacet
   facet normal 3.474619e-005 5.384628e-006 1.000000e+000
      outer loop
         vertex 9.897718e+002 7.691323e+002 -6.689212e-004
         vertex 2.788014e+002 7.580449e+002 2.454521e-002
         vertex 9.897701e+002 7.494130e+002 2.513679e-004
      endloop
   endfacet
   facet normal 3.499425e-005 1.064507e-005 1.000000e+000
      outer loop
         vertex 9.897701e+002 7.494130e+002 2.513679e-004
         vertex 2.788014e+002 7.580449e+002 2.454521e-002
         vertex 2.790081e+002 7.563721e+002 2.533627e-002
      endloop
   endfacet
   facet normal 3.506582e-005 1.027377e-005 1.000000e+000
      outer loop
         vertex 9.897701e+002 7.494130e+002 2.513679e-004
         vertex 2.790081e+002 7.563721e+002 2.533627e-002
         vertex 2.797006e+002 7.508672e+002 2.480701e-002
      endloop
   endfacet
   facet normal 3.612309e-005 1.397209e-006 1.000000e+000
      outer loop
         vertex 9.897701e+002 6.705328e+002 -1.501051e-004
         vertex 2.858380e+002 6.643324e+002 2.568811e-002
         vertex 2.859631e+002 6.571022e+002 2.497613e-002
      endloop
   endfacet
   facet normal 3.609847e-005 5.165313e-007 1.000000e+000
      outer loop
         vertex 9.897701e+002 6.705328e+002 -1.501051e-004
         vertex 2.859631e+002 6.571022e+002 2.497613e-002
         vertex 9.897684e+002 6.508136e+002 6.678033e-004
      endloop
   endfacet
   facet normal 3.579231e-005 5.574479e-006 1.000000e+000
      outer loop
         vertex 2.838464e+002 7.076809e+002 2.492543e-002
         vertex 2.843290e+002 7.004648e+002 2.459942e-002
         vertex 9.897701e+002 7.099730e+002 -5.589619e-007
      endloop
   endfacet
   facet normal 3.581132e-005 4.908350e-006 1.000000e+000
      outer loop
         vertex 9.897701e+002 7.099730e+002 -5.589619e-007
         vertex 2.843290e+002 7.004648e+002 2.459942e-002
         vertex 2.847486e+002 6.932446e+002 2.574124e-002
      endloop
   endfacet
   facet normal 3.587465e-005 2.296777e-006 1.000000e+000
      outer loop
         vertex 9.897701e+002 7.099730e+002 -5.589619e-007
         vertex 2.847486e+002 6.932446e+002 2.574124e-002
         vertex 9.897720e+002 6.902529e+002 -5.592740e-004
      endloop
   endfacet
   facet normal 3.594984e-005 4.458971e-006 1.000000e+000
      outer loop
         vertex 9.897720e+002 6.902529e+002 -5.592740e-004
         vertex 2.847486e+002 6.932446e+002 2.574124e-002
         vertex 2.848863e+002 6.904881e+002 2.573444e-002
      endloop
   endfacet
   facet normal 3.596423e-005 4.086055e-006 1.000000e+000
      outer loop
         vertex 9.897720e+002 6.902529e+002 -5.592740e-004
         vertex 2.848863e+002 6.904881e+002 2.573444e-002
         vertex 2.851122e+002 6.860197e+002 2.518732e-002
      endloop
   endfacet
   facet normal 3.600505e-005 3.527201e-006 1.000000e+000
      outer loop
         vertex 2.851122e+002 6.860197e+002 2.518732e-002
         vertex 2.854125e+002 6.787926e+002 2.599729e-002
         vertex 9.897720e+002 6.902529e+002 -5.592740e-004
      endloop
   endfacet
   facet normal 3.598952e-005 2.806740e-006 1.000000e+000
      outer loop
         vertex 9.897720e+002 6.902529e+002 -5.592740e-004
         vertex 2.854125e+002 6.787926e+002 2.599729e-002
         vertex 2.856569e+002 6.715629e+002 2.531472e-002
      endloop
   endfacet
   facet normal 3.604111e-005 1.261553e-006 1.000000e+000
      outer loop
         vertex 9.897720e+002 6.902529e+002 -5.592740e-004
         vertex 2.856569e+002 6.715629e+002 2.531472e-002
         vertex 9.897701e+002 6.705328e+002 -1.501051e-004
      endloop
   endfacet
   facet normal 3.610920e-005 2.276847e-006 1.000000e+000
      outer loop
         vertex 9.897701e+002 6.705328e+002 -1.501051e-004
         vertex 2.856569e+002 6.715629e+002 2.531472e-002
         vertex 2.857333e+002 6.684509e+002 2.579690e-002
      endloop
   endfacet
   facet normal 3.610788e-005 1.930112e-006 1.000000e+000
      outer loop
         vertex 9.897701e+002 6.705328e+002 -1.501051e-004
         vertex 2.857333e+002 6.684509e+002 2.579690e-002
         vertex 2.858380e+002 6.643324e+002 2.568811e-002
      endloop
   endfacet
   facet normal 3.511640e-005 9.635212e-006 1.000000e+000
      outer loop
         vertex 2.797006e+002 7.508672e+002 2.480701e-002
         vertex 2.805404e+002 7.436824e+002 2.505919e-002
         vertex 9.897701e+002 7.494130e+002 2.513679e-004
      endloop
   endfacet
   facet normal 3.522715e-005 9.025036e-006 1.000000e+000
      outer loop
         vertex 9.897701e+002 7.494130e+002 2.513679e-004
         vertex 2.805404e+002 7.436824e+002 2.505919e-002
         vertex 2.813206e+002 7.364915e+002 2.519860e-002
      endloop
   endfacet
   facet normal 3.523992e-005 4.305373e-006 1.000000e+000
      outer loop
         vertex 9.897701e+002 7.494130e+002 2.513679e-004
         vertex 2.813206e+002 7.364915e+002 2.519860e-002
         vertex 9.897719e+002 7.296931e+002 -4.097279e-004
      endloop
   endfacet
   facet normal 3.541988e-005 8.550516e-006 1.000000e+000
      outer loop
         vertex 9.897719e+002 7.296931e+002 -4.097279e-004
         vertex 2.813206e+002 7.364915e+002 2.519860e-002
         vertex 2.815251e+002 7.344628e+002 2.475405e-002
      endloop
   endfacet
   facet normal 3.543724e-005 8.204361e-006 1.000000e+000
      outer loop
         vertex 9.897719e+002 7.296931e+002 -4.097279e-004
         vertex 2.815251e+002 7.344628e+002 2.475405e-002
         vertex 2.820414e+002 7.292946e+002 2.502047e-002
      endloop
   endfacet
   facet normal 3.550369e-005 7.619556e-006 1.000000e+000
      outer loop
         vertex 2.820414e+002 7.292946e+002 2.502047e-002
         vertex 2.827026e+002 7.220947e+002 2.513674e-002
         vertex 9.897719e+002 7.296931e+002 -4.097279e-004
      endloop
   endfacet
   facet normal 3.554139e-005 6.954007e-006 1.000000e+000
      outer loop
         vertex 9.897719e+002 7.296931e+002 -4.097279e-004
         vertex 2.827026e+002 7.220947e+002 2.513674e-002
         vertex 2.833042e+002 7.148908e+002 2.503628e-002
      endloop
   endfacet
   facet normal 3.560952e-005 3.302580e-006 1.000000e+000
      outer loop
         vertex 9.897719e+002 7.296931e+002 -4.097279e-004
         vertex 2.833042e+002 7.148908e+002 2.503628e-002
         vertex 9.897701e+002 7.099730e+002 -5.589619e-007
      endloop
   endfacet
   facet normal 3.570850e-005 6.505439e-006 1.000000e+000
      outer loop
         vertex 9.897701e+002 7.099730e+002 -5.589619e-007
         vertex 2.833042e+002 7.148908e+002 2.503628e-002
         vertex 2.834835e+002 7.124970e+002 2.548555e-002
      endloop
   endfacet
   facet normal 3.575148e-005 6.133333e-006 1.000000e+000
      outer loop
         vertex 9.897701e+002 7.099730e+002 -5.589619e-007
         vertex 2.834835e+002 7.124970e+002 2.548555e-002
         vertex 2.838464e+002 7.076809e+002 2.492543e-002
      endloop
   endfacet
   facet normal 3.285979e-005 1.789085e-005 1.000000e+000
      outer loop
         vertex 2.649964e+002 8.363661e+002 2.345436e-002
         vertex 2.665446e+002 8.293010e+002 2.394646e-002
         vertex 9.897699e+002 8.282925e+002 1.417207e-004
      endloop
   endfacet
   facet normal 3.300294e-005 1.714826e-005 1.000000e+000
      outer loop
         vertex 9.897699e+002 8.282925e+002 1.417207e-004
         vertex 2.665446e+002 8.293010e+002 2.394646e-002
         vertex 2.680371e+002 8.222223e+002 2.336339e-002
      endloop
   endfacet
   facet normal 3.295525e-005 8.400204e-006 1.000000e+000
      outer loop
         vertex 9.897699e+002 8.282925e+002 1.417207e-004
         vertex 2.680371e+002 8.222223e+002 2.336339e-002
         vertex 9.897717e+002 8.085724e+002 -4.169944e-004
      endloop
   endfacet
   facet normal 3.338509e-005 1.683917e-005 1.000000e+000
      outer loop
         vertex 9.897717e+002 8.085724e+002 -4.169944e-004
         vertex 2.680371e+002 8.222223e+002 2.336339e-002
         vertex 2.681577e+002 8.216213e+002 2.381707e-002
      endloop
   endfacet
   facet normal 3.340245e-005 1.649301e-005 1.000000e+000
      outer loop
         vertex 9.897717e+002 8.085724e+002 -4.169944e-004
         vertex 2.681577e+002 8.216213e+002 2.381707e-002
         vertex 2.694669e+002 8.151318e+002 2.445839e-002
      endloop
   endfacet
   facet normal 3.353882e-005 1.585689e-005 1.000000e+000
      outer loop
         vertex 2.694669e+002 8.151318e+002 2.445839e-002
         vertex 2.708410e+002 8.080300e+002 2.457902e-002
         vertex 9.897717e+002 8.085724e+002 -4.169944e-004
      endloop
   endfacet
   facet normal 3.365635e-005 1.514025e-005 1.000000e+000
      outer loop
         vertex 9.897717e+002 8.085724e+002 -4.169944e-004
         vertex 2.708410e+002 8.080300e+002 2.457902e-002
         vertex 2.721557e+002 8.009167e+002 2.438603e-002
      endloop
   endfacet
   facet normal 3.363245e-005 7.432854e-006 1.000000e+000
      outer loop
         vertex 9.897717e+002 8.085724e+002 -4.169944e-004
         vertex 2.721557e+002 8.009167e+002 2.438603e-002
         vertex 9.897700e+002 7.888524e+002 -7.825494e-006
      endloop
   endfacet
   facet normal 3.400098e-005 1.475006e-005 1.000000e+000
      outer loop
         vertex 9.897700e+002 7.888524e+002 -7.825494e-006
         vertex 2.721557e+002 8.009167e+002 2.438603e-002
         vertex 2.723257e+002 7.999656e+002 2.391295e-002
      endloop
   endfacet
   facet normal 3.407553e-005 1.440553e-005 1.000000e+000
      outer loop
         vertex 9.897700e+002 7.888524e+002 -7.825494e-006
         vertex 2.723257e+002 7.999656e+002 2.391295e-002
         vertex 2.734112e+002 7.937950e+002 2.469611e-002
      endloop
   endfacet
   facet normal 2.475531e-005 3.435299e-005 1.000000e+000
      outer loop
         vertex 2.075939e+002 1.007472e+003 1.811337e-002
         vertex 2.105640e+002 1.000876e+003 1.846927e-002
         vertex 9.897696e+002 9.860512e+002 1.271876e-004
      endloop
   endfacet
   facet normal 2.499615e-005 3.371987e-005 1.000000e+000
      outer loop
         vertex 9.897696e+002 9.860512e+002 1.271876e-004
         vertex 2.105640e+002 1.000876e+003 1.846927e-002
         vertex 2.134791e+002 9.942562e+002 1.878086e-002
      endloop
   endfacet
   facet normal 2.473084e-005 1.672549e-005 1.000000e+000
      outer loop
         vertex 9.897696e+002 9.860512e+002 1.271876e-004
         vertex 2.134791e+002 9.942562e+002 1.878086e-002
         vertex 9.897715e+002 9.663317e+002 -3.295383e-004
      endloop
   endfacet
   facet normal 2.563335e-005 3.315138e-005 1.000000e+000
      outer loop
         vertex 9.897715e+002 9.663317e+002 -3.295383e-004
         vertex 2.134791e+002 9.942562e+002 1.878086e-002
         vertex 2.154496e+002 9.896799e+002 1.891168e-002
      endloop
   endfacet
   facet normal 2.565233e-005 1.648509e-005 1.000000e+000
      outer loop
         vertex 9.897715e+002 9.663317e+002 -3.295383e-004
         vertex 2.154496e+002 9.896799e+002 1.891168e-002
         vertex 9.897697e+002 9.466116e+002 7.963058e-005
      endloop
   endfacet
   facet normal 2.618409e-005 3.282039e-005 1.000000e+000
      outer loop
         vertex 9.897697e+002 9.466116e+002 7.963058e-005
         vertex 2.154496e+002 9.896799e+002 1.891168e-002
         vertex 2.163391e+002 9.876139e+002 1.904733e-002
      endloop
   endfacet
   facet normal 2.635418e-005 3.239858e-005 1.000000e+000
      outer loop
         vertex 9.897697e+002 9.466116e+002 7.963058e-005
         vertex 2.163391e+002 9.876139e+002 1.904733e-002
         vertex 2.191441e+002 9.809498e+002 1.916593e-002
      endloop
   endfacet
   facet normal 2.663932e-005 3.174010e-005 1.000000e+000
      outer loop
         vertex 2.191441e+002 9.809498e+002 1.916593e-002
         vertex 2.218903e+002 9.742637e+002 1.989976e-002
         vertex 9.897697e+002 9.466116e+002 7.963058e-005
      endloop
   endfacet
   facet normal 2.682609e-005 3.121205e-005 1.000000e+000
      outer loop
         vertex 9.897697e+002 9.466116e+002 7.963058e-005
         vertex 2.218903e+002 9.742637e+002 1.989976e-002
         vertex 2.238835e+002 9.693028e+002 1.945644e-002
      endloop
   endfacet
   facet normal 2.695783e-005 3.086914e-005 1.000000e+000
      outer loop
         vertex 9.897697e+002 9.466116e+002 7.963058e-005
         vertex 2.238835e+002 9.693028e+002 1.945644e-002
         vertex 2.245852e+002 9.675539e+002 1.982615e-002
      endloop
   endfacet
   facet normal 2.000673e-006 -6.312398e-005 1.000000e+000
      outer loop
         vertex 2.166142e+001 2.034735e+001 2.108678e-003
         vertex 1.645201e+001 1.532677e+001 1.915714e-003
         vertex 9.897695e+002 1.977669e+001 2.155984e-004
      endloop
   endfacet
   facet normal 1.802168e-006 -6.344962e-005 1.000000e+000
      outer loop
         vertex 9.897695e+002 1.977669e+001 2.155984e-004
         vertex 1.645201e+001 1.532677e+001 1.915714e-003
         vertex 1.613836e+001 1.502928e+001 1.828688e-003
      endloop
   endfacet
   facet normal 1.131647e-006 -3.176183e-005 1.000000e+000
      outer loop
         vertex 9.897695e+002 1.977669e+001 2.155984e-004
         vertex 1.613836e+001 1.502928e+001 1.828688e-003
         vertex 9.897713e+002 5.669831e-002 -4.454973e-004
      endloop
   endfacet
   facet normal 1.099028e-006 -6.370968e-005 1.000000e+000
      outer loop
         vertex 9.897713e+002 5.669831e-002 -4.454973e-004
         vertex 1.613836e+001 1.502928e+001 1.828688e-003
         vertex 1.120523e+001 1.035019e+001 5.761913e-004
      endloop
   endfacet
   facet normal 6.577128e-007 -6.433560e-005 1.000000e+000
      outer loop
         vertex 1.120523e+001 1.035019e+001 5.761913e-004
         vertex 5.913862e+000 5.418263e+000 6.393781e-004
         vertex 9.897713e+002 5.669831e-002 -4.454973e-004
      endloop
   endfacet
   facet normal 2.735853e-007 -6.495990e-005 1.000000e+000
      outer loop
         vertex 9.897713e+002 5.669831e-002 -4.454973e-004
         vertex 5.913862e+000 5.418263e+000 6.393781e-004
         vertex 8.682649e-001 7.904724e-001 4.539755e-004
      endloop
   endfacet
   facet normal 5.341522e-008 -6.531289e-005 1.000000e+000
      outer loop
         vertex 9.897713e+002 5.669831e-002 -4.454973e-004
         vertex 8.682649e-001 7.904724e-001 4.539755e-004
         vertex -4.731762e-005 4.008814e-004 1.501809e-004
      endloop
   endfacet
   facet normal 3.612312e-005 -1.349439e-006 1.000000e+000
      outer loop
         vertex 2.859695e+002 6.354120e+002 2.565408e-002
         vertex 2.858523e+002 6.281798e+002 2.554482e-002
         vertex 9.897703e+002 6.310935e+002 1.090882e-004
      endloop
   endfacet
   facet normal 3.612262e-005 -1.856161e-006 1.000000e+000
      outer loop
         vertex 9.897703e+002 6.310935e+002 1.090882e-004
         vertex 2.858523e+002 6.281798e+002 2.554482e-002
         vertex 2.857581e+002 6.243488e+002 2.562741e-002
      endloop
   endfacet
   facet normal 3.607419e-005 -1.030856e-006 1.000000e+000
      outer loop
         vertex 9.897703e+002 6.310935e+002 1.090882e-004
         vertex 2.857581e+002 6.243488e+002 2.562741e-002
         vertex 9.897684e+002 6.113734e+002 5.182571e-004
      endloop
   endfacet
   facet normal 3.606411e-005 -2.204516e-006 1.000000e+000
      outer loop
         vertex 9.897684e+002 6.113734e+002 5.182571e-004
         vertex 2.857581e+002 6.243488e+002 2.562741e-002
         vertex 2.856754e+002 6.209479e+002 2.531809e-002
      endloop
   endfacet
   facet normal 3.607932e-005 -2.737419e-006 1.000000e+000
      outer loop
         vertex 9.897684e+002 6.113734e+002 5.182571e-004
         vertex 2.856754e+002 6.209479e+002 2.531809e-002
         vertex 2.854388e+002 6.137175e+002 2.487071e-002
      endloop
   endfacet
   facet normal 3.611351e-005 7.302704e-007 1.000000e+000
      outer loop
         vertex 2.859631e+002 6.571022e+002 2.497613e-002
         vertex 2.860249e+002 6.498732e+002 2.531855e-002
         vertex 9.897684e+002 6.508136e+002 6.678033e-004
      endloop
   endfacet
   facet normal 3.613170e-005 2.241287e-007 1.000000e+000
      outer loop
         vertex 9.897684e+002 6.508136e+002 6.678033e-004
         vertex 2.860249e+002 6.498732e+002 2.531855e-002
         vertex 2.860240e+002 6.464001e+002 2.586674e-002
      endloop
   endfacet
   facet normal 3.615814e-005 3.819051e-008 1.000000e+000
      outer loop
         vertex 9.897684e+002 6.508136e+002 6.678033e-004
         vertex 2.860240e+002 6.464001e+002 2.586674e-002
         vertex 9.897703e+002 6.310935e+002 1.090882e-004
      endloop
   endfacet
   facet normal 3.613335e-005 -9.584527e-008 1.000000e+000
      outer loop
         vertex 9.897703e+002 6.310935e+002 1.090882e-004
         vertex 2.860240e+002 6.464001e+002 2.586674e-002
         vertex 2.860270e+002 6.426435e+002 2.554427e-002
      endloop
   endfacet
   facet normal 3.614856e-005 -6.287482e-007 1.000000e+000
      outer loop
         vertex 9.897703e+002 6.310935e+002 1.090882e-004
         vertex 2.860270e+002 6.426435e+002 2.554427e-002
         vertex 2.859695e+002 6.354120e+002 2.565408e-002
      endloop
   endfacet
endsolid